<?xml version="1.0" encoding="UTF-8" standalone="no"?><!DOCTYPE svg PUBLIC "-//W3C//DTD SVG 1.1//EN" "http://www.w3.org/Graphics/SVG/1.1/DTD/svg11.dtd"><svg width="100%" height="100%" viewBox="0 0 2484 3509" version="1.1" xmlns="http://www.w3.org/2000/svg" xmlns:xlink="http://www.w3.org/1999/xlink" xml:space="preserve"  style="fill-rule:evenodd;clip-rule:evenodd;stroke-linecap:round;stroke-linejoin:round;stroke-miterlimit:1.5;"><rect x="178.4" y="169.975" width="2453.61" height="3429.87" style="fill-opacity:0.74;stroke:#fff;stroke-width:4.17px;"/><path d="M2483.33,147.433c0,-81.37 -66.062,-147.433 -147.433,-147.433l-2188.47,0c-81.37,0 -147.433,66.063 -147.433,147.433l0,3213.47c0,81.371 66.063,147.433 147.433,147.433l2188.47,0c81.371,0 147.433,-66.062 147.433,-147.433l0,-3213.47Z" style="fill:#fff;stroke:#000;stroke-width:16.5px;"/><path d="M1240.76,1634.41l113.307,85.058l-113.307,85.058l-113.306,-85.058l113.306,-85.058Z" style="fill:#fff;stroke:#fff;stroke-width:4.17px;"/><path d="M247.14,235.003l59.465,46.721l70.648,-53.126l75.794,43.099l61.74,-42.679l47.532,43.267l65.949,-45.393l41.351,39.351l58.803,-40.917l28.961,43.826" style="fill:none;stroke:#fff;stroke-width:39.58px;"/><rect x="178.4" y="169.975" width="2141.32" height="3183.47" style="fill:#810c00;"/><path d="M1240.8,1617.74l146.68,85.058l-146.68,85.059l-146.68,-85.059l146.68,-85.058Z" style="fill:#fff;stroke:#fff;stroke-width:4.17px;"/><path d="M247.14,253.525l69.324,-28.199l73.514,28.199l87.317,-28.199l79.71,28.199l101.846,-28.199l64.788,28.199l88.702,-28.199l87.694,28.199l97.287,-28.199l101.749,28.199l112.32,-28.199l77.025,28.199l118.599,-28.199l110.53,28.199l97.316,-28.199l102.503,28.199l104.783,-28.199l104.671,28.199l112.265,-28.199l92.938,28.199l110.683,-28.199" style="fill:none;stroke:#fff;stroke-width:4.17px;"/><path d="M247.14,295.42l69.324,-28.199l73.514,28.199l87.317,-28.199l79.71,28.199l101.846,-28.199l64.788,28.199l88.702,-28.199l87.694,28.199l97.287,-28.199l101.749,28.199l112.32,-28.199l77.025,28.199l118.599,-28.199l110.53,28.199l97.316,-28.199l102.503,28.199l104.783,-28.199l104.671,28.199l112.265,-28.199l92.938,28.199l110.683,-28.199" style="fill:none;stroke:#fff;stroke-width:4.17px;"/><path d="M247.14,344.452l69.324,-28.199l73.514,28.199l87.317,-28.199l79.71,28.199l101.846,-28.199l64.788,28.199l88.702,-28.199l87.694,28.199l97.287,-28.199l101.749,28.199l112.32,-28.199l77.025,28.199l118.599,-28.199l110.53,28.199l97.316,-28.199l102.503,28.199l104.783,-28.199l104.671,28.199l112.265,-28.199l92.938,28.199l110.683,-28.199" style="fill:none;stroke:#fff;stroke-width:4.17px;"/><path d="M203.592,267.221l28.199,103.722l-28.199,109.993l28.199,130.644l-28.199,119.262l28.199,152.384l-28.199,96.936l28.199,132.716l-28.199,131.209l28.199,145.562l-28.199,152.237l28.199,168.055l-28.199,115.244l28.199,177.449l-28.199,165.377l28.199,145.604l-28.199,153.367l28.199,156.777l-28.199,156.609l28.199,167.971l-28.199,139.055l28.199,165.605" style="fill:none;stroke:#fff;stroke-width:4.17px;"/><path d="M2262.16,267.221l28.199,103.722l-28.199,109.993l28.199,130.644l-28.199,119.262l28.199,152.384l-28.199,96.936l28.199,132.716l-28.199,131.209l28.199,145.562l-28.199,152.237l28.199,168.055l-28.199,115.244l28.199,177.449l-28.199,165.377l28.199,145.604l-28.199,153.367l28.199,156.777l-28.199,156.609l28.199,167.971l-28.199,139.055l28.199,165.605" style="fill:none;stroke:#fff;stroke-width:4.17px;"/><path d="M247.14,3297.88l69.324,-28.199l73.514,28.199l87.317,-28.199l79.71,28.199l101.846,-28.199l64.788,28.199l88.702,-28.199l87.694,28.199l97.287,-28.199l101.749,28.199l112.32,-28.199l77.025,28.199l118.599,-28.199l110.53,28.199l97.316,-28.199l102.503,28.199l104.783,-28.199l104.671,28.199l112.265,-28.199l92.938,28.199l110.683,-28.199" style="fill:none;stroke:#fff;stroke-width:4.17px;"/><path d="M247.14,3231.9l69.324,-28.199l73.514,28.199l87.317,-28.199l79.71,28.199l101.846,-28.199l64.788,28.199l88.702,-28.199l87.694,28.199l97.287,-28.199l101.749,28.199l112.32,-28.199l77.025,28.199l118.599,-28.199l110.53,28.199l97.316,-28.199l102.503,28.199l104.783,-28.199l104.671,28.199l112.265,-28.199l92.938,28.199l110.683,-28.199" style="fill:none;stroke:#fff;stroke-width:4.17px;"/><path d="M247.14,3157.64l69.324,-28.199l73.514,28.199l87.317,-28.199l79.71,28.199l101.846,-28.199l64.788,28.199l88.702,-28.199l87.694,28.199l97.287,-28.199l101.749,28.199l112.32,-28.199l77.025,28.199l118.599,-28.199l110.53,28.199l97.316,-28.199l102.503,28.199l104.783,-28.199l104.671,28.199l112.265,-28.199l92.938,28.199l110.683,-28.199" style="fill:none;stroke:#fff;stroke-width:4.17px;"/><path d="M247.14,1716.9l28.088,-28.199l29.786,28.199l35.378,-28.199l32.295,28.199l41.265,-28.199l26.25,28.199l35.939,-28.199l35.531,28.199l39.417,-28.199l41.225,28.199l45.509,-28.199l31.208,28.199l48.052,-28.199l44.783,28.199l39.429,-28.199l41.531,28.199l42.455,-28.199l42.409,28.199l45.486,-28.199l37.656,28.199l44.845,-28.199" style="fill:none;stroke:#fff;stroke-width:4.17px;"/><path d="M1228.99,445.733l28.199,39.125l-28.199,41.492l28.199,49.281l-28.199,44.987l28.199,57.481l-28.199,36.567l28.199,50.062l-28.199,49.494l28.199,54.909l-28.199,57.426l28.199,63.393l-28.199,43.472l28.199,66.936l-28.199,62.383l28.199,54.924l-28.199,57.852l28.199,59.139l-28.199,59.076l28.199,63.361l-28.199,52.454l28.199,62.469" style="fill:none;stroke:#fff;stroke-width:4.17px;"/><path d="M1228.99,1851.05l28.199,39.126l-28.199,41.491l28.199,49.281l-28.199,44.987l28.199,57.481l-28.199,36.567l28.199,50.062l-28.199,49.494l28.199,54.909l-28.199,57.426l28.199,63.393l-28.199,43.472l28.199,66.936l-28.199,62.383l28.199,54.924l-28.199,57.853l28.199,59.138l-28.199,59.076l28.199,63.361l-28.199,52.454l28.199,62.469" style="fill:none;stroke:#fff;stroke-width:4.17px;"/><path d="M2221.02,1688.7l-28.088,28.199l-29.785,-28.199l-35.378,28.199l-32.296,-28.199l-41.264,28.199l-26.251,-28.199l-35.938,28.199l-35.531,-28.199l-39.418,28.199l-41.225,-28.199l-45.508,28.199l-31.208,-28.199l-48.053,28.199l-44.783,-28.199l-39.429,28.199l-41.531,-28.199l-42.455,28.199l-42.409,-28.199l-45.486,28.199l-37.655,-28.199l-44.845,28.199" style="fill:none;stroke:#fff;stroke-width:4.17px;"/><g><g><g><g><path d="M375.07,388.365l33.425,19.214l-33.425,19.214l-33.426,-19.214l33.426,-19.214Z" style="fill:#ebebeb;"/><path d="M422.627,388.365l33.425,19.214l-33.425,19.214l-33.425,-19.214l33.425,-19.214Z" style="fill:#ebebeb;"/><path d="M489.477,388.365l33.425,19.214l-33.425,19.214l-33.425,-19.214l33.425,-19.214Z" style="fill:#ebebeb;"/><path d="M308.219,388.365l33.425,19.214l-33.425,19.214l-33.425,-19.214l33.425,-19.214Z" style="fill:#ebebeb;"/><path d="M552.302,388.365l33.425,19.214l-33.425,19.214l-33.425,-19.214l33.425,-19.214Z" style="fill:#ebebeb;"/><path d="M707.252,388.365l33.425,19.214l-33.425,19.214l-33.425,-19.214l33.425,-19.214Z" style="fill:#ebebeb;"/><path d="M774.832,388.365l33.425,19.214l-33.425,19.214l-33.425,-19.214l33.425,-19.214Z" style="fill:#ebebeb;"/><path d="M865.709,388.365l33.425,19.214l-33.425,19.214l-33.425,-19.214l33.425,-19.214Z" style="fill:#ebebeb;"/><path d="M1062.48,388.365l33.425,19.214l-33.425,19.214l-33.425,-19.214l33.425,-19.214Z" style="fill:#ebebeb;"/><path d="M1110.04,388.365l33.425,19.214l-33.425,19.214l-33.425,-19.214l33.425,-19.214Z" style="fill:#ebebeb;"/><path d="M1176.89,388.365l33.425,19.214l-33.425,19.214l-33.426,-19.214l33.426,-19.214Z" style="fill:#ebebeb;"/><path d="M927.552,388.365l33.425,19.214l-33.425,19.214l-33.426,-19.214l33.426,-19.214Z" style="fill:#ebebeb;"/><path d="M619.152,388.365l33.425,19.214l-33.425,19.214l-33.425,-19.214l33.425,-19.214Z" style="fill:#ebebeb;"/><path d="M993.854,388.365l33.425,19.214l-33.425,19.214l-33.425,-19.214l33.425,-19.214Z" style="fill:#ebebeb;"/></g><g><path d="M1357.46,388.365l33.425,19.214l-33.425,19.214l-33.425,-19.214l33.425,-19.214Z" style="fill:#ebebeb;"/><path d="M1405.02,388.365l33.425,19.214l-33.425,19.214l-33.425,-19.214l33.425,-19.214Z" style="fill:#ebebeb;"/><path d="M1471.87,388.365l33.426,19.214l-33.426,19.214l-33.425,-19.214l33.425,-19.214Z" style="fill:#ebebeb;"/><path d="M1290.61,388.365l33.426,19.214l-33.426,19.214l-33.425,-19.214l33.425,-19.214Z" style="fill:#ebebeb;"/><path d="M1534.69,388.365l33.425,19.214l-33.425,19.214l-33.425,-19.214l33.425,-19.214Z" style="fill:#ebebeb;"/><path d="M1689.64,388.365l33.425,19.214l-33.425,19.214l-33.425,-19.214l33.425,-19.214Z" style="fill:#ebebeb;"/><path d="M1757.22,388.365l33.425,19.214l-33.425,19.214l-33.425,-19.214l33.425,-19.214Z" style="fill:#ebebeb;"/><path d="M1848.1,388.365l33.426,19.214l-33.426,19.214l-33.425,-19.214l33.425,-19.214Z" style="fill:#ebebeb;"/><path d="M2044.87,388.365l33.425,19.214l-33.425,19.214l-33.425,-19.214l33.425,-19.214Z" style="fill:#ebebeb;"/><path d="M2092.43,388.365l33.426,19.214l-33.426,19.214l-33.425,-19.214l33.425,-19.214Z" style="fill:#ebebeb;"/><path d="M2159.28,388.365l33.425,19.214l-33.425,19.214l-33.425,-19.214l33.425,-19.214Z" style="fill:#ebebeb;"/><path d="M1909.94,388.365l33.425,19.214l-33.425,19.214l-33.425,-19.214l33.425,-19.214Z" style="fill:#ebebeb;"/><path d="M1601.54,388.365l33.425,19.214l-33.425,19.214l-33.425,-19.214l33.425,-19.214Z" style="fill:#ebebeb;"/><path d="M1976.25,388.365l33.425,19.214l-33.425,19.214l-33.425,-19.214l33.425,-19.214Z" style="fill:#ebebeb;"/></g></g><g><g><path d="M375.07,523.074l33.425,19.214l-33.425,19.214l-33.426,-19.214l33.426,-19.214Z" style="fill:#ebebeb;"/><path d="M422.627,523.074l33.425,19.214l-33.425,19.214l-33.425,-19.214l33.425,-19.214Z" style="fill:#ebebeb;"/><path d="M489.477,523.074l33.425,19.214l-33.425,19.214l-33.425,-19.214l33.425,-19.214Z" style="fill:#ebebeb;"/><path d="M308.219,523.074l33.425,19.214l-33.425,19.214l-33.425,-19.214l33.425,-19.214Z" style="fill:#ebebeb;"/><path d="M552.302,523.074l33.425,19.214l-33.425,19.214l-33.425,-19.214l33.425,-19.214Z" style="fill:#ebebeb;"/><path d="M707.252,523.074l33.425,19.214l-33.425,19.214l-33.425,-19.214l33.425,-19.214Z" style="fill:#ebebeb;"/><path d="M774.832,523.074l33.425,19.214l-33.425,19.214l-33.425,-19.214l33.425,-19.214Z" style="fill:#ebebeb;"/><path d="M865.709,523.074l33.425,19.214l-33.425,19.214l-33.425,-19.214l33.425,-19.214Z" style="fill:#ebebeb;"/><path d="M1062.48,523.074l33.425,19.214l-33.425,19.214l-33.425,-19.214l33.425,-19.214Z" style="fill:#ebebeb;"/><path d="M1110.04,523.074l33.425,19.214l-33.425,19.214l-33.425,-19.214l33.425,-19.214Z" style="fill:#ebebeb;"/><path d="M1176.89,523.074l33.425,19.214l-33.425,19.214l-33.426,-19.214l33.426,-19.214Z" style="fill:#ebebeb;"/><path d="M927.552,523.074l33.425,19.214l-33.425,19.214l-33.426,-19.214l33.426,-19.214Z" style="fill:#ebebeb;"/><path d="M619.152,523.074l33.425,19.214l-33.425,19.214l-33.425,-19.214l33.425,-19.214Z" style="fill:#ebebeb;"/><path d="M993.854,523.074l33.425,19.214l-33.425,19.214l-33.425,-19.214l33.425,-19.214Z" style="fill:#ebebeb;"/></g><g><path d="M1357.46,523.074l33.425,19.214l-33.425,19.214l-33.425,-19.214l33.425,-19.214Z" style="fill:#ebebeb;"/><path d="M1405.02,523.074l33.425,19.214l-33.425,19.214l-33.425,-19.214l33.425,-19.214Z" style="fill:#ebebeb;"/><path d="M1471.87,523.074l33.426,19.214l-33.426,19.214l-33.425,-19.214l33.425,-19.214Z" style="fill:#ebebeb;"/><path d="M1290.61,523.074l33.426,19.214l-33.426,19.214l-33.425,-19.214l33.425,-19.214Z" style="fill:#ebebeb;"/><path d="M1534.69,523.074l33.425,19.214l-33.425,19.214l-33.425,-19.214l33.425,-19.214Z" style="fill:#ebebeb;"/><path d="M1689.64,523.074l33.425,19.214l-33.425,19.214l-33.425,-19.214l33.425,-19.214Z" style="fill:#ebebeb;"/><path d="M1757.22,523.074l33.425,19.214l-33.425,19.214l-33.425,-19.214l33.425,-19.214Z" style="fill:#ebebeb;"/><path d="M1848.1,523.074l33.426,19.214l-33.426,19.214l-33.425,-19.214l33.425,-19.214Z" style="fill:#ebebeb;"/><path d="M2044.87,523.074l33.425,19.214l-33.425,19.214l-33.425,-19.214l33.425,-19.214Z" style="fill:#ebebeb;"/><path d="M2092.43,523.074l33.426,19.214l-33.426,19.214l-33.425,-19.214l33.425,-19.214Z" style="fill:#ebebeb;"/><path d="M2159.28,523.074l33.425,19.214l-33.425,19.214l-33.425,-19.214l33.425,-19.214Z" style="fill:#ebebeb;"/><path d="M1909.94,523.074l33.425,19.214l-33.425,19.214l-33.425,-19.214l33.425,-19.214Z" style="fill:#ebebeb;"/><path d="M1601.54,523.074l33.425,19.214l-33.425,19.214l-33.425,-19.214l33.425,-19.214Z" style="fill:#ebebeb;"/><path d="M1976.25,523.074l33.425,19.214l-33.425,19.214l-33.425,-19.214l33.425,-19.214Z" style="fill:#ebebeb;"/></g></g></g><g><g><g><path d="M375.07,706.112l33.425,19.214l-33.425,19.214l-33.426,-19.214l33.426,-19.214Z" style="fill:#ebebeb;"/><path d="M422.627,706.112l33.425,19.214l-33.425,19.214l-33.425,-19.214l33.425,-19.214Z" style="fill:#ebebeb;"/><path d="M489.477,706.112l33.425,19.214l-33.425,19.214l-33.425,-19.214l33.425,-19.214Z" style="fill:#ebebeb;"/><path d="M308.219,706.112l33.425,19.214l-33.425,19.214l-33.425,-19.214l33.425,-19.214Z" style="fill:#ebebeb;"/><path d="M552.302,706.112l33.425,19.214l-33.425,19.214l-33.425,-19.214l33.425,-19.214Z" style="fill:#ebebeb;"/><path d="M707.252,706.112l33.425,19.214l-33.425,19.214l-33.425,-19.214l33.425,-19.214Z" style="fill:#ebebeb;"/><path d="M774.832,706.112l33.425,19.214l-33.425,19.214l-33.425,-19.214l33.425,-19.214Z" style="fill:#ebebeb;"/><path d="M865.709,706.112l33.425,19.214l-33.425,19.214l-33.425,-19.214l33.425,-19.214Z" style="fill:#ebebeb;"/><path d="M1062.48,706.112l33.425,19.214l-33.425,19.214l-33.425,-19.214l33.425,-19.214Z" style="fill:#ebebeb;"/><path d="M1110.04,706.112l33.425,19.214l-33.425,19.214l-33.425,-19.214l33.425,-19.214Z" style="fill:#ebebeb;"/><path d="M1176.89,706.112l33.425,19.214l-33.425,19.214l-33.426,-19.214l33.426,-19.214Z" style="fill:#ebebeb;"/><path d="M927.552,706.112l33.425,19.214l-33.425,19.214l-33.426,-19.214l33.426,-19.214Z" style="fill:#ebebeb;"/><path d="M619.152,706.112l33.425,19.214l-33.425,19.214l-33.425,-19.214l33.425,-19.214Z" style="fill:#ebebeb;"/><path d="M993.854,706.112l33.425,19.214l-33.425,19.214l-33.425,-19.214l33.425,-19.214Z" style="fill:#ebebeb;"/></g><g><path d="M1357.46,706.112l33.425,19.214l-33.425,19.214l-33.425,-19.214l33.425,-19.214Z" style="fill:#ebebeb;"/><path d="M1405.02,706.112l33.425,19.214l-33.425,19.214l-33.425,-19.214l33.425,-19.214Z" style="fill:#ebebeb;"/><path d="M1471.87,706.112l33.426,19.214l-33.426,19.214l-33.425,-19.214l33.425,-19.214Z" style="fill:#ebebeb;"/><path d="M1290.61,706.112l33.426,19.214l-33.426,19.214l-33.425,-19.214l33.425,-19.214Z" style="fill:#ebebeb;"/><path d="M1534.69,706.112l33.425,19.214l-33.425,19.214l-33.425,-19.214l33.425,-19.214Z" style="fill:#ebebeb;"/><path d="M1689.64,706.112l33.425,19.214l-33.425,19.214l-33.425,-19.214l33.425,-19.214Z" style="fill:#ebebeb;"/><path d="M1757.22,706.112l33.425,19.214l-33.425,19.214l-33.425,-19.214l33.425,-19.214Z" style="fill:#ebebeb;"/><path d="M1848.1,706.112l33.426,19.214l-33.426,19.214l-33.425,-19.214l33.425,-19.214Z" style="fill:#ebebeb;"/><path d="M2044.87,706.112l33.425,19.214l-33.425,19.214l-33.425,-19.214l33.425,-19.214Z" style="fill:#ebebeb;"/><path d="M2092.43,706.112l33.426,19.214l-33.426,19.214l-33.425,-19.214l33.425,-19.214Z" style="fill:#ebebeb;"/><path d="M2159.28,706.112l33.425,19.214l-33.425,19.214l-33.425,-19.214l33.425,-19.214Z" style="fill:#ebebeb;"/><path d="M1909.94,706.112l33.425,19.214l-33.425,19.214l-33.425,-19.214l33.425,-19.214Z" style="fill:#ebebeb;"/><path d="M1601.54,706.112l33.425,19.214l-33.425,19.214l-33.425,-19.214l33.425,-19.214Z" style="fill:#ebebeb;"/><path d="M1976.25,706.112l33.425,19.214l-33.425,19.214l-33.425,-19.214l33.425,-19.214Z" style="fill:#ebebeb;"/></g></g><g><g><path d="M375.07,840.821l33.425,19.214l-33.425,19.214l-33.426,-19.214l33.426,-19.214Z" style="fill:#ebebeb;"/><path d="M422.627,840.821l33.425,19.214l-33.425,19.214l-33.425,-19.214l33.425,-19.214Z" style="fill:#ebebeb;"/><path d="M489.477,840.821l33.425,19.214l-33.425,19.214l-33.425,-19.214l33.425,-19.214Z" style="fill:#ebebeb;"/><path d="M308.219,840.821l33.425,19.214l-33.425,19.214l-33.425,-19.214l33.425,-19.214Z" style="fill:#ebebeb;"/><path d="M552.302,840.821l33.425,19.214l-33.425,19.214l-33.425,-19.214l33.425,-19.214Z" style="fill:#ebebeb;"/><path d="M707.252,840.821l33.425,19.214l-33.425,19.214l-33.425,-19.214l33.425,-19.214Z" style="fill:#ebebeb;"/><path d="M774.832,840.821l33.425,19.214l-33.425,19.214l-33.425,-19.214l33.425,-19.214Z" style="fill:#ebebeb;"/><path d="M865.709,840.821l33.425,19.214l-33.425,19.214l-33.425,-19.214l33.425,-19.214Z" style="fill:#ebebeb;"/><path d="M1062.48,840.821l33.425,19.214l-33.425,19.214l-33.425,-19.214l33.425,-19.214Z" style="fill:#ebebeb;"/><path d="M1110.04,840.821l33.425,19.214l-33.425,19.214l-33.425,-19.214l33.425,-19.214Z" style="fill:#ebebeb;"/><path d="M1176.89,840.821l33.425,19.214l-33.425,19.214l-33.426,-19.214l33.426,-19.214Z" style="fill:#ebebeb;"/><path d="M927.552,840.821l33.425,19.214l-33.425,19.214l-33.426,-19.214l33.426,-19.214Z" style="fill:#ebebeb;"/><path d="M619.152,840.821l33.425,19.214l-33.425,19.214l-33.425,-19.214l33.425,-19.214Z" style="fill:#ebebeb;"/><path d="M993.854,840.821l33.425,19.214l-33.425,19.214l-33.425,-19.214l33.425,-19.214Z" style="fill:#ebebeb;"/></g><g><path d="M1357.46,840.821l33.425,19.214l-33.425,19.214l-33.425,-19.214l33.425,-19.214Z" style="fill:#ebebeb;"/><path d="M1405.02,840.821l33.425,19.214l-33.425,19.214l-33.425,-19.214l33.425,-19.214Z" style="fill:#ebebeb;"/><path d="M1471.87,840.821l33.426,19.214l-33.426,19.214l-33.425,-19.214l33.425,-19.214Z" style="fill:#ebebeb;"/><path d="M1290.61,840.821l33.426,19.214l-33.426,19.214l-33.425,-19.214l33.425,-19.214Z" style="fill:#ebebeb;"/><path d="M1534.69,840.821l33.425,19.214l-33.425,19.214l-33.425,-19.214l33.425,-19.214Z" style="fill:#ebebeb;"/><path d="M1689.64,840.821l33.425,19.214l-33.425,19.214l-33.425,-19.214l33.425,-19.214Z" style="fill:#ebebeb;"/><path d="M1757.22,840.821l33.425,19.214l-33.425,19.214l-33.425,-19.214l33.425,-19.214Z" style="fill:#ebebeb;"/><path d="M1848.1,840.821l33.426,19.214l-33.426,19.214l-33.425,-19.214l33.425,-19.214Z" style="fill:#ebebeb;"/><path d="M2044.87,840.821l33.425,19.214l-33.425,19.214l-33.425,-19.214l33.425,-19.214Z" style="fill:#ebebeb;"/><path d="M2092.43,840.821l33.426,19.214l-33.426,19.214l-33.425,-19.214l33.425,-19.214Z" style="fill:#ebebeb;"/><path d="M2159.28,840.821l33.425,19.214l-33.425,19.214l-33.425,-19.214l33.425,-19.214Z" style="fill:#ebebeb;"/><path d="M1909.94,840.821l33.425,19.214l-33.425,19.214l-33.425,-19.214l33.425,-19.214Z" style="fill:#ebebeb;"/><path d="M1601.54,840.821l33.425,19.214l-33.425,19.214l-33.425,-19.214l33.425,-19.214Z" style="fill:#ebebeb;"/><path d="M1976.25,840.821l33.425,19.214l-33.425,19.214l-33.425,-19.214l33.425,-19.214Z" style="fill:#ebebeb;"/></g></g></g></g><g><g><g><g><path d="M382.987,1081.13l33.425,19.214l-33.425,19.214l-33.425,-19.214l33.425,-19.214Z" style="fill:#ebebeb;"/><path d="M430.545,1081.13l33.425,19.214l-33.425,19.214l-33.425,-19.214l33.425,-19.214Z" style="fill:#ebebeb;"/><path d="M497.395,1081.13l33.425,19.214l-33.425,19.214l-33.425,-19.214l33.425,-19.214Z" style="fill:#ebebeb;"/><path d="M316.137,1081.13l33.425,19.214l-33.425,19.214l-33.425,-19.214l33.425,-19.214Z" style="fill:#ebebeb;"/><path d="M560.22,1081.13l33.425,19.214l-33.425,19.214l-33.426,-19.214l33.426,-19.214Z" style="fill:#ebebeb;"/><path d="M715.169,1081.13l33.426,19.214l-33.426,19.214l-33.425,-19.214l33.425,-19.214Z" style="fill:#ebebeb;"/><path d="M782.749,1081.13l33.426,19.214l-33.426,19.214l-33.425,-19.214l33.425,-19.214Z" style="fill:#ebebeb;"/><path d="M873.627,1081.13l33.425,19.214l-33.425,19.214l-33.425,-19.214l33.425,-19.214Z" style="fill:#ebebeb;"/><path d="M1070.4,1081.13l33.425,19.214l-33.425,19.214l-33.426,-19.214l33.426,-19.214Z" style="fill:#ebebeb;"/><path d="M1117.95,1081.13l33.425,19.214l-33.425,19.214l-33.425,-19.214l33.425,-19.214Z" style="fill:#ebebeb;"/><path d="M1184.8,1081.13l33.425,19.214l-33.425,19.214l-33.425,-19.214l33.425,-19.214Z" style="fill:#ebebeb;"/><path d="M935.469,1081.13l33.425,19.214l-33.425,19.214l-33.425,-19.214l33.425,-19.214Z" style="fill:#ebebeb;"/><path d="M627.07,1081.13l33.425,19.214l-33.425,19.214l-33.425,-19.214l33.425,-19.214Z" style="fill:#ebebeb;"/><path d="M1001.77,1081.13l33.425,19.214l-33.425,19.214l-33.425,-19.214l33.425,-19.214Z" style="fill:#ebebeb;"/></g><g><path d="M1365.38,1081.13l33.426,19.214l-33.426,19.214l-33.425,-19.214l33.425,-19.214Z" style="fill:#ebebeb;"/><path d="M1412.94,1081.13l33.425,19.214l-33.425,19.214l-33.425,-19.214l33.425,-19.214Z" style="fill:#ebebeb;"/><path d="M1479.79,1081.13l33.425,19.214l-33.425,19.214l-33.425,-19.214l33.425,-19.214Z" style="fill:#ebebeb;"/><path d="M1298.53,1081.13l33.425,19.214l-33.425,19.214l-33.425,-19.214l33.425,-19.214Z" style="fill:#ebebeb;"/><path d="M1542.61,1081.13l33.425,19.214l-33.425,19.214l-33.425,-19.214l33.425,-19.214Z" style="fill:#ebebeb;"/><path d="M1697.56,1081.13l33.425,19.214l-33.425,19.214l-33.426,-19.214l33.426,-19.214Z" style="fill:#ebebeb;"/><path d="M1765.14,1081.13l33.425,19.214l-33.425,19.214l-33.425,-19.214l33.425,-19.214Z" style="fill:#ebebeb;"/><path d="M1856.02,1081.13l33.425,19.214l-33.425,19.214l-33.425,-19.214l33.425,-19.214Z" style="fill:#ebebeb;"/><path d="M2052.79,1081.13l33.425,19.214l-33.425,19.214l-33.425,-19.214l33.425,-19.214Z" style="fill:#ebebeb;"/><path d="M2100.35,1081.13l33.425,19.214l-33.425,19.214l-33.425,-19.214l33.425,-19.214Z" style="fill:#ebebeb;"/><path d="M2167.2,1081.13l33.426,19.214l-33.426,19.214l-33.425,-19.214l33.425,-19.214Z" style="fill:#ebebeb;"/><path d="M1917.86,1081.13l33.426,19.214l-33.426,19.214l-33.425,-19.214l33.425,-19.214Z" style="fill:#ebebeb;"/><path d="M1609.46,1081.13l33.425,19.214l-33.425,19.214l-33.425,-19.214l33.425,-19.214Z" style="fill:#ebebeb;"/><path d="M1984.16,1081.13l33.425,19.214l-33.425,19.214l-33.425,-19.214l33.425,-19.214Z" style="fill:#ebebeb;"/></g></g><g><g><path d="M382.987,1215.84l33.425,19.214l-33.425,19.214l-33.425,-19.214l33.425,-19.214Z" style="fill:#ebebeb;"/><path d="M430.545,1215.84l33.425,19.214l-33.425,19.214l-33.425,-19.214l33.425,-19.214Z" style="fill:#ebebeb;"/><path d="M497.395,1215.84l33.425,19.214l-33.425,19.214l-33.425,-19.214l33.425,-19.214Z" style="fill:#ebebeb;"/><path d="M316.137,1215.84l33.425,19.214l-33.425,19.214l-33.425,-19.214l33.425,-19.214Z" style="fill:#ebebeb;"/><path d="M560.22,1215.84l33.425,19.214l-33.425,19.214l-33.426,-19.214l33.426,-19.214Z" style="fill:#ebebeb;"/><path d="M715.169,1215.84l33.426,19.214l-33.426,19.214l-33.425,-19.214l33.425,-19.214Z" style="fill:#ebebeb;"/><path d="M782.749,1215.84l33.426,19.214l-33.426,19.214l-33.425,-19.214l33.425,-19.214Z" style="fill:#ebebeb;"/><path d="M873.627,1215.84l33.425,19.214l-33.425,19.214l-33.425,-19.214l33.425,-19.214Z" style="fill:#ebebeb;"/><path d="M1070.4,1215.84l33.425,19.214l-33.425,19.214l-33.426,-19.214l33.426,-19.214Z" style="fill:#ebebeb;"/><path d="M1117.95,1215.84l33.425,19.214l-33.425,19.214l-33.425,-19.214l33.425,-19.214Z" style="fill:#ebebeb;"/><path d="M1184.8,1215.84l33.425,19.214l-33.425,19.214l-33.425,-19.214l33.425,-19.214Z" style="fill:#ebebeb;"/><path d="M935.469,1215.84l33.425,19.214l-33.425,19.214l-33.425,-19.214l33.425,-19.214Z" style="fill:#ebebeb;"/><path d="M627.07,1215.84l33.425,19.214l-33.425,19.214l-33.425,-19.214l33.425,-19.214Z" style="fill:#ebebeb;"/><path d="M1001.77,1215.84l33.425,19.214l-33.425,19.214l-33.425,-19.214l33.425,-19.214Z" style="fill:#ebebeb;"/></g><g><path d="M1365.38,1215.84l33.426,19.214l-33.426,19.214l-33.425,-19.214l33.425,-19.214Z" style="fill:#ebebeb;"/><path d="M1412.94,1215.84l33.425,19.214l-33.425,19.214l-33.425,-19.214l33.425,-19.214Z" style="fill:#ebebeb;"/><path d="M1479.79,1215.84l33.425,19.214l-33.425,19.214l-33.425,-19.214l33.425,-19.214Z" style="fill:#ebebeb;"/><path d="M1298.53,1215.84l33.425,19.214l-33.425,19.214l-33.425,-19.214l33.425,-19.214Z" style="fill:#ebebeb;"/><path d="M1542.61,1215.84l33.425,19.214l-33.425,19.214l-33.425,-19.214l33.425,-19.214Z" style="fill:#ebebeb;"/><path d="M1697.56,1215.84l33.425,19.214l-33.425,19.214l-33.426,-19.214l33.426,-19.214Z" style="fill:#ebebeb;"/><path d="M1765.14,1215.84l33.425,19.214l-33.425,19.214l-33.425,-19.214l33.425,-19.214Z" style="fill:#ebebeb;"/><path d="M1856.02,1215.84l33.425,19.214l-33.425,19.214l-33.425,-19.214l33.425,-19.214Z" style="fill:#ebebeb;"/><path d="M2052.79,1215.84l33.425,19.214l-33.425,19.214l-33.425,-19.214l33.425,-19.214Z" style="fill:#ebebeb;"/><path d="M2100.35,1215.84l33.425,19.214l-33.425,19.214l-33.425,-19.214l33.425,-19.214Z" style="fill:#ebebeb;"/><path d="M2167.2,1215.84l33.426,19.214l-33.426,19.214l-33.425,-19.214l33.425,-19.214Z" style="fill:#ebebeb;"/><path d="M1917.86,1215.84l33.426,19.214l-33.426,19.214l-33.425,-19.214l33.425,-19.214Z" style="fill:#ebebeb;"/><path d="M1609.46,1215.84l33.425,19.214l-33.425,19.214l-33.425,-19.214l33.425,-19.214Z" style="fill:#ebebeb;"/><path d="M1984.16,1215.84l33.425,19.214l-33.425,19.214l-33.425,-19.214l33.425,-19.214Z" style="fill:#ebebeb;"/></g></g></g><g><g><g><path d="M382.987,1398.88l33.425,19.214l-33.425,19.214l-33.425,-19.214l33.425,-19.214Z" style="fill:#ebebeb;"/><path d="M430.545,1398.88l33.425,19.214l-33.425,19.214l-33.425,-19.214l33.425,-19.214Z" style="fill:#ebebeb;"/><path d="M497.395,1398.88l33.425,19.214l-33.425,19.214l-33.425,-19.214l33.425,-19.214Z" style="fill:#ebebeb;"/><path d="M316.137,1398.88l33.425,19.214l-33.425,19.214l-33.425,-19.214l33.425,-19.214Z" style="fill:#ebebeb;"/><path d="M560.22,1398.88l33.425,19.214l-33.425,19.214l-33.426,-19.214l33.426,-19.214Z" style="fill:#ebebeb;"/><path d="M715.169,1398.88l33.426,19.214l-33.426,19.214l-33.425,-19.214l33.425,-19.214Z" style="fill:#ebebeb;"/><path d="M782.749,1398.88l33.426,19.214l-33.426,19.214l-33.425,-19.214l33.425,-19.214Z" style="fill:#ebebeb;"/><path d="M873.627,1398.88l33.425,19.214l-33.425,19.214l-33.425,-19.214l33.425,-19.214Z" style="fill:#ebebeb;"/><path d="M1070.4,1398.88l33.425,19.214l-33.425,19.214l-33.426,-19.214l33.426,-19.214Z" style="fill:#ebebeb;"/><path d="M1117.95,1398.88l33.425,19.214l-33.425,19.214l-33.425,-19.214l33.425,-19.214Z" style="fill:#ebebeb;"/><path d="M1184.8,1398.88l33.425,19.214l-33.425,19.214l-33.425,-19.214l33.425,-19.214Z" style="fill:#ebebeb;"/><path d="M935.469,1398.88l33.425,19.214l-33.425,19.214l-33.425,-19.214l33.425,-19.214Z" style="fill:#ebebeb;"/><path d="M627.07,1398.88l33.425,19.214l-33.425,19.214l-33.425,-19.214l33.425,-19.214Z" style="fill:#ebebeb;"/><path d="M1001.77,1398.88l33.425,19.214l-33.425,19.214l-33.425,-19.214l33.425,-19.214Z" style="fill:#ebebeb;"/></g><g><path d="M1365.38,1398.88l33.426,19.214l-33.426,19.214l-33.425,-19.214l33.425,-19.214Z" style="fill:#ebebeb;"/><path d="M1412.94,1398.88l33.425,19.214l-33.425,19.214l-33.425,-19.214l33.425,-19.214Z" style="fill:#ebebeb;"/><path d="M1479.79,1398.88l33.425,19.214l-33.425,19.214l-33.425,-19.214l33.425,-19.214Z" style="fill:#ebebeb;"/><path d="M1298.53,1398.88l33.425,19.214l-33.425,19.214l-33.425,-19.214l33.425,-19.214Z" style="fill:#ebebeb;"/><path d="M1542.61,1398.88l33.425,19.214l-33.425,19.214l-33.425,-19.214l33.425,-19.214Z" style="fill:#ebebeb;"/><path d="M1697.56,1398.88l33.425,19.214l-33.425,19.214l-33.426,-19.214l33.426,-19.214Z" style="fill:#ebebeb;"/><path d="M1765.14,1398.88l33.425,19.214l-33.425,19.214l-33.425,-19.214l33.425,-19.214Z" style="fill:#ebebeb;"/><path d="M1856.02,1398.88l33.425,19.214l-33.425,19.214l-33.425,-19.214l33.425,-19.214Z" style="fill:#ebebeb;"/><path d="M2052.79,1398.88l33.425,19.214l-33.425,19.214l-33.425,-19.214l33.425,-19.214Z" style="fill:#ebebeb;"/><path d="M2100.35,1398.88l33.425,19.214l-33.425,19.214l-33.425,-19.214l33.425,-19.214Z" style="fill:#ebebeb;"/><path d="M2167.2,1398.88l33.426,19.214l-33.426,19.214l-33.425,-19.214l33.425,-19.214Z" style="fill:#ebebeb;"/><path d="M1917.86,1398.88l33.426,19.214l-33.426,19.214l-33.425,-19.214l33.425,-19.214Z" style="fill:#ebebeb;"/><path d="M1609.46,1398.88l33.425,19.214l-33.425,19.214l-33.425,-19.214l33.425,-19.214Z" style="fill:#ebebeb;"/><path d="M1984.16,1398.88l33.425,19.214l-33.425,19.214l-33.425,-19.214l33.425,-19.214Z" style="fill:#ebebeb;"/></g></g><g><g><path d="M382.987,1533.59l33.425,19.214l-33.425,19.214l-33.425,-19.214l33.425,-19.214Z" style="fill:#ebebeb;"/><path d="M430.545,1533.59l33.425,19.214l-33.425,19.214l-33.425,-19.214l33.425,-19.214Z" style="fill:#ebebeb;"/><path d="M497.395,1533.59l33.425,19.214l-33.425,19.214l-33.425,-19.214l33.425,-19.214Z" style="fill:#ebebeb;"/><path d="M316.137,1533.59l33.425,19.214l-33.425,19.214l-33.425,-19.214l33.425,-19.214Z" style="fill:#ebebeb;"/><path d="M560.22,1533.59l33.425,19.214l-33.425,19.214l-33.426,-19.214l33.426,-19.214Z" style="fill:#ebebeb;"/><path d="M715.169,1533.59l33.426,19.214l-33.426,19.214l-33.425,-19.214l33.425,-19.214Z" style="fill:#ebebeb;"/><path d="M782.749,1533.59l33.426,19.214l-33.426,19.214l-33.425,-19.214l33.425,-19.214Z" style="fill:#ebebeb;"/><path d="M873.627,1533.59l33.425,19.214l-33.425,19.214l-33.425,-19.214l33.425,-19.214Z" style="fill:#ebebeb;"/><path d="M1070.4,1533.59l33.425,19.214l-33.425,19.214l-33.426,-19.214l33.426,-19.214Z" style="fill:#ebebeb;"/><path d="M1117.95,1533.59l33.425,19.214l-33.425,19.214l-33.425,-19.214l33.425,-19.214Z" style="fill:#ebebeb;"/><path d="M1184.8,1533.59l33.425,19.214l-33.425,19.214l-33.425,-19.214l33.425,-19.214Z" style="fill:#ebebeb;"/><path d="M935.469,1533.59l33.425,19.214l-33.425,19.214l-33.425,-19.214l33.425,-19.214Z" style="fill:#ebebeb;"/><path d="M627.07,1533.59l33.425,19.214l-33.425,19.214l-33.425,-19.214l33.425,-19.214Z" style="fill:#ebebeb;"/><path d="M1001.77,1533.59l33.425,19.214l-33.425,19.214l-33.425,-19.214l33.425,-19.214Z" style="fill:#ebebeb;"/></g><g><path d="M1365.38,1533.59l33.426,19.214l-33.426,19.214l-33.425,-19.214l33.425,-19.214Z" style="fill:#ebebeb;"/><path d="M1412.94,1533.59l33.425,19.214l-33.425,19.214l-33.425,-19.214l33.425,-19.214Z" style="fill:#ebebeb;"/><path d="M1479.79,1533.59l33.425,19.214l-33.425,19.214l-33.425,-19.214l33.425,-19.214Z" style="fill:#ebebeb;"/><path d="M1298.53,1533.59l33.425,19.214l-33.425,19.214l-33.425,-19.214l33.425,-19.214Z" style="fill:#ebebeb;"/><path d="M1542.61,1533.59l33.425,19.214l-33.425,19.214l-33.425,-19.214l33.425,-19.214Z" style="fill:#ebebeb;"/><path d="M1697.56,1533.59l33.425,19.214l-33.425,19.214l-33.426,-19.214l33.426,-19.214Z" style="fill:#ebebeb;"/><path d="M1765.14,1533.59l33.425,19.214l-33.425,19.214l-33.425,-19.214l33.425,-19.214Z" style="fill:#ebebeb;"/><path d="M1856.02,1533.59l33.425,19.214l-33.425,19.214l-33.425,-19.214l33.425,-19.214Z" style="fill:#ebebeb;"/><path d="M2052.79,1533.59l33.425,19.214l-33.425,19.214l-33.425,-19.214l33.425,-19.214Z" style="fill:#ebebeb;"/><path d="M2100.35,1533.59l33.425,19.214l-33.425,19.214l-33.425,-19.214l33.425,-19.214Z" style="fill:#ebebeb;"/><path d="M2167.2,1533.59l33.426,19.214l-33.426,19.214l-33.425,-19.214l33.425,-19.214Z" style="fill:#ebebeb;"/><path d="M1917.86,1533.59l33.426,19.214l-33.426,19.214l-33.425,-19.214l33.425,-19.214Z" style="fill:#ebebeb;"/><path d="M1609.46,1533.59l33.425,19.214l-33.425,19.214l-33.425,-19.214l33.425,-19.214Z" style="fill:#ebebeb;"/><path d="M1984.16,1533.59l33.425,19.214l-33.425,19.214l-33.425,-19.214l33.425,-19.214Z" style="fill:#ebebeb;"/></g></g></g></g><g><g><g><g><path d="M375.07,1837.34l33.425,19.215l-33.425,19.214l-33.426,-19.214l33.426,-19.215Z" style="fill:#ebebeb;"/><path d="M422.627,1837.34l33.425,19.215l-33.425,19.214l-33.425,-19.214l33.425,-19.215Z" style="fill:#ebebeb;"/><path d="M489.477,1837.34l33.425,19.215l-33.425,19.214l-33.425,-19.214l33.425,-19.215Z" style="fill:#ebebeb;"/><path d="M308.219,1837.34l33.425,19.215l-33.425,19.214l-33.425,-19.214l33.425,-19.215Z" style="fill:#ebebeb;"/><path d="M552.302,1837.34l33.425,19.215l-33.425,19.214l-33.425,-19.214l33.425,-19.215Z" style="fill:#ebebeb;"/><path d="M707.252,1837.34l33.425,19.215l-33.425,19.214l-33.425,-19.214l33.425,-19.215Z" style="fill:#ebebeb;"/><path d="M774.832,1837.34l33.425,19.215l-33.425,19.214l-33.425,-19.214l33.425,-19.215Z" style="fill:#ebebeb;"/><path d="M865.709,1837.34l33.425,19.215l-33.425,19.214l-33.425,-19.214l33.425,-19.215Z" style="fill:#ebebeb;"/><path d="M1062.48,1837.34l33.425,19.215l-33.425,19.214l-33.425,-19.214l33.425,-19.215Z" style="fill:#ebebeb;"/><path d="M1110.04,1837.34l33.425,19.215l-33.425,19.214l-33.425,-19.214l33.425,-19.215Z" style="fill:#ebebeb;"/><path d="M1176.89,1837.34l33.425,19.215l-33.425,19.214l-33.426,-19.214l33.426,-19.215Z" style="fill:#ebebeb;"/><path d="M927.552,1837.34l33.425,19.215l-33.425,19.214l-33.426,-19.214l33.426,-19.215Z" style="fill:#ebebeb;"/><path d="M619.152,1837.34l33.425,19.215l-33.425,19.214l-33.425,-19.214l33.425,-19.215Z" style="fill:#ebebeb;"/><path d="M993.854,1837.34l33.425,19.215l-33.425,19.214l-33.425,-19.214l33.425,-19.215Z" style="fill:#ebebeb;"/></g><g><path d="M1357.46,1837.34l33.425,19.215l-33.425,19.214l-33.425,-19.214l33.425,-19.215Z" style="fill:#ebebeb;"/><path d="M1405.02,1837.34l33.425,19.215l-33.425,19.214l-33.425,-19.214l33.425,-19.215Z" style="fill:#ebebeb;"/><path d="M1471.87,1837.34l33.426,19.215l-33.426,19.214l-33.425,-19.214l33.425,-19.215Z" style="fill:#ebebeb;"/><path d="M1290.61,1837.34l33.426,19.215l-33.426,19.214l-33.425,-19.214l33.425,-19.215Z" style="fill:#ebebeb;"/><path d="M1534.69,1837.34l33.425,19.215l-33.425,19.214l-33.425,-19.214l33.425,-19.215Z" style="fill:#ebebeb;"/><path d="M1689.64,1837.34l33.425,19.215l-33.425,19.214l-33.425,-19.214l33.425,-19.215Z" style="fill:#ebebeb;"/><path d="M1757.22,1837.34l33.425,19.215l-33.425,19.214l-33.425,-19.214l33.425,-19.215Z" style="fill:#ebebeb;"/><path d="M1848.1,1837.34l33.426,19.215l-33.426,19.214l-33.425,-19.214l33.425,-19.215Z" style="fill:#ebebeb;"/><path d="M2044.87,1837.34l33.425,19.215l-33.425,19.214l-33.425,-19.214l33.425,-19.215Z" style="fill:#ebebeb;"/><path d="M2092.43,1837.34l33.426,19.215l-33.426,19.214l-33.425,-19.214l33.425,-19.215Z" style="fill:#ebebeb;"/><path d="M2159.28,1837.34l33.425,19.215l-33.425,19.214l-33.425,-19.214l33.425,-19.215Z" style="fill:#ebebeb;"/><path d="M1909.94,1837.34l33.425,19.215l-33.425,19.214l-33.425,-19.214l33.425,-19.215Z" style="fill:#ebebeb;"/><path d="M1601.54,1837.34l33.425,19.215l-33.425,19.214l-33.425,-19.214l33.425,-19.215Z" style="fill:#ebebeb;"/><path d="M1976.25,1837.34l33.425,19.215l-33.425,19.214l-33.425,-19.214l33.425,-19.215Z" style="fill:#ebebeb;"/></g></g><g><g><path d="M375.07,1972.05l33.425,19.214l-33.425,19.215l-33.426,-19.215l33.426,-19.214Z" style="fill:#ebebeb;"/><path d="M422.627,1972.05l33.425,19.214l-33.425,19.215l-33.425,-19.215l33.425,-19.214Z" style="fill:#ebebeb;"/><path d="M489.477,1972.05l33.425,19.214l-33.425,19.215l-33.425,-19.215l33.425,-19.214Z" style="fill:#ebebeb;"/><path d="M308.219,1972.05l33.425,19.214l-33.425,19.215l-33.425,-19.215l33.425,-19.214Z" style="fill:#ebebeb;"/><path d="M552.302,1972.05l33.425,19.214l-33.425,19.215l-33.425,-19.215l33.425,-19.214Z" style="fill:#ebebeb;"/><path d="M707.252,1972.05l33.425,19.214l-33.425,19.215l-33.425,-19.215l33.425,-19.214Z" style="fill:#ebebeb;"/><path d="M774.832,1972.05l33.425,19.214l-33.425,19.215l-33.425,-19.215l33.425,-19.214Z" style="fill:#ebebeb;"/><path d="M865.709,1972.05l33.425,19.214l-33.425,19.215l-33.425,-19.215l33.425,-19.214Z" style="fill:#ebebeb;"/><path d="M1062.48,1972.05l33.425,19.214l-33.425,19.215l-33.425,-19.215l33.425,-19.214Z" style="fill:#ebebeb;"/><path d="M1110.04,1972.05l33.425,19.214l-33.425,19.215l-33.425,-19.215l33.425,-19.214Z" style="fill:#ebebeb;"/><path d="M1176.89,1972.05l33.425,19.214l-33.425,19.215l-33.426,-19.215l33.426,-19.214Z" style="fill:#ebebeb;"/><path d="M927.552,1972.05l33.425,19.214l-33.425,19.215l-33.426,-19.215l33.426,-19.214Z" style="fill:#ebebeb;"/><path d="M619.152,1972.05l33.425,19.214l-33.425,19.215l-33.425,-19.215l33.425,-19.214Z" style="fill:#ebebeb;"/><path d="M993.854,1972.05l33.425,19.214l-33.425,19.215l-33.425,-19.215l33.425,-19.214Z" style="fill:#ebebeb;"/></g><g><path d="M1357.46,1972.05l33.425,19.214l-33.425,19.215l-33.425,-19.215l33.425,-19.214Z" style="fill:#ebebeb;"/><path d="M1405.02,1972.05l33.425,19.214l-33.425,19.215l-33.425,-19.215l33.425,-19.214Z" style="fill:#ebebeb;"/><path d="M1471.87,1972.05l33.426,19.214l-33.426,19.215l-33.425,-19.215l33.425,-19.214Z" style="fill:#ebebeb;"/><path d="M1290.61,1972.05l33.426,19.214l-33.426,19.215l-33.425,-19.215l33.425,-19.214Z" style="fill:#ebebeb;"/><path d="M1534.69,1972.05l33.425,19.214l-33.425,19.215l-33.425,-19.215l33.425,-19.214Z" style="fill:#ebebeb;"/><path d="M1689.64,1972.05l33.425,19.214l-33.425,19.215l-33.425,-19.215l33.425,-19.214Z" style="fill:#ebebeb;"/><path d="M1757.22,1972.05l33.425,19.214l-33.425,19.215l-33.425,-19.215l33.425,-19.214Z" style="fill:#ebebeb;"/><path d="M1848.1,1972.05l33.426,19.214l-33.426,19.215l-33.425,-19.215l33.425,-19.214Z" style="fill:#ebebeb;"/><path d="M2044.87,1972.05l33.425,19.214l-33.425,19.215l-33.425,-19.215l33.425,-19.214Z" style="fill:#ebebeb;"/><path d="M2092.43,1972.05l33.426,19.214l-33.426,19.215l-33.425,-19.215l33.425,-19.214Z" style="fill:#ebebeb;"/><path d="M2159.28,1972.05l33.425,19.214l-33.425,19.215l-33.425,-19.215l33.425,-19.214Z" style="fill:#ebebeb;"/><path d="M1909.94,1972.05l33.425,19.214l-33.425,19.215l-33.425,-19.215l33.425,-19.214Z" style="fill:#ebebeb;"/><path d="M1601.54,1972.05l33.425,19.214l-33.425,19.215l-33.425,-19.215l33.425,-19.214Z" style="fill:#ebebeb;"/><path d="M1976.25,1972.05l33.425,19.214l-33.425,19.215l-33.425,-19.215l33.425,-19.214Z" style="fill:#ebebeb;"/></g></g></g><g><g><g><path d="M375.07,2155.08l33.425,19.214l-33.425,19.215l-33.426,-19.215l33.426,-19.214Z" style="fill:#ebebeb;"/><path d="M422.627,2155.08l33.425,19.214l-33.425,19.215l-33.425,-19.215l33.425,-19.214Z" style="fill:#ebebeb;"/><path d="M489.477,2155.08l33.425,19.214l-33.425,19.215l-33.425,-19.215l33.425,-19.214Z" style="fill:#ebebeb;"/><path d="M308.219,2155.08l33.425,19.214l-33.425,19.215l-33.425,-19.215l33.425,-19.214Z" style="fill:#ebebeb;"/><path d="M552.302,2155.08l33.425,19.214l-33.425,19.215l-33.425,-19.215l33.425,-19.214Z" style="fill:#ebebeb;"/><path d="M707.252,2155.08l33.425,19.214l-33.425,19.215l-33.425,-19.215l33.425,-19.214Z" style="fill:#ebebeb;"/><path d="M774.832,2155.08l33.425,19.214l-33.425,19.215l-33.425,-19.215l33.425,-19.214Z" style="fill:#ebebeb;"/><path d="M865.709,2155.08l33.425,19.214l-33.425,19.215l-33.425,-19.215l33.425,-19.214Z" style="fill:#ebebeb;"/><path d="M1062.48,2155.08l33.425,19.214l-33.425,19.215l-33.425,-19.215l33.425,-19.214Z" style="fill:#ebebeb;"/><path d="M1110.04,2155.08l33.425,19.214l-33.425,19.215l-33.425,-19.215l33.425,-19.214Z" style="fill:#ebebeb;"/><path d="M1176.89,2155.08l33.425,19.214l-33.425,19.215l-33.426,-19.215l33.426,-19.214Z" style="fill:#ebebeb;"/><path d="M927.552,2155.08l33.425,19.214l-33.425,19.215l-33.426,-19.215l33.426,-19.214Z" style="fill:#ebebeb;"/><path d="M619.152,2155.08l33.425,19.214l-33.425,19.215l-33.425,-19.215l33.425,-19.214Z" style="fill:#ebebeb;"/><path d="M993.854,2155.08l33.425,19.214l-33.425,19.215l-33.425,-19.215l33.425,-19.214Z" style="fill:#ebebeb;"/></g><g><path d="M1357.46,2155.08l33.425,19.214l-33.425,19.215l-33.425,-19.215l33.425,-19.214Z" style="fill:#ebebeb;"/><path d="M1405.02,2155.08l33.425,19.214l-33.425,19.215l-33.425,-19.215l33.425,-19.214Z" style="fill:#ebebeb;"/><path d="M1471.87,2155.08l33.426,19.214l-33.426,19.215l-33.425,-19.215l33.425,-19.214Z" style="fill:#ebebeb;"/><path d="M1290.61,2155.08l33.426,19.214l-33.426,19.215l-33.425,-19.215l33.425,-19.214Z" style="fill:#ebebeb;"/><path d="M1534.69,2155.08l33.425,19.214l-33.425,19.215l-33.425,-19.215l33.425,-19.214Z" style="fill:#ebebeb;"/><path d="M1689.64,2155.08l33.425,19.214l-33.425,19.215l-33.425,-19.215l33.425,-19.214Z" style="fill:#ebebeb;"/><path d="M1757.22,2155.08l33.425,19.214l-33.425,19.215l-33.425,-19.215l33.425,-19.214Z" style="fill:#ebebeb;"/><path d="M1848.1,2155.08l33.426,19.214l-33.426,19.215l-33.425,-19.215l33.425,-19.214Z" style="fill:#ebebeb;"/><path d="M2044.87,2155.08l33.425,19.214l-33.425,19.215l-33.425,-19.215l33.425,-19.214Z" style="fill:#ebebeb;"/><path d="M2092.43,2155.08l33.426,19.214l-33.426,19.215l-33.425,-19.215l33.425,-19.214Z" style="fill:#ebebeb;"/><path d="M2159.28,2155.08l33.425,19.214l-33.425,19.215l-33.425,-19.215l33.425,-19.214Z" style="fill:#ebebeb;"/><path d="M1909.94,2155.08l33.425,19.214l-33.425,19.215l-33.425,-19.215l33.425,-19.214Z" style="fill:#ebebeb;"/><path d="M1601.54,2155.08l33.425,19.214l-33.425,19.215l-33.425,-19.215l33.425,-19.214Z" style="fill:#ebebeb;"/><path d="M1976.25,2155.08l33.425,19.214l-33.425,19.215l-33.425,-19.215l33.425,-19.214Z" style="fill:#ebebeb;"/></g></g><g><g><path d="M375.07,2289.79l33.425,19.214l-33.425,19.215l-33.426,-19.215l33.426,-19.214Z" style="fill:#ebebeb;"/><path d="M422.627,2289.79l33.425,19.214l-33.425,19.215l-33.425,-19.215l33.425,-19.214Z" style="fill:#ebebeb;"/><path d="M489.477,2289.79l33.425,19.214l-33.425,19.215l-33.425,-19.215l33.425,-19.214Z" style="fill:#ebebeb;"/><path d="M308.219,2289.79l33.425,19.214l-33.425,19.215l-33.425,-19.215l33.425,-19.214Z" style="fill:#ebebeb;"/><path d="M552.302,2289.79l33.425,19.214l-33.425,19.215l-33.425,-19.215l33.425,-19.214Z" style="fill:#ebebeb;"/><path d="M707.252,2289.79l33.425,19.214l-33.425,19.215l-33.425,-19.215l33.425,-19.214Z" style="fill:#ebebeb;"/><path d="M774.832,2289.79l33.425,19.214l-33.425,19.215l-33.425,-19.215l33.425,-19.214Z" style="fill:#ebebeb;"/><path d="M865.709,2289.79l33.425,19.214l-33.425,19.215l-33.425,-19.215l33.425,-19.214Z" style="fill:#ebebeb;"/><path d="M1062.48,2289.79l33.425,19.214l-33.425,19.215l-33.425,-19.215l33.425,-19.214Z" style="fill:#ebebeb;"/><path d="M1110.04,2289.79l33.425,19.214l-33.425,19.215l-33.425,-19.215l33.425,-19.214Z" style="fill:#ebebeb;"/><path d="M1176.89,2289.79l33.425,19.214l-33.425,19.215l-33.426,-19.215l33.426,-19.214Z" style="fill:#ebebeb;"/><path d="M927.552,2289.79l33.425,19.214l-33.425,19.215l-33.426,-19.215l33.426,-19.214Z" style="fill:#ebebeb;"/><path d="M619.152,2289.79l33.425,19.214l-33.425,19.215l-33.425,-19.215l33.425,-19.214Z" style="fill:#ebebeb;"/><path d="M993.854,2289.79l33.425,19.214l-33.425,19.215l-33.425,-19.215l33.425,-19.214Z" style="fill:#ebebeb;"/></g><g><path d="M1357.46,2289.79l33.425,19.214l-33.425,19.215l-33.425,-19.215l33.425,-19.214Z" style="fill:#ebebeb;"/><path d="M1405.02,2289.79l33.425,19.214l-33.425,19.215l-33.425,-19.215l33.425,-19.214Z" style="fill:#ebebeb;"/><path d="M1471.87,2289.79l33.426,19.214l-33.426,19.215l-33.425,-19.215l33.425,-19.214Z" style="fill:#ebebeb;"/><path d="M1290.61,2289.79l33.426,19.214l-33.426,19.215l-33.425,-19.215l33.425,-19.214Z" style="fill:#ebebeb;"/><path d="M1534.69,2289.79l33.425,19.214l-33.425,19.215l-33.425,-19.215l33.425,-19.214Z" style="fill:#ebebeb;"/><path d="M1689.64,2289.79l33.425,19.214l-33.425,19.215l-33.425,-19.215l33.425,-19.214Z" style="fill:#ebebeb;"/><path d="M1757.22,2289.79l33.425,19.214l-33.425,19.215l-33.425,-19.215l33.425,-19.214Z" style="fill:#ebebeb;"/><path d="M1848.1,2289.79l33.426,19.214l-33.426,19.215l-33.425,-19.215l33.425,-19.214Z" style="fill:#ebebeb;"/><path d="M2044.87,2289.79l33.425,19.214l-33.425,19.215l-33.425,-19.215l33.425,-19.214Z" style="fill:#ebebeb;"/><path d="M2092.43,2289.79l33.426,19.214l-33.426,19.215l-33.425,-19.215l33.425,-19.214Z" style="fill:#ebebeb;"/><path d="M2159.28,2289.79l33.425,19.214l-33.425,19.215l-33.425,-19.215l33.425,-19.214Z" style="fill:#ebebeb;"/><path d="M1909.94,2289.79l33.425,19.214l-33.425,19.215l-33.425,-19.215l33.425,-19.214Z" style="fill:#ebebeb;"/><path d="M1601.54,2289.79l33.425,19.214l-33.425,19.215l-33.425,-19.215l33.425,-19.214Z" style="fill:#ebebeb;"/><path d="M1976.25,2289.79l33.425,19.214l-33.425,19.215l-33.425,-19.215l33.425,-19.214Z" style="fill:#ebebeb;"/></g></g></g></g><g><g><g><g><path d="M375.07,2570.73l33.425,19.214l-33.425,19.214l-33.426,-19.214l33.426,-19.214Z" style="fill:#ebebeb;"/><path d="M422.627,2570.73l33.425,19.214l-33.425,19.214l-33.425,-19.214l33.425,-19.214Z" style="fill:#ebebeb;"/><path d="M489.477,2570.73l33.425,19.214l-33.425,19.214l-33.425,-19.214l33.425,-19.214Z" style="fill:#ebebeb;"/><path d="M308.219,2570.73l33.425,19.214l-33.425,19.214l-33.425,-19.214l33.425,-19.214Z" style="fill:#ebebeb;"/><path d="M552.302,2570.73l33.425,19.214l-33.425,19.214l-33.425,-19.214l33.425,-19.214Z" style="fill:#ebebeb;"/><path d="M707.252,2570.73l33.425,19.214l-33.425,19.214l-33.425,-19.214l33.425,-19.214Z" style="fill:#ebebeb;"/><path d="M774.832,2570.73l33.425,19.214l-33.425,19.214l-33.425,-19.214l33.425,-19.214Z" style="fill:#ebebeb;"/><path d="M865.709,2570.73l33.425,19.214l-33.425,19.214l-33.425,-19.214l33.425,-19.214Z" style="fill:#ebebeb;"/><path d="M1062.48,2570.73l33.425,19.214l-33.425,19.214l-33.425,-19.214l33.425,-19.214Z" style="fill:#ebebeb;"/><path d="M1110.04,2570.73l33.425,19.214l-33.425,19.214l-33.425,-19.214l33.425,-19.214Z" style="fill:#ebebeb;"/><path d="M1176.89,2570.73l33.425,19.214l-33.425,19.214l-33.426,-19.214l33.426,-19.214Z" style="fill:#ebebeb;"/><path d="M927.552,2570.73l33.425,19.214l-33.425,19.214l-33.426,-19.214l33.426,-19.214Z" style="fill:#ebebeb;"/><path d="M619.152,2570.73l33.425,19.214l-33.425,19.214l-33.425,-19.214l33.425,-19.214Z" style="fill:#ebebeb;"/><path d="M993.854,2570.73l33.425,19.214l-33.425,19.214l-33.425,-19.214l33.425,-19.214Z" style="fill:#ebebeb;"/></g><g><path d="M1357.46,2570.73l33.425,19.214l-33.425,19.214l-33.425,-19.214l33.425,-19.214Z" style="fill:#ebebeb;"/><path d="M1405.02,2570.73l33.425,19.214l-33.425,19.214l-33.425,-19.214l33.425,-19.214Z" style="fill:#ebebeb;"/><path d="M1471.87,2570.73l33.426,19.214l-33.426,19.214l-33.425,-19.214l33.425,-19.214Z" style="fill:#ebebeb;"/><path d="M1290.61,2570.73l33.426,19.214l-33.426,19.214l-33.425,-19.214l33.425,-19.214Z" style="fill:#ebebeb;"/><path d="M1534.69,2570.73l33.425,19.214l-33.425,19.214l-33.425,-19.214l33.425,-19.214Z" style="fill:#ebebeb;"/><path d="M1689.64,2570.73l33.425,19.214l-33.425,19.214l-33.425,-19.214l33.425,-19.214Z" style="fill:#ebebeb;"/><path d="M1757.22,2570.73l33.425,19.214l-33.425,19.214l-33.425,-19.214l33.425,-19.214Z" style="fill:#ebebeb;"/><path d="M1848.1,2570.73l33.426,19.214l-33.426,19.214l-33.425,-19.214l33.425,-19.214Z" style="fill:#ebebeb;"/><path d="M2044.87,2570.73l33.425,19.214l-33.425,19.214l-33.425,-19.214l33.425,-19.214Z" style="fill:#ebebeb;"/><path d="M2092.43,2570.73l33.426,19.214l-33.426,19.214l-33.425,-19.214l33.425,-19.214Z" style="fill:#ebebeb;"/><path d="M2159.28,2570.73l33.425,19.214l-33.425,19.214l-33.425,-19.214l33.425,-19.214Z" style="fill:#ebebeb;"/><path d="M1909.94,2570.73l33.425,19.214l-33.425,19.214l-33.425,-19.214l33.425,-19.214Z" style="fill:#ebebeb;"/><path d="M1601.54,2570.73l33.425,19.214l-33.425,19.214l-33.425,-19.214l33.425,-19.214Z" style="fill:#ebebeb;"/><path d="M1976.25,2570.73l33.425,19.214l-33.425,19.214l-33.425,-19.214l33.425,-19.214Z" style="fill:#ebebeb;"/></g></g><g><g><path d="M375.07,2705.44l33.425,19.214l-33.425,19.214l-33.426,-19.214l33.426,-19.214Z" style="fill:#ebebeb;"/><path d="M422.627,2705.44l33.425,19.214l-33.425,19.214l-33.425,-19.214l33.425,-19.214Z" style="fill:#ebebeb;"/><path d="M489.477,2705.44l33.425,19.214l-33.425,19.214l-33.425,-19.214l33.425,-19.214Z" style="fill:#ebebeb;"/><path d="M308.219,2705.44l33.425,19.214l-33.425,19.214l-33.425,-19.214l33.425,-19.214Z" style="fill:#ebebeb;"/><path d="M552.302,2705.44l33.425,19.214l-33.425,19.214l-33.425,-19.214l33.425,-19.214Z" style="fill:#ebebeb;"/><path d="M707.252,2705.44l33.425,19.214l-33.425,19.214l-33.425,-19.214l33.425,-19.214Z" style="fill:#ebebeb;"/><path d="M774.832,2705.44l33.425,19.214l-33.425,19.214l-33.425,-19.214l33.425,-19.214Z" style="fill:#ebebeb;"/><path d="M865.709,2705.44l33.425,19.214l-33.425,19.214l-33.425,-19.214l33.425,-19.214Z" style="fill:#ebebeb;"/><path d="M1062.48,2705.44l33.425,19.214l-33.425,19.214l-33.425,-19.214l33.425,-19.214Z" style="fill:#ebebeb;"/><path d="M1110.04,2705.44l33.425,19.214l-33.425,19.214l-33.425,-19.214l33.425,-19.214Z" style="fill:#ebebeb;"/><path d="M1176.89,2705.44l33.425,19.214l-33.425,19.214l-33.426,-19.214l33.426,-19.214Z" style="fill:#ebebeb;"/><path d="M927.552,2705.44l33.425,19.214l-33.425,19.214l-33.426,-19.214l33.426,-19.214Z" style="fill:#ebebeb;"/><path d="M619.152,2705.44l33.425,19.214l-33.425,19.214l-33.425,-19.214l33.425,-19.214Z" style="fill:#ebebeb;"/><path d="M993.854,2705.44l33.425,19.214l-33.425,19.214l-33.425,-19.214l33.425,-19.214Z" style="fill:#ebebeb;"/></g><g><path d="M1357.46,2705.44l33.425,19.214l-33.425,19.214l-33.425,-19.214l33.425,-19.214Z" style="fill:#ebebeb;"/><path d="M1405.02,2705.44l33.425,19.214l-33.425,19.214l-33.425,-19.214l33.425,-19.214Z" style="fill:#ebebeb;"/><path d="M1471.87,2705.44l33.426,19.214l-33.426,19.214l-33.425,-19.214l33.425,-19.214Z" style="fill:#ebebeb;"/><path d="M1290.61,2705.44l33.426,19.214l-33.426,19.214l-33.425,-19.214l33.425,-19.214Z" style="fill:#ebebeb;"/><path d="M1534.69,2705.44l33.425,19.214l-33.425,19.214l-33.425,-19.214l33.425,-19.214Z" style="fill:#ebebeb;"/><path d="M1689.64,2705.44l33.425,19.214l-33.425,19.214l-33.425,-19.214l33.425,-19.214Z" style="fill:#ebebeb;"/><path d="M1757.22,2705.44l33.425,19.214l-33.425,19.214l-33.425,-19.214l33.425,-19.214Z" style="fill:#ebebeb;"/><path d="M1848.1,2705.44l33.426,19.214l-33.426,19.214l-33.425,-19.214l33.425,-19.214Z" style="fill:#ebebeb;"/><path d="M2044.87,2705.44l33.425,19.214l-33.425,19.214l-33.425,-19.214l33.425,-19.214Z" style="fill:#ebebeb;"/><path d="M2092.43,2705.44l33.426,19.214l-33.426,19.214l-33.425,-19.214l33.425,-19.214Z" style="fill:#ebebeb;"/><path d="M2159.28,2705.44l33.425,19.214l-33.425,19.214l-33.425,-19.214l33.425,-19.214Z" style="fill:#ebebeb;"/><path d="M1909.94,2705.44l33.425,19.214l-33.425,19.214l-33.425,-19.214l33.425,-19.214Z" style="fill:#ebebeb;"/><path d="M1601.54,2705.44l33.425,19.214l-33.425,19.214l-33.425,-19.214l33.425,-19.214Z" style="fill:#ebebeb;"/><path d="M1976.25,2705.44l33.425,19.214l-33.425,19.214l-33.425,-19.214l33.425,-19.214Z" style="fill:#ebebeb;"/></g></g></g><g><g><g><path d="M375.07,2888.48l33.425,19.214l-33.425,19.214l-33.426,-19.214l33.426,-19.214Z" style="fill:#ebebeb;"/><path d="M422.627,2888.48l33.425,19.214l-33.425,19.214l-33.425,-19.214l33.425,-19.214Z" style="fill:#ebebeb;"/><path d="M489.477,2888.48l33.425,19.214l-33.425,19.214l-33.425,-19.214l33.425,-19.214Z" style="fill:#ebebeb;"/><path d="M308.219,2888.48l33.425,19.214l-33.425,19.214l-33.425,-19.214l33.425,-19.214Z" style="fill:#ebebeb;"/><path d="M552.302,2888.48l33.425,19.214l-33.425,19.214l-33.425,-19.214l33.425,-19.214Z" style="fill:#ebebeb;"/><path d="M707.252,2888.48l33.425,19.214l-33.425,19.214l-33.425,-19.214l33.425,-19.214Z" style="fill:#ebebeb;"/><path d="M774.832,2888.48l33.425,19.214l-33.425,19.214l-33.425,-19.214l33.425,-19.214Z" style="fill:#ebebeb;"/><path d="M865.709,2888.48l33.425,19.214l-33.425,19.214l-33.425,-19.214l33.425,-19.214Z" style="fill:#ebebeb;"/><path d="M1062.48,2888.48l33.425,19.214l-33.425,19.214l-33.425,-19.214l33.425,-19.214Z" style="fill:#ebebeb;"/><path d="M1110.04,2888.48l33.425,19.214l-33.425,19.214l-33.425,-19.214l33.425,-19.214Z" style="fill:#ebebeb;"/><path d="M1176.89,2888.48l33.425,19.214l-33.425,19.214l-33.426,-19.214l33.426,-19.214Z" style="fill:#ebebeb;"/><path d="M927.552,2888.48l33.425,19.214l-33.425,19.214l-33.426,-19.214l33.426,-19.214Z" style="fill:#ebebeb;"/><path d="M619.152,2888.48l33.425,19.214l-33.425,19.214l-33.425,-19.214l33.425,-19.214Z" style="fill:#ebebeb;"/><path d="M993.854,2888.48l33.425,19.214l-33.425,19.214l-33.425,-19.214l33.425,-19.214Z" style="fill:#ebebeb;"/></g><g><path d="M1357.46,2888.48l33.425,19.214l-33.425,19.214l-33.425,-19.214l33.425,-19.214Z" style="fill:#ebebeb;"/><path d="M1405.02,2888.48l33.425,19.214l-33.425,19.214l-33.425,-19.214l33.425,-19.214Z" style="fill:#ebebeb;"/><path d="M1471.87,2888.48l33.426,19.214l-33.426,19.214l-33.425,-19.214l33.425,-19.214Z" style="fill:#ebebeb;"/><path d="M1290.61,2888.48l33.426,19.214l-33.426,19.214l-33.425,-19.214l33.425,-19.214Z" style="fill:#ebebeb;"/><path d="M1534.69,2888.48l33.425,19.214l-33.425,19.214l-33.425,-19.214l33.425,-19.214Z" style="fill:#ebebeb;"/><path d="M1689.64,2888.48l33.425,19.214l-33.425,19.214l-33.425,-19.214l33.425,-19.214Z" style="fill:#ebebeb;"/><path d="M1757.22,2888.48l33.425,19.214l-33.425,19.214l-33.425,-19.214l33.425,-19.214Z" style="fill:#ebebeb;"/><path d="M1848.1,2888.48l33.426,19.214l-33.426,19.214l-33.425,-19.214l33.425,-19.214Z" style="fill:#ebebeb;"/><path d="M2044.87,2888.48l33.425,19.214l-33.425,19.214l-33.425,-19.214l33.425,-19.214Z" style="fill:#ebebeb;"/><path d="M2092.43,2888.48l33.426,19.214l-33.426,19.214l-33.425,-19.214l33.425,-19.214Z" style="fill:#ebebeb;"/><path d="M2159.28,2888.48l33.425,19.214l-33.425,19.214l-33.425,-19.214l33.425,-19.214Z" style="fill:#ebebeb;"/><path d="M1909.94,2888.48l33.425,19.214l-33.425,19.214l-33.425,-19.214l33.425,-19.214Z" style="fill:#ebebeb;"/><path d="M1601.54,2888.48l33.425,19.214l-33.425,19.214l-33.425,-19.214l33.425,-19.214Z" style="fill:#ebebeb;"/><path d="M1976.25,2888.48l33.425,19.214l-33.425,19.214l-33.425,-19.214l33.425,-19.214Z" style="fill:#ebebeb;"/></g></g><g><g><path d="M375.07,3023.19l33.425,19.214l-33.425,19.214l-33.426,-19.214l33.426,-19.214Z" style="fill:#ebebeb;"/><path d="M422.627,3023.19l33.425,19.214l-33.425,19.214l-33.425,-19.214l33.425,-19.214Z" style="fill:#ebebeb;"/><path d="M489.477,3023.19l33.425,19.214l-33.425,19.214l-33.425,-19.214l33.425,-19.214Z" style="fill:#ebebeb;"/><path d="M308.219,3023.19l33.425,19.214l-33.425,19.214l-33.425,-19.214l33.425,-19.214Z" style="fill:#ebebeb;"/><path d="M552.302,3023.19l33.425,19.214l-33.425,19.214l-33.425,-19.214l33.425,-19.214Z" style="fill:#ebebeb;"/><path d="M707.252,3023.19l33.425,19.214l-33.425,19.214l-33.425,-19.214l33.425,-19.214Z" style="fill:#ebebeb;"/><path d="M774.832,3023.19l33.425,19.214l-33.425,19.214l-33.425,-19.214l33.425,-19.214Z" style="fill:#ebebeb;"/><path d="M865.709,3023.19l33.425,19.214l-33.425,19.214l-33.425,-19.214l33.425,-19.214Z" style="fill:#ebebeb;"/><path d="M1062.48,3023.19l33.425,19.214l-33.425,19.214l-33.425,-19.214l33.425,-19.214Z" style="fill:#ebebeb;"/><path d="M1110.04,3023.19l33.425,19.214l-33.425,19.214l-33.425,-19.214l33.425,-19.214Z" style="fill:#ebebeb;"/><path d="M1176.89,3023.19l33.425,19.214l-33.425,19.214l-33.426,-19.214l33.426,-19.214Z" style="fill:#ebebeb;"/><path d="M927.552,3023.19l33.425,19.214l-33.425,19.214l-33.426,-19.214l33.426,-19.214Z" style="fill:#ebebeb;"/><path d="M619.152,3023.19l33.425,19.214l-33.425,19.214l-33.425,-19.214l33.425,-19.214Z" style="fill:#ebebeb;"/><path d="M993.854,3023.19l33.425,19.214l-33.425,19.214l-33.425,-19.214l33.425,-19.214Z" style="fill:#ebebeb;"/></g><g><path d="M1357.46,3023.19l33.425,19.214l-33.425,19.214l-33.425,-19.214l33.425,-19.214Z" style="fill:#ebebeb;"/><path d="M1405.02,3023.19l33.425,19.214l-33.425,19.214l-33.425,-19.214l33.425,-19.214Z" style="fill:#ebebeb;"/><path d="M1471.87,3023.19l33.426,19.214l-33.426,19.214l-33.425,-19.214l33.425,-19.214Z" style="fill:#ebebeb;"/><path d="M1290.61,3023.19l33.426,19.214l-33.426,19.214l-33.425,-19.214l33.425,-19.214Z" style="fill:#ebebeb;"/><path d="M1534.69,3023.19l33.425,19.214l-33.425,19.214l-33.425,-19.214l33.425,-19.214Z" style="fill:#ebebeb;"/><path d="M1689.64,3023.19l33.425,19.214l-33.425,19.214l-33.425,-19.214l33.425,-19.214Z" style="fill:#ebebeb;"/><path d="M1757.22,3023.19l33.425,19.214l-33.425,19.214l-33.425,-19.214l33.425,-19.214Z" style="fill:#ebebeb;"/><path d="M1848.1,3023.19l33.426,19.214l-33.426,19.214l-33.425,-19.214l33.425,-19.214Z" style="fill:#ebebeb;"/><path d="M2044.87,3023.19l33.425,19.214l-33.425,19.214l-33.425,-19.214l33.425,-19.214Z" style="fill:#ebebeb;"/><path d="M2092.43,3023.19l33.426,19.214l-33.426,19.214l-33.425,-19.214l33.425,-19.214Z" style="fill:#ebebeb;"/><path d="M2159.28,3023.19l33.425,19.214l-33.425,19.214l-33.425,-19.214l33.425,-19.214Z" style="fill:#ebebeb;"/><path d="M1909.94,3023.19l33.425,19.214l-33.425,19.214l-33.425,-19.214l33.425,-19.214Z" style="fill:#ebebeb;"/><path d="M1601.54,3023.19l33.425,19.214l-33.425,19.214l-33.425,-19.214l33.425,-19.214Z" style="fill:#ebebeb;"/><path d="M1976.25,3023.19l33.425,19.214l-33.425,19.214l-33.425,-19.214l33.425,-19.214Z" style="fill:#ebebeb;"/></g></g></g></g></svg>