<?xml version="1.0" encoding="UTF-8" standalone="no"?><!DOCTYPE svg PUBLIC "-//W3C//DTD SVG 1.1//EN" "http://www.w3.org/Graphics/SVG/1.1/DTD/svg11.dtd"><svg width="100%" height="100%" viewBox="0 0 2484 3509" version="1.1" xmlns="http://www.w3.org/2000/svg" xmlns:xlink="http://www.w3.org/1999/xlink" xml:space="preserve"  style="fill-rule:evenodd;clip-rule:evenodd;stroke-linecap:round;stroke-linejoin:round;stroke-miterlimit:1.5;"><path d="M2483.33,147.433c0,-81.37 -66.062,-147.433 -147.433,-147.433l-2188.47,0c-81.37,0 -147.433,66.063 -147.433,147.433l0,3213.47c0,81.371 66.063,147.433 147.433,147.433l2188.47,0c81.371,0 147.433,-66.062 147.433,-147.433l0,-3213.47Z" style="fill:#fff;stroke:#000;stroke-width:16.5px;"/><path d="M795.168,1353.62c-52.494,89.66 -115.621,357.449 -25.144,451.987c113.484,118.577 144.199,162.61 153.406,228.615c9.208,66.005 -111.52,152.744 7.598,235.354c119.119,82.61 566.685,55.781 661.193,-25.928c59.589,-51.519 176.615,-131.982 122.544,-235.103c-54.07,-103.12 -106.03,-113.926 13.388,-247.316c70.596,-78.857 316.285,-289.282 64.2,-540.186c-99.22,-98.756 -465.752,-9.17 -585.926,-2.827c-120.175,6.343 -358.766,45.745 -411.259,135.404Z" style="fill:#d09d86;stroke:#f8cea8;stroke-width:66.67px;"/><path d="M1611.19,2586.51c-4.707,14.351 -83.552,113.44 -64.512,166.519c8.582,23.925 115.183,182.283 215.272,11.73c43.931,-74.859 -39.711,-170.519 -39.711,-170.519c0,0 62.548,48.938 113.922,38.603c86.794,-17.462 142.805,-205.689 -1.335,-209.003c-100.509,-2.312 -113.301,32.529 -113.301,32.529c0,0 -23.587,-159.769 27.169,-183.477c15.945,-7.448 -178.527,0 -178.527,0c0,0 60.274,209.167 39.305,189.272c-22.28,-21.138 -75.064,-25.797 -110.201,-29.101c-102.793,-9.664 -135.74,131.964 -86.19,179.793c74.907,72.306 202.816,-40.697 198.109,-26.346Z" style="stroke:#484848;stroke-width:18.75px;"/><text x="129.187px" y="503.058px" style="font-family:'Mitr-ExtraLight', 'Mitr ExtraLight';font-weight:275;font-size:469.34px;">J</text><path d="M311.565,765.375c3.44,-10.643 61.063,-84.127 47.148,-123.491c-6.272,-17.743 -84.18,-135.181 -157.329,-8.699c-32.107,55.516 29.022,126.457 29.022,126.457c0,0 -45.712,-36.293 -83.258,-28.628c-63.432,12.95 -104.367,152.539 0.976,154.997c73.455,1.714 82.804,-24.124 82.804,-24.124c0,0 17.239,118.486 -19.856,136.067c-11.653,5.524 130.474,0 130.474,0c0,0 -44.05,-155.118 -28.725,-140.364c16.283,15.676 54.859,19.131 80.539,21.581c75.124,7.167 99.204,-97.864 62.991,-133.335c-54.745,-53.622 -148.226,30.181 -144.786,19.539Z" style="stroke:#484848;stroke-width:18.75px;"/><path d="M860.389,694.796c4.707,-14.351 83.552,-113.439 64.512,-166.519c-8.582,-23.924 -115.183,-182.282 -215.272,-11.729c-43.931,74.859 39.711,170.518 39.711,170.518c0,0 -62.548,-48.938 -113.921,-38.602c-86.794,17.462 -142.805,205.689 1.334,209.003c100.509,2.311 113.301,-32.53 113.301,-32.53c0,0 23.588,159.77 -27.168,183.477c-15.946,7.448 178.526,0 178.526,0c0,0 -60.274,-209.166 -39.305,-189.272c22.281,21.139 75.065,25.798 110.202,29.101c102.792,9.665 135.74,-131.963 86.19,-179.793c-74.907,-72.305 -202.817,40.697 -198.11,26.346Z" style="stroke:#484848;stroke-width:18.75px;"/><path d="M1081.49,1578.65c27.69,7.714 46.632,26.673 42.276,42.31c-4.357,15.636 -30.374,22.068 -58.063,14.354c-27.689,-7.715 -46.632,-26.674 -42.275,-42.311c4.356,-15.636 30.373,-22.068 58.062,-14.353Z"/><path d="M1387.59,1577.7c28.612,-2.753 53.102,8.131 54.657,24.289c1.554,16.158 -20.413,31.51 -49.025,34.263c-28.612,2.752 -53.102,-8.132 -54.657,-24.29c-1.554,-16.158 20.413,-31.51 49.025,-34.262Z"/><path d="M1241.67,1806.35c19.669,11.912 27.783,14.65 27.783,14.65" style="stroke:#000;stroke-width:35.42px;"/><path d="M1615.71,1398.78c149.633,45.932 214.07,101.015 122.055,86.014" style="stroke:#000;stroke-width:35.42px;"/><path d="M1390.41,1414.78c36.871,27.549 122.056,86.015 122.056,86.015" style="stroke:#000;stroke-width:104.17px;"/><path d="M1498.64,1389.93c36.871,27.549 122.055,86.015 122.055,86.015" style="stroke:#000;stroke-width:104.17px;"/><path d="M1818.12,1303.91c36.872,27.548 122.056,86.014 122.056,86.014" style="stroke:#000;stroke-width:104.17px;"/><path d="M1830.24,1303.91c45.38,-7.687 146.472,-29.018 146.472,-29.018" style="stroke:#000;stroke-width:104.17px;"/><path d="M852.182,1398.78c7.408,49.28 24.523,153.869 24.523,153.869" style="stroke:#000;stroke-width:116.67px;"/><path d="M806.448,1407.87c-24.877,43.181 -76.583,135.691 -76.583,135.691" style="stroke:#000;stroke-width:116.67px;"/><path d="M767.912,1399.22c-48.918,9.513 -152.678,31.094 -152.678,31.094" style="stroke:#000;stroke-width:116.67px;"/><path d="M977.005,1414.78c36.871,27.549 122.056,86.015 122.056,86.015" style="stroke:#000;stroke-width:75px;"/><path d="M1144.29,2079.67c59.345,-3.237 32.527,-15.875 111.267,-26.509c112.479,-15.191 98.221,-49.837 156.031,-93.734" style="fill:none;stroke:#000;stroke-width:35.42px;"/><path d="M1159.83,1821c23.568,-9.674 29.753,-14.65 29.753,-14.65" style="stroke:#000;stroke-width:35.42px;"/><g transform="matrix(-1,1.22465e-16,-1.22465e-16,-1,5067.19,8020.88)"><text x="2733.83px" y="5012.28px" style="font-family:'Mitr-ExtraLight', 'Mitr ExtraLight';font-weight:275;font-size:469.34px;">J</text></g><path d="M2150.98,2746.28c-3.44,10.642 -61.063,84.126 -47.148,123.49c6.272,17.743 84.18,135.181 157.329,8.699c32.106,-55.515 -29.023,-126.457 -29.023,-126.457c0,0 45.713,36.293 83.259,28.628c63.432,-12.95 104.367,-152.539 -0.976,-154.997c-73.455,-1.714 -82.804,24.124 -82.804,24.124c-0,-0 -17.239,-118.486 19.856,-136.067c11.653,-5.523 -130.474,-0 -130.474,-0c-0,-0 44.05,155.118 28.725,140.364c-16.283,-15.676 -54.86,-19.131 -80.539,-21.581c-75.125,-7.167 -99.204,97.865 -62.991,133.335c54.745,53.622 148.226,-30.181 144.786,-19.538Z" style="stroke:#484848;stroke-width:18.75px;"/><path d="M1694.13,1416.48c74.514,-2.002 242.824,-15.825 203.461,-143.036c-39.364,-127.211 -113.581,-490.319 -113.581,-490.319l-185.946,228.6l-159.053,-286.644l-76.412,371.774l-233.437,-165.948l-115.344,246.561l-334.367,-276.639l38.298,360.75c0,-0 -93.914,91.333 -0.445,153.077c93.469,61.744 902.312,3.826 976.826,1.824Z" style="fill:#eeac65;stroke:#190e00;stroke-width:22.92px;"/><path d="M1760.59,727.422c36.914,-11.91 73.55,-0.918 81.761,24.532c8.211,25.449 -15.093,55.78 -52.007,67.689c-36.914,11.91 -73.549,0.918 -81.76,-24.532c-8.211,-25.449 15.092,-55.779 52.006,-67.689Z" style="fill:#e9be82;stroke:#e9be82;stroke-width:22.92px;"/><path d="M1452.49,723.844c38.321,5.999 66.074,32.318 61.939,58.738c-4.136,26.419 -38.606,42.997 -76.927,36.998c-38.321,-5.999 -66.075,-32.319 -61.939,-58.738c4.136,-26.419 38.606,-42.997 76.927,-36.998Z" style="fill:#e9be82;stroke:#e9be82;stroke-width:22.92px;"/><path d="M1132.71,892.316c38.321,5.999 66.074,32.319 61.939,58.738c-4.136,26.419 -38.606,42.998 -76.927,36.999c-38.321,-6 -66.075,-32.319 -61.939,-58.738c4.136,-26.419 38.606,-42.998 76.927,-36.999Z" style="fill:#e9be82;stroke:#e9be82;stroke-width:22.92px;"/><path d="M716.227,864.259c21.479,32.298 20.839,70.542 -1.428,85.35c-22.267,14.807 -57.782,0.608 -79.261,-31.69c-21.479,-32.298 -20.839,-70.542 1.428,-85.35c22.267,-14.807 57.782,-0.608 79.261,31.69Z" style="fill:#e9be82;stroke:#e9be82;stroke-width:22.92px;"/></svg>