<?xml version="1.0" encoding="UTF-8" standalone="no"?><!DOCTYPE svg PUBLIC "-//W3C//DTD SVG 1.1//EN" "http://www.w3.org/Graphics/SVG/1.1/DTD/svg11.dtd"><svg width="100%" height="100%" viewBox="0 0 2481 3508" version="1.1" xmlns="http://www.w3.org/2000/svg" xmlns:xlink="http://www.w3.org/1999/xlink" xml:space="preserve" style="fill-rule:evenodd;clip-rule:evenodd;stroke-linecap:round;stroke-linejoin:round;stroke-miterlimit:1.5;"><g id="XMLID_1_"></g><path d="M2483.33,147.433c0,-81.37 -66.062,-147.433 -147.433,-147.433l-2188.47,0c-81.37,0 -147.433,66.063 -147.433,147.433l0,3213.47c0,81.371 66.063,147.433 147.433,147.433l2188.47,0c81.371,0 147.433,-66.062 147.433,-147.433l0,-3213.47Z" style="fill:#fff;stroke:#000;stroke-width:16.5px;"/><path d="M1650.77,2276.99c-0,0 -236.606,146.723 -238.138,292.846c-1.142,108.986 40.414,245.123 161.84,187.989c121.425,-57.134 108.655,-133.451 108.655,-133.451c-0,0 67.648,134.609 142.997,89.775c75.349,-44.834 89.212,-128.839 66.429,-197.134c-36.143,-108.345 -241.783,-240.025 -241.783,-240.025Z" style="fill:#fb2500;stroke:#505050;stroke-width:16.67px;"/><path d="M832.562,1242.98c-0,0 236.606,-146.722 238.137,-292.845c1.143,-108.987 -40.414,-245.123 -161.839,-187.989c-121.426,57.134 -108.656,133.45 -108.656,133.45c0,0 -67.648,-134.608 -142.996,-89.774c-75.349,44.834 -89.212,128.838 -66.43,197.134c36.143,108.344 241.784,240.024 241.784,240.024Z" style="fill:#fb2500;stroke:#505050;stroke-width:16.67px;"/><path d="M288.399,1009.65c-0,-0 156.089,-125.045 157.099,-249.58c0.754,-92.884 -26.661,-208.908 -106.765,-160.215c-80.105,48.693 -71.68,113.734 -71.68,113.734c-0,0 -44.628,-114.721 -94.336,-76.511c-49.707,38.211 -58.853,109.804 -43.823,168.009c23.844,92.337 159.505,204.563 159.505,204.563Z" style="fill:#fb2500;stroke:#505050;stroke-width:16.67px;"/><path d="M2184.2,2515.11c0,-0 -156.089,125.045 -157.099,249.579c-0.754,92.885 26.661,208.908 106.765,160.215c80.105,-48.693 71.68,-113.734 71.68,-113.734c0,-0 44.628,114.721 94.335,76.511c49.708,-38.21 58.854,-109.804 43.824,-168.009c-23.844,-92.337 -159.505,-204.562 -159.505,-204.562Z" style="fill:#fb2500;stroke:#505050;stroke-width:16.67px;"/><text x="129.187px" y="503.058px" style="font-family:'Mitr-ExtraLight', 'Mitr ExtraLight';font-weight:275;font-size:469.34px;">K</text><g transform="matrix(-1,1.22465e-16,-1.22465e-16,-1,5067.19,8020.88)"><text x="2733.83px" y="5012.28px" style="font-family:'Mitr-ExtraLight', 'Mitr ExtraLight';font-weight:275;font-size:469.34px;">K</text></g><g><path d="M900.429,1753.61c-63.416,70.038 -333.25,229.567 -260.016,295.721c73.229,66.146 93.133,19.45 156.808,42.796c63.671,23.35 119.387,23.35 63.671,77.817c-55.713,54.475 -59.963,73.933 -29.975,97.275c29.975,23.35 28.766,-28.971 -0,44.246c-17.784,45.245 -37.675,41.358 33.954,72.479c71.633,31.129 103.029,-84.171 15.921,80.412c-53.659,101.384 30.466,139.534 171.308,168.621c108.238,22.346 142.217,-21.883 199.771,-62.254c50.896,-35.708 37.933,-113.438 297.004,-314.771c155.208,-120.621 147.771,-163.817 143.792,-292.221c-3.975,-128.412 -792.238,-210.121 -792.238,-210.121Z" style="fill:#d18080;fill-rule:nonzero;stroke:#6d3c3c;stroke-width:25px;stroke-linecap:butt;stroke-linejoin:miter;stroke-miterlimit:4;"/><ellipse cx="967.767" cy="1861.94" rx="75" ry="45.783" style="fill:none;stroke:#161515;stroke-width:25px;stroke-linecap:butt;stroke-linejoin:miter;stroke-miterlimit:4;"/><path d="M711.383,2094.1c0,-100.65 172.838,-0 81.409,-0" style="fill:#725e5e;fill-rule:nonzero;stroke:#161515;stroke-width:25px;stroke-linecap:butt;stroke-linejoin:miter;stroke-miterlimit:4;"/><ellipse cx="967.767" cy="1861.94" rx="33.333" ry="24.054" style="fill:#0c0b0b;stroke:#f9f7f7;stroke-width:25px;stroke-linecap:butt;stroke-linejoin:miter;stroke-miterlimit:4;"/><path d="M1009.43,2221.99c0,25 -81.708,45.225 -182.687,45.225" style="fill:none;fill-rule:nonzero;stroke:#6d3c3c;stroke-width:25px;stroke-linecap:butt;stroke-linejoin:miter;stroke-miterlimit:4;"/><g><path d="M2008.09,1445.18c283.905,-150.137 -14.908,152.084 -108.074,289.525c-93.15,137.442 -135.817,163.859 -213.455,263.842c0,-0 -1019.84,-79.396 -970.987,-695.275c35.475,-447.35 -65.479,-190.008 200.491,85.867c92.213,95.67 62.071,127.208 67.296,-327.771c5.225,-454.975 63.321,-81.121 158.688,298.975c95.379,380.058 48.266,71.437 188.829,-356.229c140.563,-427.667 28.467,-18.338 69.433,233.754c42.717,263.004 0.859,-84.967 46.884,285.333c25.191,202.779 50.995,13.425 197.587,-390.704c146.592,-404.129 92.754,97.221 72.379,175.758c-20.92,80.638 -8.062,104.296 -46.5,262.404c-38.45,158.109 14.85,52.259 93.796,6.23c78.95,-46.025 -40.275,18.429 243.633,-131.709Z" style="fill:#f4800c;fill-rule:nonzero;"/></g><g><path d="M1686.56,1998.55c77.641,-99.983 120.299,-126.392 213.454,-263.837c93.158,-137.446 391.971,-439.663 108.075,-289.525c-283.905,150.137 -164.68,85.683 -243.634,131.712c-78.937,46.029 -132.237,151.879 -93.796,-6.229c38.446,-158.104 25.588,-181.767 46.5,-262.404c20.375,-78.538 74.213,-579.888 -72.379,-175.759c-146.591,404.13 -172.396,593.484 -197.587,390.705c-46.025,-370.3 -4.167,-22.33 -46.884,-285.334c-40.966,-252.091 71.125,-661.421 -69.433,-233.754c-140.562,427.667 -93.454,736.283 -188.829,356.229c-95.367,-380.096 -153.463,-753.95 -158.688,-298.975c-5.22,454.975 24.913,423.442 -67.295,327.771c-265.971,-275.875 -165.017,-533.217 -200.492,-85.867c-48.854,615.88 970.987,695.267 970.987,695.267Z" style="fill:none;fill-rule:nonzero;stroke:#6d3c3c;stroke-width:25px;stroke-linecap:butt;stroke-linejoin:miter;stroke-miterlimit:4;"/></g><path d="M918.75,859.343c8.306,-27.86 46.301,-41.162 84.794,-29.686c38.493,11.476 63.001,43.412 54.695,71.272c-8.306,27.86 -46.301,41.161 -84.794,29.685c-38.492,-11.476 -63.001,-43.411 -54.695,-71.271Z" style="fill:#ad3131;stroke:#6d3c3c;stroke-width:25px;stroke-linecap:butt;stroke-linejoin:miter;stroke-miterlimit:4;"/><path d="M663.022,1075.45c8.047,-26.991 38.909,-41.652 68.876,-32.718c29.966,8.934 47.762,38.101 39.715,65.093c-8.047,26.991 -38.909,41.652 -68.876,32.718c-29.966,-8.934 -47.762,-38.101 -39.715,-65.093Z" style="fill:#edd024;stroke:#6d3c3c;stroke-width:25px;stroke-linecap:butt;stroke-linejoin:miter;stroke-miterlimit:4;"/><path d="M1361.24,810.23c8.048,-26.994 38.912,-41.656 68.881,-32.721c29.969,8.935 47.766,38.104 39.718,65.098c-8.047,26.994 -38.912,41.655 -68.881,32.721c-29.968,-8.935 -47.766,-38.104 -39.718,-65.098Z" style="fill:#edd024;stroke:#6d3c3c;stroke-width:25px;stroke-linecap:butt;stroke-linejoin:miter;stroke-miterlimit:4;"/><path d="M1666.12,956.199c8.308,-27.858 46.305,-41.155 84.798,-29.675c38.493,11.48 62.999,43.418 54.691,71.275c-8.309,27.858 -46.305,41.154 -84.798,29.674c-38.493,-11.48 -62.999,-43.417 -54.691,-71.274Z" style="fill:#ad3131;stroke:#6d3c3c;stroke-width:25px;stroke-linecap:butt;stroke-linejoin:miter;stroke-miterlimit:4;"/><path d="M861.808,1559.75c-23.033,77.246 313.842,245.758 753.192,376.763" style="fill:none;fill-rule:nonzero;stroke:#6d3c3c;stroke-width:25px;stroke-linecap:butt;stroke-linejoin:miter;stroke-miterlimit:4;"/><path d="M974.496,1489c-15.796,52.967 301.817,194.346 710.121,316.092" style="fill:none;fill-rule:nonzero;stroke:#6d3c3c;stroke-width:25px;stroke-linecap:butt;stroke-linejoin:miter;stroke-miterlimit:4;"/><path d="M1131.89,2440.8c58.683,102.008 28.07,229.483 -68.446,285.008" style="fill:none;fill-rule:nonzero;stroke:#000;stroke-width:83.33px;stroke-linecap:butt;stroke-linejoin:miter;stroke-miterlimit:4;"/><path d="M1085.16,2456.02c-0.001,101.562 -93.5,183.75 -209.063,183.75" style="fill:none;fill-rule:nonzero;stroke:#000;stroke-width:83.33px;stroke-linecap:butt;stroke-linejoin:miter;stroke-miterlimit:4;"/><path d="M980.267,2460.19c-0,66.904 -99.871,121.037 -223.292,121.037" style="fill:none;fill-rule:nonzero;stroke:#000;stroke-width:83.33px;stroke-linecap:butt;stroke-linejoin:miter;stroke-miterlimit:4;"/><path d="M953.942,2423.49c-22.409,55.525 -144.421,58.537 -272.804,6.721" style="fill:none;fill-rule:nonzero;stroke:#000;stroke-width:83.33px;stroke-linecap:butt;stroke-linejoin:miter;stroke-miterlimit:4;"/><ellipse cx="2100.58" cy="1414.35" rx="56.667" ry="84.721" style="fill:#edd024;stroke:#6d3c3c;stroke-width:25px;stroke-linecap:butt;stroke-linejoin:miter;stroke-miterlimit:4;"/></g></svg>