<?xml version="1.0" encoding="UTF-8" standalone="no"?><!DOCTYPE svg PUBLIC "-//W3C//DTD SVG 1.1//EN" "http://www.w3.org/Graphics/SVG/1.1/DTD/svg11.dtd"><svg width="100%" height="100%" viewBox="0 0 2481 3508" version="1.1" xmlns="http://www.w3.org/2000/svg" xmlns:xlink="http://www.w3.org/1999/xlink" xml:space="preserve"  style="fill-rule:evenodd;clip-rule:evenodd;stroke-linecap:round;stroke-linejoin:round;stroke-miterlimit:1.5;"><g id="XMLID_1_"></g><path d="M2483.33,147.433c0,-81.37 -66.062,-147.433 -147.433,-147.433l-2188.47,0c-81.37,0 -147.433,66.063 -147.433,147.433l0,3213.47c0,81.371 66.063,147.433 147.433,147.433l2188.47,0c81.371,0 147.433,-66.062 147.433,-147.433l0,-3213.47Z" style="fill:#fff;stroke:#000;stroke-width:16.5px;"/><path d="M1650.77,2276.99c-0,0 -236.606,146.723 -238.138,292.846c-1.142,108.986 40.414,245.123 161.84,187.989c121.425,-57.134 108.655,-133.451 108.655,-133.451c-0,0 67.648,134.609 142.997,89.775c75.349,-44.834 89.212,-128.839 66.429,-197.134c-36.143,-108.345 -241.783,-240.025 -241.783,-240.025Z" style="fill:#fb2500;stroke:#505050;stroke-width:16.67px;"/><g><path d="M994.16,1640.76c0,511.408 -95.741,925.242 -214.058,925.242" style="fill:none;fill-rule:nonzero;stroke:#f2d60a;stroke-width:125px;stroke-linecap:square;stroke-linejoin:miter;stroke-miterlimit:4;"/><path d="M1591.88,1449.99c0,195.8 122.592,354.246 274.092,354.246" style="fill:none;fill-rule:nonzero;stroke:#f2d60a;stroke-width:166.67px;stroke-linecap:butt;stroke-linejoin:miter;stroke-miterlimit:4;"/><path d="M972.385,1655.36c-49.691,397.342 -205.529,681.408 -348.425,635.121" style="fill:none;fill-rule:nonzero;stroke:#f2d60a;stroke-width:166.67px;stroke-linecap:butt;stroke-linejoin:miter;stroke-miterlimit:4;"/><path d="M944.16,2064.14c66.667,103.15 188.988,144.817 215.329,236.484c26.334,91.666 140.642,408.333 258.488,283.333c117.846,-125 167.042,-341.667 248.7,-500c81.65,-158.333 17.708,-386.125 -73.233,-503.479c-90.95,-117.354 -605.817,-18.6 -628.45,-0" style="fill:#b2aa7b;fill-rule:nonzero;"/><path d="M1562.94,1516.66c-0,293.7 152.312,531.358 340.533,531.358" style="fill:none;fill-rule:nonzero;stroke:#f2d60a;stroke-width:83.33px;stroke-linecap:butt;stroke-linejoin:miter;stroke-miterlimit:4;"/><path d="M1484.31,1560.94c0,220.821 47.371,399.504 105.904,399.504" style="fill:#f4e921;fill-rule:nonzero;stroke:#f4f414;stroke-width:125px;stroke-linecap:butt;stroke-linejoin:miter;stroke-miterlimit:4;"/><path d="M1469.51,1465.49c0,206.017 -95.341,372.729 -213.17,372.729" style="fill:none;fill-rule:nonzero;stroke:#f2dd1c;stroke-width:83.33px;stroke-linecap:butt;stroke-linejoin:miter;stroke-miterlimit:4;"/><path d="M1685.38,1431.62c11.125,-206.175 78.104,-649.237 0,-394.804c-78.108,254.429 -188.241,407.967 -204.029,320.229c-15.796,-87.737 -52.529,-772.062 -94.521,-504.475c-41.996,267.592 -15.746,622.917 -68.237,460.605c-52.492,-162.313 -351.667,-912.438 -267.688,-456.221c83.979,456.216 86.871,507.658 39.767,443.596c-112.492,-153 -500.117,-724.346 -301.438,-298.834c198.684,425.513 278.692,538.667 84.492,376.359c-194.204,-162.309 -468.375,-525.509 -174.471,-117.542c293.909,407.967 -744.008,-330.483 178.434,403.579c330.05,262.646 807.691,-232.492 807.691,-232.492Z" style="fill:#070707;fill-rule:nonzero;"/><path d="M1283.21,2356.48c0,-41.454 52.017,-75 116.3,-75" style="fill:none;fill-rule:nonzero;stroke:#0f0f0e;stroke-width:41.67px;stroke-linecap:butt;stroke-linejoin:miter;stroke-miterlimit:4;"/><path d="M1202.74,2015.6c20.833,123.38 54.166,176.213 100,64.38" style="fill:none;fill-rule:nonzero;stroke:#0f0f0e;stroke-width:41.67px;stroke-linecap:butt;stroke-linejoin:miter;stroke-miterlimit:4;"/><path d="M1088.05,1816.03c39.419,12.633 67.434,35.334 62.522,50.662c-4.912,15.327 -40.904,17.514 -80.323,4.881c-39.419,-12.633 -67.434,-35.334 -62.522,-50.661c4.912,-15.328 40.904,-17.515 80.323,-4.882Z" style="fill:none;stroke:#0f0f0e;stroke-width:41.67px;stroke-linecap:butt;stroke-linejoin:miter;stroke-miterlimit:4;"/><path d="M1196.26,1652.6c0,93.075 -30.025,168.391 -67.129,168.391" style="fill:none;fill-rule:nonzero;stroke:#f7ed3c;stroke-width:83.33px;stroke-linecap:butt;stroke-linejoin:miter;stroke-miterlimit:4;"/></g><path d="M832.562,1242.98c-0,0 236.606,-146.722 238.137,-292.845c1.143,-108.987 -40.414,-245.123 -161.839,-187.989c-121.426,57.134 -108.656,133.45 -108.656,133.45c0,0 -67.648,-134.608 -142.996,-89.774c-75.349,44.834 -89.212,128.838 -66.43,197.134c36.143,108.344 241.784,240.024 241.784,240.024Z" style="fill:#fb2500;stroke:#505050;stroke-width:16.67px;"/><path d="M288.399,1009.65c-0,-0 156.089,-125.045 157.099,-249.58c0.754,-92.884 -26.661,-208.908 -106.765,-160.215c-80.105,48.693 -71.68,113.734 -71.68,113.734c-0,0 -44.628,-114.721 -94.336,-76.511c-49.707,38.211 -58.853,109.804 -43.823,168.009c23.844,92.337 159.505,204.563 159.505,204.563Z" style="fill:#fb2500;stroke:#505050;stroke-width:16.67px;"/><path d="M2184.2,2515.11c0,-0 -156.089,125.045 -157.099,249.579c-0.754,92.885 26.661,208.908 106.765,160.215c80.105,-48.693 71.68,-113.734 71.68,-113.734c0,-0 44.628,114.721 94.335,76.511c49.708,-38.21 58.854,-109.804 43.824,-168.009c-23.844,-92.337 -159.505,-204.562 -159.505,-204.562Z" style="fill:#fb2500;stroke:#505050;stroke-width:16.67px;"/><text x="129.187px" y="503.058px" style="font-family:'Mitr-ExtraLight', 'Mitr ExtraLight';font-weight:275;font-size:469.34px;">J</text><g transform="matrix(-1,1.22465e-16,-1.22465e-16,-1,5067.19,8020.88)"><text x="2733.83px" y="5012.28px" style="font-family:'Mitr-ExtraLight', 'Mitr ExtraLight';font-weight:275;font-size:469.34px;">J</text></g></svg>