<?xml version="1.0" encoding="UTF-8" standalone="no"?><!DOCTYPE svg PUBLIC "-//W3C//DTD SVG 1.1//EN" "http://www.w3.org/Graphics/SVG/1.1/DTD/svg11.dtd"><svg width="100%" height="100%" viewBox="0 0 2481 3508" version="1.1" xmlns="http://www.w3.org/2000/svg" xmlns:xlink="http://www.w3.org/1999/xlink" xml:space="preserve" style="fill-rule:evenodd;clip-rule:evenodd;stroke-linecap:round;stroke-linejoin:round;stroke-miterlimit:1.5;"><path d="M2483.33,147.433c0,-81.37 -66.062,-147.433 -147.433,-147.433l-2188.47,0c-81.37,0 -147.433,66.063 -147.433,147.433l0,3213.47c0,81.371 66.063,147.433 147.433,147.433l2188.47,0c81.371,0 147.433,-66.062 147.433,-147.433l0,-3213.47Z" style="fill:#fff;stroke:#000;stroke-width:16.5px;"/><text x="129.187px" y="503.058px" style="font-family:'Mitr-ExtraLight', 'Mitr ExtraLight';font-weight:275;font-size:469.34px;">A</text><g id="XMLID_1_"><path d="M1428,1632.96c13.549,-39.77 220.62,-215.685 158.057,-428.946c-28.73,-97.933 -389.598,-446.011 -610.405,15.961c-75.522,158.006 132.702,391.564 132.702,391.564c-0,-0 -180.041,-135.62 -327.917,-106.977c-249.83,48.392 -411.054,570.013 3.843,579.198c289.307,6.405 326.129,-90.148 326.129,-90.148c87.394,30.322 140.386,467.911 -78.204,508.46c-48.647,9.024 513.877,-0 513.877,-0c0,-0 -173.494,-579.652 -113.137,-524.519c64.133,58.58 216.069,71.49 317.208,80.646c295.881,26.783 390.718,-365.704 248.092,-498.25c-215.615,-200.377 -583.794,112.781 -570.245,73.011Z" style="stroke:#484848;stroke-width:54.17px;"/><path d="M311.565,765.375c3.44,-10.643 61.063,-84.127 47.148,-123.491c-6.272,-17.743 -84.18,-135.181 -157.329,-8.699c-32.107,55.516 29.022,126.457 29.022,126.457c0,0 -45.712,-36.293 -83.258,-28.628c-63.432,12.95 -104.367,152.539 0.976,154.997c73.455,1.714 82.804,-24.124 82.804,-24.124c0,0 17.239,118.486 -19.856,136.067c-11.653,5.524 130.474,0 130.474,0c0,0 -44.05,-155.118 -28.725,-140.364c16.283,15.676 54.859,19.131 80.539,21.581c75.124,7.167 99.204,-97.864 62.991,-133.335c-54.745,-53.622 -148.226,30.181 -144.786,19.539Z" style="stroke:#484848;stroke-width:18.75px;"/><g transform="matrix(-1,1.22465e-16,-1.22465e-16,-1,5067.19,8020.88)"><text x="2733.83px" y="5012.28px" style="font-family:'Mitr-ExtraLight', 'Mitr ExtraLight';font-weight:275;font-size:469.34px;">A</text></g><path d="M2150.98,2746.28c-3.44,10.642 -61.063,84.126 -47.148,123.49c6.272,17.743 84.18,135.181 157.329,8.699c32.106,-55.515 -29.023,-126.457 -29.023,-126.457c0,0 45.713,36.293 83.259,28.628c63.432,-12.95 104.367,-152.539 -0.976,-154.997c-73.455,-1.714 -82.804,24.124 -82.804,24.124c-0,-0 -17.239,-118.486 19.856,-136.067c11.653,-5.523 -130.474,-0 -130.474,-0c-0,-0 44.05,155.118 28.725,140.364c-16.283,-15.676 -54.86,-19.131 -80.539,-21.581c-75.125,-7.167 -99.204,97.865 -62.991,133.335c54.745,53.622 148.226,-30.181 144.786,-19.538Z" style="stroke:#484848;stroke-width:18.75px;"/></g></svg>