<?xml version="1.0" encoding="UTF-8" standalone="no"?><!DOCTYPE svg PUBLIC "-//W3C//DTD SVG 1.1//EN" "http://www.w3.org/Graphics/SVG/1.1/DTD/svg11.dtd"><svg width="100%" height="100%" viewBox="0 0 2481 3508" version="1.1" xmlns="http://www.w3.org/2000/svg" xmlns:xlink="http://www.w3.org/1999/xlink" xml:space="preserve" style="fill-rule:evenodd;clip-rule:evenodd;stroke-linecap:round;stroke-linejoin:round;stroke-miterlimit:1.5;"><g id="XMLID_1_"></g><path d="M2483.33,147.433c0,-81.37 -66.062,-147.433 -147.433,-147.433l-2188.47,0c-81.37,0 -147.433,66.063 -147.433,147.433l0,3213.47c0,81.371 66.063,147.433 147.433,147.433l2188.47,0c81.371,0 147.433,-66.062 147.433,-147.433l0,-3213.47Z" style="fill:#fff;stroke:#000;stroke-width:16.5px;"/><path d="M599.795,1381.56c-4.267,-110.924 -13.91,-178.847 91.791,-273.057c67.786,-60.418 357.158,-0 357.158,-0" style="fill:none;stroke:#000;stroke-width:191.67px;"/><path d="M917.922,1680.05c171.685,-64.376 215.985,-103.88 531.905,-172.635" style="fill:none;stroke:#000;stroke-width:191.67px;"/><path d="M917.922,1488.7c125.672,-43.173 160.049,-77.038 387.068,-107.142" style="fill:none;stroke:#000;stroke-width:191.67px;"/><path d="M917.922,1353.42c100.862,-43.173 128.452,-77.038 310.654,-107.142" style="fill:none;stroke:#000;stroke-width:191.67px;"/><path d="M969.322,1215.64c51.573,-43.173 65.68,-77.038 158.844,-107.142" style="fill:none;stroke:#000;stroke-width:191.67px;"/><path d="M808.809,1882.93c-70.742,85.637 -14.833,473.809 102.301,625.85c203.446,264.073 246.084,302.341 443.369,285.79c68.351,-5.735 307.879,-122.003 303.109,-586.113c-2.438,-237.224 63.285,-388.76 -30.257,-528.406c-40.465,-60.409 -96.153,-20.378 -201.626,-61.016c-367.275,-141.511 -603.438,247.603 -616.896,263.895Z" style="fill:#ffd0cf;stroke:#000;stroke-width:4.17px;"/><ellipse cx="1295.2" cy="2275.65" rx="13.514" ry="15.178" style="fill:none;stroke:#000;stroke-width:31.25px;"/><ellipse cx="1226.65" cy="2328.41" rx="13.514" ry="6.145" style="fill:none;stroke:#000;stroke-width:31.25px;"/><path d="M1599,2320.53c-2.707,16.618 -69.602,-88.186 -222.273,67.906c-41.315,42.241 -48.754,78.319 -74.111,94.123c-54.779,34.14 -136.745,-49.02 -202.46,6.29c-41.111,34.602 -138.223,67.709 -66.087,116.161c72.135,48.452 322.049,12.845 422.715,-63.57c101.813,-77.286 142.216,-220.91 142.216,-220.91Z" style="fill:#ff1068;stroke:#000;stroke-width:33.33px;"/><path d="M1342.49,1989.92c20.204,-2.88 89.111,-139.948 152.265,-99.554" style="fill:none;stroke:#000;stroke-width:37.5px;"/><path d="M1192.05,2569.98c44.896,-3.73 93.411,-31.373 110.195,-39.277c16.784,-7.904 112.871,-49.801 112.871,-49.801" style="fill:none;stroke:#000;stroke-width:31.25px;"/><path d="M959.783,2131.12l-65.325,76.803" style="fill:none;stroke:#000;stroke-width:31.25px;"/><path d="M1053.45,2175.31l-28.815,65.227" style="fill:none;stroke:#000;stroke-width:31.25px;"/><path d="M1111.04,2175.31c25.728,28.048 34.047,65.227 34.047,65.227" style="fill:none;stroke:#000;stroke-width:31.25px;"/><path d="M1380.3,2074.54l-3.266,100.773" style="fill:none;stroke:#000;stroke-width:31.25px;"/><path d="M1481.1,2059.1l18.085,68.977" style="fill:none;stroke:#000;stroke-width:31.25px;"/><path d="M1526.15,2014.89c37.597,5.917 67.263,29.821 67.263,29.821" style="fill:none;stroke:#000;stroke-width:31.25px;"/><path d="M932.412,2137.42c0,-0 129.106,-85.488 153.421,-33.977c24.315,51.51 44.939,72.763 -7.676,71.841c-52.615,-0.923 -145.745,-37.864 -145.745,-37.864Z" style="fill:#91ffff;stroke:#000;stroke-width:31.25px;"/><path d="M1526.99,1962.75c-0,-0 -49.19,146.822 -100.049,121.171c-50.859,-25.65 -80.193,-29.718 -38.145,-61.359c42.048,-31.642 138.194,-59.812 138.194,-59.812Z" style="fill:#a3ffff;stroke:#000;stroke-width:31.25px;"/><path d="M932.412,2067.61c20.205,-2.881 121.291,-43.485 184.445,-3.09" style="fill:none;stroke:#000;stroke-width:37.5px;"/><g><path d="M780.519,1993.33c-0,-0 339.903,51.368 858.465,-215.923c54.063,-27.867 -34.019,-414.609 -34.019,-414.609l-122.546,254.218l-103.777,-245.235l-174.98,246.537l-61.204,-182.678l-94.793,200.545l-136.245,-122.338l9.614,216.266l-215.941,-131.079l75.564,228.956l-180.862,-18.339l180.724,183.679Z" style="fill:#ffcf4a;stroke:#000;stroke-width:31.25px;"/><ellipse cx="1623.12" cy="1362.8" rx="77.975" ry="62.95" style="fill:#c49000;"/><ellipse cx="1371.85" cy="1362.8" rx="77.975" ry="62.95" style="fill:#c49000;"/><ellipse cx="1128.17" cy="1425.75" rx="77.975" ry="62.95" style="fill:#c49000;"/><ellipse cx="887.006" cy="1519.04" rx="77.975" ry="62.95" style="fill:#c49000;"/><ellipse cx="731.056" cy="1617.1" rx="77.975" ry="62.95" style="fill:#c49000;"/><ellipse cx="599.795" cy="1804.34" rx="77.975" ry="62.95" style="fill:#c49000;"/></g><path d="M941.365,696.585c-69.069,-205.855 -210.669,-242.116 -210.669,-242.116c-28.114,30.405 -102.447,76.742 -140.061,261.385c-4.914,24.122 -13.333,151.558 60.281,140.868c42.043,-6.106 92.885,-21.705 92.885,-21.705c-0,-0 15.703,178.109 -5.294,212.87c-20.997,34.76 48.526,13.206 66.966,9.599c18.439,-3.608 -1.529,-223.937 -1.529,-223.937c-0,0 45.934,16.445 96.713,7.728c62.015,-10.645 48.152,-122.507 40.708,-144.692Z" style="stroke:#505050;stroke-width:16.67px;"/><path d="M1539.13,2787.95c69.069,205.856 210.669,242.117 210.669,242.117c28.114,-30.405 102.447,-76.743 140.061,-261.386c4.914,-24.122 13.333,-151.558 -60.281,-140.867c-42.043,6.105 -92.885,21.705 -92.885,21.705c0,-0 -15.703,-178.11 5.294,-212.87c20.997,-34.761 -48.526,-13.207 -66.966,-9.599c-18.439,3.607 1.529,223.936 1.529,223.936c0,0 -45.934,-16.445 -96.713,-7.728c-62.015,10.646 -48.152,122.507 -40.708,144.692Z" style="stroke:#505050;stroke-width:16.67px;"/><path d="M2071.55,2772.96c46.624,138.958 142.208,163.435 142.208,163.435c18.978,-20.524 69.155,-51.803 94.545,-176.442c3.317,-16.283 9,-102.306 -40.691,-95.09c-28.38,4.121 -62.7,14.652 -62.7,14.652c0,-0 -10.6,-120.229 3.573,-143.694c14.174,-23.464 -32.756,-8.914 -45.203,-6.479c-12.447,2.435 1.032,151.163 1.032,151.163c-0,0 -31.007,-11.101 -65.284,-5.216c-41.862,7.186 -32.504,82.695 -27.48,97.671Z" style="stroke:#505050;stroke-width:16.67px;"/><path d="M395.337,749.492c-46.624,-138.958 -142.208,-163.435 -142.208,-163.435c-18.978,20.524 -69.155,51.803 -94.545,176.442c-3.317,16.283 -9,102.306 40.691,95.09c28.381,-4.122 62.7,-14.652 62.7,-14.652c-0,0 10.6,120.229 -3.573,143.694c-14.174,23.464 32.756,8.914 45.203,6.479c12.447,-2.435 -1.032,-151.163 -1.032,-151.163c0,-0 31.007,11.1 65.284,5.216c41.862,-7.186 32.504,-82.696 27.48,-97.671Z" style="stroke:#505050;stroke-width:16.67px;"/><text x="129.187px" y="503.058px" style="font-family:'Mitr-ExtraLight', 'Mitr ExtraLight';font-weight:275;font-size:469.34px;">Q</text><g transform="matrix(-1,1.22465e-16,-1.22465e-16,-1,5067.19,8020.88)"><text x="2733.83px" y="5012.28px" style="font-family:'Mitr-ExtraLight', 'Mitr ExtraLight';font-weight:275;font-size:469.34px;">Q</text></g></svg>