<?xml version="1.0" encoding="UTF-8" standalone="no"?><!DOCTYPE svg PUBLIC "-//W3C//DTD SVG 1.1//EN" "http://www.w3.org/Graphics/SVG/1.1/DTD/svg11.dtd"><svg width="100%" height="100%" viewBox="0 0 2481 3508" version="1.1" xmlns="http://www.w3.org/2000/svg" xmlns:xlink="http://www.w3.org/1999/xlink" xml:space="preserve" style="fill-rule:evenodd;clip-rule:evenodd;stroke-linecap:round;stroke-linejoin:round;stroke-miterlimit:1.5;"><g id="XMLID_1_"></g><path d="M2483.33,147.433c0,-81.37 -66.062,-147.433 -147.433,-147.433l-2188.47,0c-81.37,0 -147.433,66.063 -147.433,147.433l0,3213.47c0,81.371 66.063,147.433 147.433,147.433l2188.47,0c81.371,0 147.433,-66.062 147.433,-147.433l0,-3213.47Z" style="fill:#fff;stroke:#000;stroke-width:16.5px;"/><path d="M1650.77,2276.99c-0,0 -236.606,146.723 -238.138,292.846c-1.142,108.986 40.414,245.123 161.84,187.989c121.425,-57.134 108.655,-133.451 108.655,-133.451c-0,0 67.648,134.609 142.997,89.775c75.349,-44.834 89.212,-128.839 66.429,-197.134c-36.143,-108.345 -241.783,-240.025 -241.783,-240.025Z" style="fill:#fb2500;stroke:#505050;stroke-width:16.67px;"/><g><path d="M876.229,1530.71c0,472.129 -147.225,854.166 -329.167,854.166" style="fill:none;fill-rule:nonzero;stroke:#f2d60a;stroke-width:166.67px;stroke-linecap:butt;stroke-linejoin:miter;stroke-miterlimit:4;"/><path d="M741.096,1341.22c84.658,361.196 -15.738,693.054 -224.467,741.975" style="fill:none;fill-rule:nonzero;stroke:#f2d60a;stroke-width:166.67px;stroke-linecap:butt;stroke-linejoin:miter;stroke-miterlimit:4;"/><path d="M1750.47,1357.08c-195.834,-123.604 -306.088,-250.258 -650,-110.416c-75.246,30.6 -466.667,-0 -374.996,588.958c74.825,480.708 287.867,542.179 558.329,672.854c253.792,122.625 336.633,1.467 551.308,-223.208c340.846,-356.729 -67.975,-896.938 -84.641,-928.188" style="fill:#b76f48;fill-rule:nonzero;stroke:#020202;stroke-width:25px;stroke-linecap:butt;stroke-linejoin:miter;stroke-miterlimit:4;"/><path d="M1831.32,2109.83c-102.075,-53.742 -145.821,-131.362 -262.488,-83.592c-116.662,47.767 -43.746,86.601 -189.566,34.342c-145.83,-52.254 -182.284,-85.071 -255.196,0c-72.913,85.075 -182.284,31.338 -0,132.846c182.279,101.504 401.016,179.125 488.512,113.446c87.496,-65.679 218.738,-197.042 218.738,-197.042Z" style="fill:#f40808;fill-rule:nonzero;stroke:#6d3c3c;stroke-width:25px;stroke-linecap:butt;stroke-linejoin:miter;stroke-miterlimit:4;"/><path d="M1662.87,2120.5c3.496,28.891 -136.084,71.908 -451.104,17.492" style="fill:none;fill-rule:nonzero;stroke:#6d3c3c;stroke-width:25px;stroke-linecap:butt;stroke-linejoin:miter;stroke-miterlimit:4;"/><path d="M1180.6,1710.7c-0,35.171 -123.892,21.525 -179.167,21.525" style="fill:none;fill-rule:nonzero;stroke:#6d3c3c;stroke-width:25px;stroke-linecap:butt;stroke-linejoin:miter;stroke-miterlimit:4;"/><path d="M1689.11,1605.35c-0,28.958 -72.875,52.396 -162.925,52.396" style="fill:none;fill-rule:nonzero;stroke:#6d3c3c;stroke-width:25px;stroke-linecap:butt;stroke-linejoin:miter;stroke-miterlimit:4;"/><path d="M1509.07,1946.75c-0.833,-17.225 24.691,-32.429 57.058,-34" style="fill:none;fill-rule:nonzero;stroke:#6d3c3c;stroke-width:25px;stroke-linecap:butt;stroke-linejoin:miter;stroke-miterlimit:4;"/><path d="M866.663,1478.72c107.737,459.671 51.575,865.225 -125.567,906.746" style="fill:none;fill-rule:nonzero;stroke:#f2d60a;stroke-width:166.67px;stroke-linecap:butt;stroke-linejoin:miter;stroke-miterlimit:4;"/><path d="M1395.61,1952.85c11.571,-12.783 40.388,-5.538 64.417,16.208" style="fill:none;fill-rule:nonzero;stroke:#6d3c3c;stroke-width:25px;stroke-linecap:butt;stroke-linejoin:miter;stroke-miterlimit:4;"/><path d="M1201.76,1342.7c-49.855,247.7 -206.213,424.788 -349.58,395.929" style="fill:none;fill-rule:nonzero;stroke:#f2d60a;stroke-width:125px;stroke-linecap:butt;stroke-linejoin:miter;stroke-miterlimit:4;"/><path d="M1023.86,1389.22c-67.787,324.7 -235.741,563.825 -375.516,534.641" style="fill:none;fill-rule:nonzero;stroke:#6d3c3c;stroke-width:83.33px;stroke-linecap:butt;stroke-linejoin:miter;stroke-miterlimit:4;"/><path d="M1518.45,1143.75c-0,472.129 -147.225,854.167 -329.167,854.167" style="fill:none;fill-rule:nonzero;stroke:#f2d60a;stroke-width:166.67px;stroke-linecap:butt;stroke-linejoin:miter;stroke-miterlimit:4;"/><path d="M1561.72,1107.06c-0,183.091 152.816,331.249 341.667,331.249" style="fill:none;fill-rule:nonzero;stroke:#f2d60a;stroke-width:125px;stroke-linecap:butt;stroke-linejoin:miter;stroke-miterlimit:4;"/><path d="M1470.15,1290.4c0,122.062 123,220.833 275,220.833" style="fill:none;fill-rule:nonzero;stroke:#f2d60a;stroke-width:41.67px;stroke-linecap:butt;stroke-linejoin:miter;stroke-miterlimit:4;"/><path d="M766.379,1532.03c0,160.738 -175.779,194.263 -213.871,194.263" style="fill:none;fill-rule:nonzero;stroke:#f2dd1c;stroke-width:125px;stroke-linecap:butt;stroke-linejoin:miter;stroke-miterlimit:4;"/><path d="M1342.48,1313.95c0,96.025 47.534,173.725 106.25,173.725" style="fill:#f4e921;fill-rule:nonzero;stroke:#f4f414;stroke-width:83.33px;stroke-linecap:butt;stroke-linejoin:miter;stroke-miterlimit:4;"/><path d="M1281.72,1363.77c-0,58.025 -30.121,104.975 -67.354,104.975" style="fill:none;fill-rule:nonzero;stroke:#f7ed3c;stroke-width:83.33px;stroke-linecap:butt;stroke-linejoin:miter;stroke-miterlimit:4;"/><path d="M1661.84,1188.24c0.962,-84.279 11.487,-248.642 2.858,-342.709c-8.621,-94.058 -44.908,-229.079 -96.617,-77.591c-51.712,151.496 -27.704,142.308 -59.275,188.741c-31.575,46.434 -23.625,112.121 -108.308,-38.766c-84.675,-150.879 -173.558,-420.55 -173.671,-228.592c-0.112,191.954 4.029,502.475 -59.133,406.367c-63.163,-96.109 -257.079,-482.967 -240.821,-328.825c16.25,154.129 22.146,153.058 39.275,317.725c17.121,164.662 32.408,204.637 -68.183,140.012c-100.588,-64.612 -347.692,-306.529 -265.513,-132.537c82.179,174.004 277.488,349.891 152.617,283.8c-124.863,-66.088 -445.646,-222.867 -347.15,-89.3c98.483,133.545 100.75,71.566 230.896,281.375c26.396,42.554 492.862,-176.375 492.862,-176.375l500.163,-203.325Z" style="fill:#72693b;fill-rule:nonzero;stroke:#6d3c3c;stroke-width:25px;stroke-linecap:butt;stroke-linejoin:miter;stroke-miterlimit:4;"/><path d="M1204.54,1029.41c52.612,96.492 37.496,206.163 -33.73,244.992c-71.233,38.838 -171.595,-7.867 -224.204,-104.358c-52.6,-96.467 -37.5,-206.159 33.729,-244.992c71.226,-38.833 171.613,7.887 224.205,104.358Z" style="fill:#26eac4;fill-rule:nonzero;stroke:#6d3c3c;stroke-width:25px;stroke-linecap:butt;stroke-linejoin:miter;stroke-miterlimit:4;"/><path d="M502.415,1222.22c52.075,-8.539 100.721,23.357 108.562,71.182c7.842,47.825 -28.071,93.586 -80.146,102.124c-52.076,8.539 -100.721,-23.357 -108.563,-71.182c-7.841,-47.826 28.071,-93.586 80.147,-102.124Z" style="fill:#edd024;stroke:#6d3c3c;stroke-width:25px;stroke-linecap:butt;stroke-linejoin:miter;stroke-miterlimit:4;"/><path d="M1718.48,842.096c9.575,58.408 -32.291,113.862 -93.495,123.896c-61.213,10.033 -118.592,-29.15 -128.167,-87.554c-9.575,-58.392 32.283,-113.859 93.496,-123.896c61.208,-10.034 118.596,29.166 128.166,87.554Z" style="fill:#edd024;fill-rule:nonzero;stroke:#6d3c3c;stroke-width:25px;stroke-linecap:butt;stroke-linejoin:miter;stroke-miterlimit:4;"/><path d="M1392.55,753.513c9.575,58.404 -32.291,113.866 -93.5,123.899c-61.212,10.034 -118.583,-29.15 -128.166,-87.558c-9.567,-58.387 32.283,-113.858 93.495,-123.896c61.204,-10.033 118.596,29.167 128.171,87.554Z" style="fill:#edd024;fill-rule:nonzero;stroke:#6d3c3c;stroke-width:25px;stroke-linecap:butt;stroke-linejoin:miter;stroke-miterlimit:4;"/><path d="M822.475,1125.57c9.579,58.408 -32.292,113.866 -93.492,123.9c-61.212,10.033 -118.591,-29.15 -128.17,-87.559c-9.571,-58.387 32.283,-113.858 93.5,-123.896c61.204,-10.029 118.591,29.171 128.162,87.555Z" style="fill:#edd024;fill-rule:nonzero;stroke:#6d3c3c;stroke-width:25px;stroke-linecap:butt;stroke-linejoin:miter;stroke-miterlimit:4;"/><path d="M1045.21,791.096c8.063,49.154 -28.004,95.962 -80.533,104.575c-52.538,8.612 -101.65,-24.229 -109.708,-73.379c-8.054,-49.138 27.995,-95.954 80.533,-104.571c52.533,-8.617 101.654,24.237 109.708,73.375Z" style="fill:#edd024;fill-rule:nonzero;stroke:#6d3c3c;stroke-width:25px;stroke-linecap:butt;stroke-linejoin:miter;stroke-miterlimit:4;"/></g><path d="M832.562,1242.98c-0,0 236.606,-146.722 238.137,-292.845c1.143,-108.987 -40.414,-245.123 -161.839,-187.989c-121.426,57.134 -108.656,133.45 -108.656,133.45c0,0 -67.648,-134.608 -142.996,-89.774c-75.349,44.834 -89.212,128.838 -66.43,197.134c36.143,108.344 241.784,240.024 241.784,240.024Z" style="fill:#fb2500;stroke:#505050;stroke-width:16.67px;"/><path d="M288.399,1009.65c-0,-0 156.089,-125.045 157.099,-249.58c0.754,-92.884 -26.661,-208.908 -106.765,-160.215c-80.105,48.693 -71.68,113.734 -71.68,113.734c-0,0 -44.628,-114.721 -94.336,-76.511c-49.707,38.211 -58.853,109.804 -43.823,168.009c23.844,92.337 159.505,204.563 159.505,204.563Z" style="fill:#fb2500;stroke:#505050;stroke-width:16.67px;"/><path d="M2184.2,2515.11c0,-0 -156.089,125.045 -157.099,249.579c-0.754,92.885 26.661,208.908 106.765,160.215c80.105,-48.693 71.68,-113.734 71.68,-113.734c0,-0 44.628,114.721 94.335,76.511c49.708,-38.21 58.854,-109.804 43.824,-168.009c-23.844,-92.337 -159.505,-204.562 -159.505,-204.562Z" style="fill:#fb2500;stroke:#505050;stroke-width:16.67px;"/><text x="129.187px" y="503.058px" style="font-family:'Mitr-ExtraLight', 'Mitr ExtraLight';font-weight:275;font-size:469.34px;">Q</text><g transform="matrix(-1,1.22465e-16,-1.22465e-16,-1,5067.19,8020.88)"><text x="2733.83px" y="5012.28px" style="font-family:'Mitr-ExtraLight', 'Mitr ExtraLight';font-weight:275;font-size:469.34px;">Q</text></g></svg>