<?xml version="1.0" encoding="UTF-8" standalone="no"?><!DOCTYPE svg PUBLIC "-//W3C//DTD SVG 1.1//EN" "http://www.w3.org/Graphics/SVG/1.1/DTD/svg11.dtd"><svg width="100%" height="100%" viewBox="0 0 2484 3509" version="1.1" xmlns="http://www.w3.org/2000/svg" xmlns:xlink="http://www.w3.org/1999/xlink" xml:space="preserve"  style="fill-rule:evenodd;clip-rule:evenodd;stroke-linecap:round;stroke-linejoin:round;stroke-miterlimit:1.5;"><path d="M2483.33,147.433c0,-81.37 -66.062,-147.433 -147.433,-147.433l-2188.47,0c-81.37,0 -147.433,66.063 -147.433,147.433l0,3213.47c0,81.371 66.063,147.433 147.433,147.433l2188.47,0c81.371,0 147.433,-66.062 147.433,-147.433l0,-3213.47Z" style="fill:#fff;stroke:#000;stroke-width:16.5px;"/><path d="M1611.19,2586.51c-4.707,14.351 -83.552,113.44 -64.512,166.519c8.582,23.925 115.183,182.283 215.272,11.73c43.931,-74.859 -39.711,-170.519 -39.711,-170.519c0,0 62.548,48.938 113.922,38.603c86.794,-17.462 142.805,-205.689 -1.335,-209.003c-100.509,-2.312 -113.301,32.529 -113.301,32.529c0,0 -23.587,-159.769 27.169,-183.477c15.945,-7.448 -178.527,0 -178.527,0c0,0 60.274,209.167 39.305,189.272c-22.28,-21.138 -75.064,-25.797 -110.201,-29.101c-102.793,-9.664 -135.74,131.964 -86.19,179.793c74.907,72.306 202.816,-40.697 198.109,-26.346Z" style="stroke:#484848;stroke-width:18.75px;"/><path d="M793.059,1369.11c-49.358,95.737 -20.524,466.523 84.657,551.062c73.336,58.943 316.913,348.176 363.951,353.975c144.141,17.77 280.282,-1.066 300.71,-82.724c70.698,-282.601 145.75,-333.699 175.273,-487.564c18.856,-98.275 12.555,-226.83 -49.524,-501.157c-31.291,-138.271 -373.229,-81.909 -486.226,-75.136c-112.998,6.773 -339.482,145.808 -388.841,241.544Z" style="fill:#d09d86;stroke:#f8cea8;stroke-width:66.67px;"/><g><path d="M1146.48,2115.21c0,0 47.466,-138.081 94.815,-156.175c48.905,-18.69 58.378,2.663 58.378,2.663c0,-0 10.37,-11.682 34.186,-27.399c45.778,-30.21 134.629,26.112 134.629,26.112c0,0 138.303,56.459 55.171,120.562c-103.505,79.811 -160.815,72.213 -169.776,76.244c-36.956,16.62 -20.241,43.267 -148.331,21.722c-72.351,-12.169 -59.072,-63.729 -59.072,-63.729Z" style="fill:#ff0bc3;"/><path d="M1280.29,2065.91c10.944,-11.312 72.714,-37.715 126.948,-33.649c89.299,6.695 -27.867,10.523 -67.489,25.117c-77.829,28.668 -78.088,27.787 -59.459,8.532Z" style="stroke:#000;stroke-width:12.5px;"/></g><text x="129.187px" y="503.058px" style="font-family:'Mitr-ExtraLight', 'Mitr ExtraLight';font-weight:275;font-size:469.34px;">Q</text><path d="M311.565,765.375c3.44,-10.643 61.063,-84.127 47.148,-123.491c-6.272,-17.743 -84.18,-135.181 -157.329,-8.699c-32.107,55.516 29.022,126.457 29.022,126.457c0,0 -45.712,-36.293 -83.258,-28.628c-63.432,12.95 -104.367,152.539 0.976,154.997c73.455,1.714 82.804,-24.124 82.804,-24.124c0,0 17.239,118.486 -19.856,136.067c-11.653,5.524 130.474,0 130.474,0c0,0 -44.05,-155.118 -28.725,-140.364c16.283,15.676 54.859,19.131 80.539,21.581c75.124,7.167 99.204,-97.864 62.991,-133.335c-54.745,-53.622 -148.226,30.181 -144.786,19.539Z" style="stroke:#484848;stroke-width:18.75px;"/><path d="M860.389,694.796c4.707,-14.351 83.552,-113.439 64.512,-166.519c-8.582,-23.924 -115.183,-182.282 -215.272,-11.729c-43.931,74.859 39.711,170.518 39.711,170.518c0,0 -62.548,-48.938 -113.921,-38.602c-86.794,17.462 -142.805,205.689 1.334,209.003c100.509,2.311 113.301,-32.53 113.301,-32.53c0,0 23.588,159.77 -27.168,183.477c-15.946,7.448 178.526,0 178.526,0c0,0 -60.274,-209.166 -39.305,-189.272c22.281,21.139 75.065,25.798 110.202,29.101c102.792,9.665 135.74,-131.963 86.19,-179.793c-74.907,-72.305 -202.817,40.697 -198.11,26.346Z" style="stroke:#484848;stroke-width:18.75px;"/><ellipse cx="1215.74" cy="1829.87" rx="25.924" ry="19.496"/><ellipse cx="1274.25" cy="1829.87" rx="25.924" ry="19.496"/><path d="M1424.61,1193.8c36.872,27.548 197.636,116.773 197.636,116.773" style="stroke:#000;stroke-width:104.17px;"/><path d="M952.69,1310.57c7.408,49.281 24.523,153.869 24.523,153.869" style="stroke:#000;stroke-width:116.67px;"/><g transform="matrix(-1,1.22465e-16,-1.22465e-16,-1,5067.19,8020.88)"><text x="2733.83px" y="5012.28px" style="font-family:'Mitr-ExtraLight', 'Mitr ExtraLight';font-weight:275;font-size:469.34px;">Q</text></g><path d="M2150.98,2746.28c-3.44,10.642 -61.063,84.126 -47.148,123.49c6.272,17.743 84.18,135.181 157.329,8.699c32.106,-55.515 -29.023,-126.457 -29.023,-126.457c0,0 45.713,36.293 83.259,28.628c63.432,-12.95 104.367,-152.539 -0.976,-154.997c-73.455,-1.714 -82.804,24.124 -82.804,24.124c-0,-0 -17.239,-118.486 19.856,-136.067c11.653,-5.523 -130.474,-0 -130.474,-0c-0,-0 44.05,155.118 28.725,140.364c-16.283,-15.676 -54.86,-19.131 -80.539,-21.581c-75.125,-7.167 -99.204,97.865 -62.991,133.335c54.745,53.622 148.226,-30.181 144.786,-19.538Z" style="stroke:#484848;stroke-width:18.75px;"/><path d="M1249.53,1102.54c54.837,255.533 156.262,213.644 -35.802,408.259" style="fill:none;stroke:#000;stroke-width:116.67px;"/><path d="M1371.18,1193.8c0.708,139.509 181.169,115.386 71.501,270.642" style="fill:none;stroke:#000;stroke-width:116.67px;"/><path d="M1581.28,1180.81c87.131,172.578 208.5,135.422 139.465,313.14" style="fill:none;stroke:#000;stroke-width:116.67px;"/><path d="M1505.16,1180.81c230.529,240.421 145.996,-20.825 88.252,314.979" style="fill:none;stroke:#000;stroke-width:116.67px;"/><path d="M860.71,1212.34c-157.765,307.147 -21.983,425.412 -364.944,491.51" style="fill:none;stroke:#000;stroke-width:116.67px;"/><path d="M860.71,1301.38c-135.763,317.486 -27.483,485.729 -364.944,575.794" style="fill:none;stroke:#000;stroke-width:116.67px;"/><path d="M877.716,1371.12c-57.291,315.867 3.213,500.003 -313.586,665.46" style="fill:none;stroke:#000;stroke-width:116.67px;"/><path d="M935.921,1655.49c-20.504,24.185 -93.786,48.844 -59.999,25.956" style="fill:none;stroke:#000;stroke-width:37.5px;"/><path d="M959.542,1655.49c-16.735,53.035 -43.123,114.308 -23.621,84.78" style="fill:none;stroke:#000;stroke-width:37.5px;"/><path d="M993.086,1668.57c18.602,52.409 -1.776,114.712 -4.005,79.396" style="fill:none;stroke:#000;stroke-width:37.5px;"/><path d="M1031.16,1668.07c42.42,35.962 57.488,101.613 37.814,72.2" style="fill:none;stroke:#000;stroke-width:37.5px;"/><path d="M1070.43,1650.68c50.748,22.746 87.917,62.642 60.838,39.862" style="fill:none;stroke:#000;stroke-width:37.5px;"/><g><path d="M1427.29,1625.24c-25.744,26.747 -92.646,48.802 -67.961,30.252" style="fill:none;stroke:#000;stroke-width:37.5px;"/><path d="M1455.44,1629.57c-4.36,32.511 -47.621,97.78 -47.119,67.769" style="fill:none;stroke:#000;stroke-width:37.5px;"/><path d="M1483.47,1633.04c9.003,27.392 16.888,97.03 -1.49,71.998" style="fill:none;stroke:#000;stroke-width:37.5px;"/><path d="M1591.18,1697.34c-49.107,-29.58 -82.713,-50.424 -63.85,-72.104" style="fill:none;stroke:#000;stroke-width:37.5px;"/><path d="M1625.6,1642.58c-56.968,-6.412 -96.204,-11.347 -88.097,-38.917" style="fill:none;stroke:#000;stroke-width:37.5px;"/><path d="M1375.18,1590.49c20.928,12.468 151.786,65.081 233.882,-38.255" style="fill:none;stroke:#000;stroke-width:39.58px;"/></g><path d="M909.017,1613.55c20.928,12.468 113.161,104.733 195.257,1.397" style="fill:none;stroke:#000;stroke-width:50px;"/><g><path d="M802.1,1469.69c63.882,-158.357 661.451,-333.459 871.413,-132.372c72.313,69.256 10.648,-218.603 -33.356,-269.881c-22.306,-25.994 -154.911,-283.505 -179.923,-321.568c-25.012,-38.063 -29.413,332.734 -28.25,347.286c1.164,14.553 -208.713,-325.531 -208.713,-325.531l-29.37,366.242l-223.041,-327.576l1.531,392.216l-236.715,-196.522l51.954,215.381l-195.248,-73.609c0,-0 120.916,173.752 116.287,190.52c-10.49,37.998 55.068,230.511 93.431,135.414Z" style="fill:#eeac65;stroke:#000;stroke-width:12.5px;"/><ellipse cx="1444" cy="764.122" rx="55.924" ry="54.822" style="fill:#ee4165;stroke:#000;stroke-width:12.5px;"/><ellipse cx="1234.1" cy="797.947" rx="55.924" ry="54.822" style="fill:#ee4165;stroke:#000;stroke-width:12.5px;"/><ellipse cx="753.753" cy="1033.6" rx="55.924" ry="54.822" style="fill:#ee4165;stroke:#000;stroke-width:12.5px;"/><ellipse cx="621.161" cy="1174.28" rx="55.924" ry="54.822" style="fill:#ee4165;stroke:#000;stroke-width:12.5px;"/><path d="M958.008,744.946c-41.771,11.518 -60.883,74.543 -42.653,140.653c18.23,66.11 66.943,110.432 108.714,98.914c41.77,-11.519 60.883,-74.543 42.653,-140.653c-18.23,-66.111 -66.943,-110.432 -108.714,-98.914Z" style="fill:#ee4165;stroke:#000;stroke-width:12.5px;"/></g></svg>