<?xml version="1.0" encoding="UTF-8" standalone="no"?><!DOCTYPE svg PUBLIC "-//W3C//DTD SVG 1.1//EN" "http://www.w3.org/Graphics/SVG/1.1/DTD/svg11.dtd"><svg width="100%" height="100%" viewBox="0 0 2484 3509" version="1.1" xmlns="http://www.w3.org/2000/svg" xmlns:xlink="http://www.w3.org/1999/xlink" xml:space="preserve"  style="fill-rule:evenodd;clip-rule:evenodd;stroke-linecap:round;stroke-linejoin:round;stroke-miterlimit:1.5;"><path d="M2483.33,147.433c0,-81.37 -66.062,-147.433 -147.433,-147.433l-2188.47,0c-81.37,0 -147.433,66.063 -147.433,147.433l0,3213.47c0,81.371 66.063,147.433 147.433,147.433l2188.47,0c81.371,0 147.433,-66.062 147.433,-147.433l0,-3213.47Z" style="fill:#fff;stroke:#000;stroke-width:16.5px;"/><path d="M1611.19,2586.51c-4.707,14.351 -83.552,113.44 -64.512,166.519c8.582,23.925 115.183,182.283 215.272,11.73c43.931,-74.859 -39.711,-170.519 -39.711,-170.519c0,0 62.548,48.938 113.922,38.603c86.794,-17.462 142.805,-205.689 -1.335,-209.003c-100.509,-2.312 -113.301,32.529 -113.301,32.529c0,0 -23.587,-159.769 27.169,-183.477c15.945,-7.448 -178.527,0 -178.527,0c0,0 60.274,209.167 39.305,189.272c-22.28,-21.138 -75.064,-25.797 -110.201,-29.101c-102.793,-9.664 -135.74,131.964 -86.19,179.793c74.907,72.306 202.816,-40.697 198.109,-26.346Z" style="stroke:#484848;stroke-width:18.75px;"/><text x="129.187px" y="503.058px" style="font-family:'Mitr-ExtraLight', 'Mitr ExtraLight';font-weight:275;font-size:469.34px;">K</text><path d="M311.565,765.375c3.44,-10.643 61.063,-84.127 47.148,-123.491c-6.272,-17.743 -84.18,-135.181 -157.329,-8.699c-32.107,55.516 29.022,126.457 29.022,126.457c0,0 -45.712,-36.293 -83.258,-28.628c-63.432,12.95 -104.367,152.539 0.976,154.997c73.455,1.714 82.804,-24.124 82.804,-24.124c0,0 17.239,118.486 -19.856,136.067c-11.653,5.524 130.474,0 130.474,0c0,0 -44.05,-155.118 -28.725,-140.364c16.283,15.676 54.859,19.131 80.539,21.581c75.124,7.167 99.204,-97.864 62.991,-133.335c-54.745,-53.622 -148.226,30.181 -144.786,19.539Z" style="stroke:#484848;stroke-width:18.75px;"/><path d="M860.389,694.796c4.707,-14.351 83.552,-113.439 64.512,-166.519c-8.582,-23.924 -115.183,-182.282 -215.272,-11.729c-43.931,74.859 39.711,170.518 39.711,170.518c0,0 -62.548,-48.938 -113.921,-38.602c-86.794,17.462 -142.805,205.689 1.334,209.003c100.509,2.311 113.301,-32.53 113.301,-32.53c0,0 23.588,159.77 -27.168,183.477c-15.946,7.448 178.526,0 178.526,0c0,0 -60.274,-209.166 -39.305,-189.272c22.281,21.139 75.065,25.798 110.202,29.101c102.792,9.665 135.74,-131.963 86.19,-179.793c-74.907,-72.305 -202.817,40.697 -198.11,26.346Z" style="stroke:#484848;stroke-width:18.75px;"/><g transform="matrix(-1,1.22465e-16,-1.22465e-16,-1,5067.19,8020.88)"><text x="2733.83px" y="5012.28px" style="font-family:'Mitr-ExtraLight', 'Mitr ExtraLight';font-weight:275;font-size:469.34px;">K</text></g><path d="M2150.98,2746.28c-3.44,10.642 -61.063,84.126 -47.148,123.49c6.272,17.743 84.18,135.181 157.329,8.699c32.106,-55.515 -29.023,-126.457 -29.023,-126.457c0,0 45.713,36.293 83.259,28.628c63.432,-12.95 104.367,-152.539 -0.976,-154.997c-73.455,-1.714 -82.804,24.124 -82.804,24.124c-0,-0 -17.239,-118.486 19.856,-136.067c11.653,-5.523 -130.474,-0 -130.474,-0c-0,-0 44.05,155.118 28.725,140.364c-16.283,-15.676 -54.86,-19.131 -80.539,-21.581c-75.125,-7.167 -99.204,97.865 -62.991,133.335c54.745,53.622 148.226,-30.181 144.786,-19.538Z" style="stroke:#484848;stroke-width:18.75px;"/><g><g><path d="M1606.29,2085.32c-35.103,37.661 -208.213,109.891 -227.148,197.709c-18.935,87.818 -20.605,206.138 -222.029,335.471c-201.424,129.332 -559.215,-141.235 -533.049,-251.141c26.166,-109.907 35.931,-168.197 105.2,-206.393c69.268,-38.195 33.094,-133.844 29.77,-198.842c-3.324,-64.999 -17.498,-203.979 68.049,-325.079c85.547,-121.1 284.04,-306.655 459.085,-208.964c175.045,97.69 314.919,43.218 375.566,178.227c60.648,135.009 86.44,261.91 60.75,317.956c-25.69,56.046 -81.092,123.396 -116.194,161.056Z" style="fill:#d09d86;stroke:#f8cea8;stroke-width:39.58px;"/><path d="M682.189,2365.13c37.191,79.733 61.139,250.974 345.392,231.073" style="fill:none;stroke:#000;stroke-width:250px;"/><path d="M1260.2,2296.54c-60.029,-53.859 -32.535,-180.662 -252.793,-137.277c-220.258,43.386 -156.566,10.704 -166.051,-1.94" style="fill:none;stroke:#000;stroke-width:116.67px;"/><path d="M1142.17,2354.74c-30.409,-46.721 -16.736,-71.276 -103.153,-83.408c-86.416,-12.131 -122.708,39.248 -153.087,16.01" style="fill:none;stroke:#000;stroke-width:39.58px;"/><path d="M1217.81,2034.82c-60.508,-29.999 -66.258,-0.027 -66.258,-0.027" style="fill:none;stroke:#000;stroke-width:18.75px;"/><path d="M1086.88,2004.14c-60.508,-29.999 -66.258,-0.027 -66.258,-0.027" style="fill:none;stroke:#000;stroke-width:18.75px;"/><path d="M1486.12,1808.47c20.302,9.634 29.285,33.26 20.047,52.726c-9.238,19.466 -33.22,27.448 -53.522,17.814c-20.302,-9.635 -29.285,-33.26 -20.047,-52.727c9.237,-19.466 33.22,-27.448 53.522,-17.813Z" style="stroke:#000;stroke-width:18.75px;"/><path d="M1035.07,1637.63c20.302,9.634 29.285,33.26 20.047,52.726c-9.238,19.466 -33.22,27.448 -53.522,17.814c-20.302,-9.635 -29.285,-33.261 -20.047,-52.727c9.238,-19.466 33.22,-27.448 53.522,-17.813Z" style="stroke:#000;stroke-width:18.75px;"/><path d="M1737.41,1706.49c-51.151,91.38 -33.314,130.413 -87.438,134.386" style="fill:none;stroke:#000;stroke-width:141.67px;"/><path d="M1704.65,1621.62c-80.608,67.744 -77.428,110.059 -130.122,95.508" style="fill:none;stroke:#000;stroke-width:141.67px;"/><path d="M1031.72,1371.6c-133.856,118.91 -381.62,647.96 -562.927,559.02" style="fill:none;stroke:#000;stroke-width:187.5px;"/><path d="M1061.61,1395.09c-133.683,19.446 -493.462,300.916 -583.634,128.618" style="fill:none;stroke:#000;stroke-width:187.5px;"/><path d="M1065.36,1415.32c-100.845,-49.409 -496.745,6.332 -464.022,-179.704" style="fill:none;stroke:#000;stroke-width:187.5px;"/><path d="M1443.7,1569.18c91.177,20.883 138.514,77.014 190.293,90.305c51.779,13.291 84.354,209.549 140.293,66.577c55.94,-142.972 -15.349,-111.843 58.929,-224.736c74.278,-112.893 196.025,-304.217 196.025,-304.217l-270.207,198.889l107.592,-459.321l-289.706,351.78l130.508,-628.68l-345.104,540.628l-32.928,-435.029l-117.647,413.655l-90.531,-309.556l-98.33,293.795l-82.822,-175.828c-0,-0 22.648,270.82 -17.828,301.329c-40.476,30.51 -200.347,120.3 -66.532,140.198c133.815,19.898 342.638,23.775 342.638,23.775c0,0 154.18,95.553 245.357,116.436Z" style="fill:#eeac65;stroke:#000;stroke-width:37.5px;"/></g><path d="M2038.33,1151.09c34.602,6.836 57.128,40.569 50.27,75.282c-6.859,34.713 -40.52,57.346 -75.122,50.509c-34.603,-6.836 -57.129,-40.569 -50.27,-75.282c6.858,-34.713 40.519,-57.346 75.122,-50.509Z" style="fill:#e9be82;"/><path d="M1864.03,869.56c34.603,6.837 57.128,40.569 50.27,75.283c-6.858,34.713 -40.519,57.345 -75.122,50.509c-34.603,-6.837 -57.128,-40.569 -50.27,-75.283c6.858,-34.713 40.519,-57.345 75.122,-50.509Z" style="fill:#e9be82;"/><path d="M1725.17,612.87c46.877,18.632 60.693,94.752 30.833,169.878c-29.86,75.126 -92.16,120.992 -139.037,102.36c-46.877,-18.632 -60.693,-94.752 -30.833,-169.878c29.86,-75.126 92.16,-120.991 139.037,-102.36Z" style="fill:#e9be82;"/><path d="M1335.36,682.665c34.603,6.837 57.128,40.569 50.27,75.283c-6.858,34.713 -40.519,57.345 -75.122,50.509c-34.603,-6.837 -57.128,-40.569 -50.27,-75.283c6.858,-34.713 40.519,-57.345 75.122,-50.509Z" style="fill:#e9be82;"/><path d="M1116.85,806.641c34.603,6.836 57.128,40.569 50.27,75.282c-6.858,34.713 -40.519,57.345 -75.122,50.509c-34.603,-6.836 -57.128,-40.569 -50.27,-75.282c6.858,-34.713 40.519,-57.346 75.122,-50.509Z" style="fill:#e9be82;"/><path d="M952.649,928.376c34.603,6.836 57.128,40.569 50.27,75.282c-6.858,34.714 -40.519,57.346 -75.122,50.51c-34.603,-6.837 -57.128,-40.57 -50.27,-75.283c6.858,-34.713 40.519,-57.345 75.122,-50.509Z" style="fill:#e9be82;"/></g></svg>