<?xml version="1.0" encoding="UTF-8" standalone="no"?><!DOCTYPE svg PUBLIC "-//W3C//DTD SVG 1.1//EN" "http://www.w3.org/Graphics/SVG/1.1/DTD/svg11.dtd"><svg width="100%" height="100%" viewBox="0 0 2481 3508" version="1.1" xmlns="http://www.w3.org/2000/svg" xmlns:xlink="http://www.w3.org/1999/xlink" xml:space="preserve"  style="fill-rule:evenodd;clip-rule:evenodd;stroke-linecap:round;stroke-linejoin:round;stroke-miterlimit:1.5;"><g id="XMLID_1_"></g><path d="M2483.33,147.433c0,-81.37 -66.062,-147.433 -147.433,-147.433l-2188.47,0c-81.37,0 -147.433,66.063 -147.433,147.433l0,3213.47c0,81.371 66.063,147.433 147.433,147.433l2188.47,0c81.371,0 147.433,-66.062 147.433,-147.433l0,-3213.47Z" style="fill:#fff;stroke:#000;stroke-width:16.5px;"/><path d="M1765.22,964.399l222.99,295.665l-222.99,295.665l-222.989,-295.665l222.989,-295.665Z" style="fill:#f00;"/><path d="M774.277,964.399l222.99,295.665l-222.99,295.665l-222.99,-295.665l222.99,-295.665Z" style="fill:#f00;"/><path d="M2193.08,2501.06l203.451,217.669l-203.451,217.668l-203.451,-217.668l203.451,-217.669Z" style="fill:#f00;"/><path d="M278.203,575.259l203.451,217.669l-203.451,217.668l-203.452,-217.668l203.452,-217.669Z" style="fill:#f00;"/><text x="129.187px" y="503.058px" style="font-family:'Mitr-ExtraLight', 'Mitr ExtraLight';font-weight:275;font-size:469.34px;">5</text><path d="M774.277,1962.63l222.99,295.665l-222.99,295.665l-222.99,-295.665l222.99,-295.665Z" style="fill:#f00;"/><path d="M1765.22,1977.25l222.99,295.665l-222.99,295.665l-222.989,-295.665l222.989,-295.665Z" style="fill:#f00;"/><g transform="matrix(-1,1.22465e-16,-1.22465e-16,-1,5067.19,8020.88)"><text x="2733.83px" y="5012.28px" style="font-family:'Mitr-ExtraLight', 'Mitr ExtraLight';font-weight:275;font-size:469.34px;">5</text></g><path d="M1240.17,1371.68l222.989,295.665l-222.989,295.665l-222.99,-295.665l222.99,-295.665Z" style="fill:#f00;"/></svg>