<?xml version="1.0" encoding="UTF-8" standalone="no"?><!DOCTYPE svg PUBLIC "-//W3C//DTD SVG 1.1//EN" "http://www.w3.org/Graphics/SVG/1.1/DTD/svg11.dtd"><svg width="100%" height="100%" viewBox="0 0 2481 3508" version="1.1" xmlns="http://www.w3.org/2000/svg" xmlns:xlink="http://www.w3.org/1999/xlink" xml:space="preserve" style="fill-rule:evenodd;clip-rule:evenodd;stroke-linecap:round;stroke-linejoin:round;stroke-miterlimit:1.5;"><g id="XMLID_1_"></g><path d="M2483.33,147.433c0,-81.37 -66.062,-147.433 -147.433,-147.433l-2188.47,0c-81.37,0 -147.433,66.063 -147.433,147.433l0,3213.47c0,81.371 66.063,147.433 147.433,147.433l2188.47,0c81.371,0 147.433,-66.062 147.433,-147.433l0,-3213.47Z" style="fill:#fff;stroke:#000;stroke-width:16.5px;"/><path d="M1068.92,1050.2c-69.07,-205.856 -210.67,-242.116 -210.67,-242.116c-28.114,30.404 -102.447,76.742 -140.061,261.385c-4.913,24.122 -13.333,151.558 60.282,140.868c42.043,-6.106 92.884,-21.705 92.884,-21.705c-0,-0 15.704,178.109 -5.293,212.87c-20.998,34.76 48.526,13.206 66.965,9.598c18.439,-3.607 -1.529,-223.936 -1.529,-223.936c0,0 45.934,16.445 96.713,7.728c62.015,-10.645 48.152,-122.507 40.709,-144.692Z" style="stroke:#505050;stroke-width:16.67px;"/><path d="M1415.19,1627.66c-69.069,-205.855 -210.669,-242.116 -210.669,-242.116c-28.114,30.405 -102.447,76.743 -140.061,261.385c-4.914,24.122 -13.333,151.558 60.281,140.868c42.043,-6.106 92.885,-21.705 92.885,-21.705c-0,-0 15.703,178.109 -5.294,212.87c-20.997,34.76 48.526,13.206 66.966,9.599c18.439,-3.608 -1.529,-223.937 -1.529,-223.937c-0,0 45.934,16.445 96.713,7.728c62.015,-10.645 48.152,-122.507 40.708,-144.692Z" style="stroke:#505050;stroke-width:16.67px;"/><path d="M1761.46,1043.16c-69.069,-205.856 -210.67,-242.116 -210.67,-242.116c-28.113,30.404 -102.447,76.742 -140.06,261.385c-4.914,24.122 -13.333,151.558 60.281,140.868c42.043,-6.106 92.884,-21.705 92.884,-21.705c0,-0 15.704,178.109 -5.293,212.87c-20.997,34.76 48.526,13.206 66.965,9.598c18.44,-3.607 -1.529,-223.936 -1.529,-223.936c0,0 45.934,16.445 96.713,7.728c62.016,-10.645 48.152,-122.507 40.709,-144.692Z" style="stroke:#505050;stroke-width:16.67px;"/><path d="M1068.92,2251.51c-69.07,-205.856 -210.67,-242.117 -210.67,-242.117c-28.114,30.405 -102.447,76.743 -140.061,261.386c-4.913,24.122 -13.333,151.557 60.282,140.867c42.043,-6.105 92.884,-21.705 92.884,-21.705c-0,0 15.704,178.11 -5.293,212.87c-20.998,34.761 48.526,13.206 66.965,9.599c18.439,-3.607 -1.529,-223.936 -1.529,-223.936c0,-0 45.934,16.445 96.713,7.728c62.015,-10.646 48.152,-122.507 40.709,-144.692Z" style="stroke:#505050;stroke-width:16.67px;"/><path d="M1761.46,2240.59c-69.069,-205.856 -210.67,-242.116 -210.67,-242.116c-28.113,30.404 -102.447,76.742 -140.06,261.385c-4.914,24.122 -13.333,151.558 60.281,140.867c42.043,-6.105 92.884,-21.705 92.884,-21.705c0,0 15.704,178.11 -5.293,212.871c-20.997,34.76 48.526,13.206 66.965,9.598c18.44,-3.607 -1.529,-223.936 -1.529,-223.936c0,0 45.934,16.445 96.713,7.728c62.016,-10.645 48.152,-122.507 40.709,-144.692Z" style="stroke:#505050;stroke-width:16.67px;"/><path d="M2071.55,2772.96c46.624,138.958 142.208,163.435 142.208,163.435c18.978,-20.524 69.155,-51.803 94.545,-176.442c3.317,-16.283 9,-102.306 -40.691,-95.09c-28.38,4.121 -62.7,14.652 -62.7,14.652c0,-0 -10.6,-120.229 3.573,-143.694c14.174,-23.464 -32.756,-8.914 -45.203,-6.479c-12.447,2.435 1.032,151.163 1.032,151.163c-0,0 -31.007,-11.101 -65.284,-5.216c-41.862,7.186 -32.504,82.695 -27.48,97.671Z" style="stroke:#505050;stroke-width:16.67px;"/><path d="M395.337,749.492c-46.624,-138.958 -142.208,-163.435 -142.208,-163.435c-18.978,20.524 -69.155,51.803 -94.545,176.442c-3.317,16.283 -9,102.306 40.691,95.09c28.381,-4.122 62.7,-14.652 62.7,-14.652c-0,0 10.6,120.229 -3.573,143.694c-14.174,23.464 32.756,8.914 45.203,6.479c12.447,-2.435 -1.032,-151.163 -1.032,-151.163c0,-0 31.007,11.1 65.284,5.216c41.862,-7.186 32.504,-82.696 27.48,-97.671Z" style="stroke:#505050;stroke-width:16.67px;"/><text x="129.187px" y="503.058px" style="font-family:'Mitr-ExtraLight', 'Mitr ExtraLight';font-weight:275;font-size:469.34px;">5</text><g transform="matrix(-1,1.22465e-16,-1.22465e-16,-1,5067.19,8020.88)"><text x="2733.83px" y="5012.28px" style="font-family:'Mitr-ExtraLight', 'Mitr ExtraLight';font-weight:275;font-size:469.34px;">5</text></g></svg>