<?xml version="1.0" encoding="UTF-8" standalone="no"?><!DOCTYPE svg PUBLIC "-//W3C//DTD SVG 1.1//EN" "http://www.w3.org/Graphics/SVG/1.1/DTD/svg11.dtd"><svg width="100%" height="100%" viewBox="0 0 438 615" version="1.1" xmlns="http://www.w3.org/2000/svg" xmlns:xlink="http://www.w3.org/1999/xlink" xml:space="preserve"  style="fill-rule:evenodd;clip-rule:evenodd;stroke-linecap:round;stroke-linejoin:round;stroke-miterlimit:1.5;"><path d="M71.473,31.519c-21.321,11.391 -43.057,39.169 -43.057,39.169l118.712,215.414c-0,-0 -135.643,253.934 -127.658,275.261c7.986,21.328 46.416,50.196 56.681,30.91c10.265,-19.286 133.271,-264.549 133.271,-264.549c-0,-0 140.309,255.491 151.416,260.514c11.106,5.024 62.521,-8.727 62.69,-21.332c0.169,-12.605 -153.086,-282.853 -153.029,-282.853c0.056,-0 148.933,-235.351 148.933,-235.351c0,0 -24.862,-48.545 -47.294,-26.968c-22.432,21.577 -162.895,247.486 -162.895,247.486c-0,-0 -116.45,-249.092 -137.77,-237.701Z" style="fill:#ff002a;stroke:#231f20;stroke-width:0.75px;"/></svg>