<?xml version="1.0" encoding="UTF-8" standalone="no"?><!DOCTYPE svg PUBLIC "-//W3C//DTD SVG 1.1//EN" "http://www.w3.org/Graphics/SVG/1.1/DTD/svg11.dtd"><svg width="100%" height="100%" viewBox="0 0 2481 3508" version="1.1" xmlns="http://www.w3.org/2000/svg" xmlns:xlink="http://www.w3.org/1999/xlink" xml:space="preserve" style="fill-rule:evenodd;clip-rule:evenodd;stroke-linecap:round;stroke-linejoin:round;stroke-miterlimit:1.5;"><g id="XMLID_1_"></g><path d="M2483.33,147.433c0,-81.37 -66.062,-147.433 -147.433,-147.433l-2188.47,0c-81.37,0 -147.433,66.063 -147.433,147.433l0,3213.47c0,81.371 66.063,147.433 147.433,147.433l2188.47,0c81.371,0 147.433,-66.062 147.433,-147.433l0,-3213.47Z" style="fill:#fff;stroke:#000;stroke-width:16.5px;"/><path d="M1662.87,1355.28c0,0 236.606,-146.722 238.138,-292.846c1.142,-108.986 -40.414,-245.123 -161.84,-187.989c-121.425,57.135 -108.655,133.451 -108.655,133.451c0,-0 -67.648,-134.609 -142.997,-89.775c-75.349,44.834 -89.212,128.839 -66.429,197.134c36.143,108.345 241.783,240.025 241.783,240.025Z" style="fill:#fb2500;stroke:#505050;stroke-width:16.67px;"/><path d="M831.062,1355.28c-0,0 236.606,-146.722 238.137,-292.846c1.143,-108.986 -40.414,-245.123 -161.839,-187.989c-121.426,57.135 -108.656,133.451 -108.656,133.451c0,-0 -67.648,-134.609 -142.996,-89.775c-75.349,44.834 -89.212,128.839 -66.43,197.134c36.143,108.345 241.784,240.025 241.784,240.025Z" style="fill:#fb2500;stroke:#505050;stroke-width:16.67px;"/><path d="M1662.87,2432.05c0,-0 236.606,-146.723 238.138,-292.846c1.142,-108.987 -40.414,-245.123 -161.84,-187.989c-121.425,57.134 -108.655,133.451 -108.655,133.451c0,-0 -67.648,-134.609 -142.997,-89.775c-75.349,44.834 -89.212,128.839 -66.429,197.134c36.143,108.345 241.783,240.025 241.783,240.025Z" style="fill:#fb2500;stroke:#505050;stroke-width:16.67px;"/><path d="M831.062,2432.05c-0,-0 236.606,-146.723 238.137,-292.846c1.143,-108.987 -40.414,-245.123 -161.839,-187.989c-121.426,57.134 -108.656,133.451 -108.656,133.451c0,-0 -67.648,-134.609 -142.996,-89.775c-75.349,44.834 -89.212,128.839 -66.43,197.134c36.143,108.345 241.784,240.025 241.784,240.025Z" style="fill:#fb2500;stroke:#505050;stroke-width:16.67px;"/><path d="M288.399,1009.65c-0,-0 156.089,-125.045 157.099,-249.58c0.754,-92.884 -26.661,-208.908 -106.765,-160.215c-80.105,48.693 -71.68,113.734 -71.68,113.734c-0,0 -44.628,-114.721 -94.336,-76.511c-49.707,38.211 -58.853,109.804 -43.823,168.009c23.844,92.337 159.505,204.563 159.505,204.563Z" style="fill:#fb2500;stroke:#505050;stroke-width:16.67px;"/><path d="M2184.2,2515.11c0,-0 -156.089,125.045 -157.099,249.579c-0.754,92.885 26.661,208.908 106.765,160.215c80.105,-48.693 71.68,-113.734 71.68,-113.734c0,-0 44.628,114.721 94.335,76.511c49.708,-38.21 58.854,-109.804 43.824,-168.009c-23.844,-92.337 -159.505,-204.562 -159.505,-204.562Z" style="fill:#fb2500;stroke:#505050;stroke-width:16.67px;"/><text x="129.187px" y="503.058px" style="font-family:'Mitr-ExtraLight', 'Mitr ExtraLight';font-weight:275;font-size:469.34px;">4</text><g transform="matrix(-1,1.22465e-16,-1.22465e-16,-1,5067.19,8020.88)"><text x="2733.83px" y="5012.28px" style="font-family:'Mitr-ExtraLight', 'Mitr ExtraLight';font-weight:275;font-size:469.34px;">4</text></g></svg>