<?xml version="1.0" encoding="UTF-8" standalone="no"?><!DOCTYPE svg PUBLIC "-//W3C//DTD SVG 1.1//EN" "http://www.w3.org/Graphics/SVG/1.1/DTD/svg11.dtd"><svg width="100%" height="100%" viewBox="0 0 10338 14617" version="1.1" xmlns="http://www.w3.org/2000/svg" xmlns:xlink="http://www.w3.org/1999/xlink" xml:space="preserve"  style="fill-rule:evenodd;clip-rule:evenodd;stroke-linecap:round;stroke-linejoin:round;stroke-miterlimit:1.5;"><path d="M10347.2,614.304c0,-339.042 -275.258,-614.304 -614.304,-614.304l-9118.62,0c-339.042,0 -614.304,275.263 -614.304,614.304l-0,13389.5c-0,339.045 275.262,614.304 614.304,614.304l9118.62,-0c339.046,-0 614.304,-275.259 614.304,-614.305l0,-13389.5Z" style="fill:#fff;stroke:#000;stroke-width:68.75px;"/><path d="M3281.43,6596.72c-0,-0 -397.03,180.103 -363.22,390.663c33.811,210.555 -51.65,511.016 0,743.788c51.65,232.776 -201.674,406.959 -201.674,406.959" style="fill:none;stroke:#000;stroke-width:647.04px;"/><path d="M3224.85,10804.5l1996.23,733.524l1894.56,-1063.35l14.719,-1399.08l363.84,-1139.02l-515.946,-689.848l-308.377,-1430.73l-3206.49,1100.83l-393.633,0.976l185.985,845.777l-337.533,542.813l319.412,1007.67l-12.773,1490.43Z" style="fill:#ffbca6;stroke:#000;stroke-width:20.24px;"/><path d="M7232,6254.2c-0,0 -306.571,17.253 -412.579,342.517c-106.008,325.26 304.974,1045.31 304.974,1045.31" style="fill:none;stroke:#000;stroke-width:586.38px;"/><path d="M7173.18,6008.21c0,0 -236.111,196.302 -127.744,520.79c108.366,324.483 867.155,658.585 867.155,658.585" style="fill:none;stroke:#000;stroke-width:586.38px;"/><path d="M2631.42,3938.57l969.625,1857.27l-239.92,-2333.72l1181.93,1989.88l-0,-2095.54l1002.14,1886.91l368.184,-1945.02l638.629,1618.25l513.923,-1669.76l140.721,2569.12l-294.312,678.094l-1691.26,312.151l-1918.76,181.2l-384.116,-595.424l-286.785,-2453.42Z" style="fill:#ffe464;stroke:#000;stroke-width:111.23px;"/><path d="M3154.1,5959l-32.904,505.974l446.943,29.064l32.903,-505.973l-446.942,-29.065Z" style="fill:#efff67;stroke:#acff45;stroke-width:20.24px;"/><path d="M5545.21,5815.93l-588.522,-422.595l-413.618,576.021l588.518,422.595l413.622,-576.021Z" style="fill:#91faff;"/><path d="M6912.34,5884.46l-220.805,-432.481l-499.854,255.202l220.805,432.481l499.854,-255.202Z" style="fill:#ffddbc;"/><path d="M3892.88,6681.46l429.487,390.663l-429.487,390.663l-429.486,-390.663l429.486,-390.663Z" style="fill:#9aa1a0;stroke:#707070;stroke-width:60.66px;"/><path d="M5651.88,6596.72l429.487,390.663l-429.487,390.662l-429.486,-390.662l429.486,-390.663Z" style="fill:#9aa1a0;stroke:#707070;stroke-width:60.66px;"/><path d="M4844.15,8642.39c17.039,-8.639 26.007,-18.437 26.007,-28.41c0,-31.359 -86.979,-56.823 -194.118,-56.823c-107.134,0 -194.118,25.464 -194.118,56.823c0,9.973 8.973,19.771 26.007,28.41l336.222,-0Z" style="fill:#ebebeb;stroke:#00010d;stroke-width:50.57px;"/><path d="M5191.72,8676.94c9.492,-20.184 14.486,-43.08 14.486,-66.389c0,-73.275 -48.457,-132.767 -108.143,-132.767c-59.682,0 -108.138,59.492 -108.138,132.767c-0,23.309 4.993,46.205 14.486,66.389l187.309,-0Z" style="fill:#ebebeb;stroke:#00010d;stroke-width:80.9px;"/><path d="M4286.7,9536.84c-0,-0 151.567,-15.278 390.172,-218.985c225.876,-192.837 126.235,-41.803 332.627,-207.779c209.662,-168.611 389.367,30.617 389.367,30.617" style="fill:none;stroke:#000;stroke-width:151.65px;"/><path d="M3905.55,7046.88c87.475,-40.565 171.301,-45.88 187.076,-11.862c15.776,34.018 -42.436,94.57 -129.911,135.135c-87.475,40.565 -171.301,45.88 -187.076,11.862c-15.776,-34.018 42.436,-94.57 129.911,-135.135Z" style="fill:#616967;stroke:#000;stroke-width:60.66px;"/><ellipse cx="5681.19" cy="6978.26" rx="174.706" ry="67.941" style="fill:#78817f;stroke:#000;stroke-width:60.66px;"/><path d="M6993.48,2791.35l238.504,421.091l-180.705,433.897l-238.503,-421.09l180.704,-433.898Z" style="fill:#f00;"/><path d="M2615.34,3594.67l238.503,421.091l-180.704,433.898l-238.503,-421.091l180.704,-433.898Z" style="fill:#f00;"/><path d="M4805.09,2791.35l593.783,853.406l-850.98,617.01l-593.778,-853.407l850.975,-617.009Z" style="fill:#f00;"/><path d="M5922.24,2791.35l371.693,484.519l-386.227,457.09l-371.693,-484.519l386.227,-457.09Z" style="fill:#f00;"/><path d="M3117.33,3030.95l500.291,401.15l-57.236,590.061l-500.286,-401.145l57.231,-590.066Z" style="fill:#f00;"/><ellipse cx="5679.38" cy="6880.12" rx="217.263" ry="81.158" style="fill:none;"/><path d="M9084.33,10421.1l847.717,906.954l-847.717,906.951l-847.712,-906.951l847.712,-906.954Z" style="fill:#f00;"/><path d="M1159.18,2396.91l847.713,906.954l-847.713,906.95l-847.717,-906.95l847.717,-906.954Z" style="fill:#f00;"/><text x="538.279px" y="2096.07px" style="font-family:'Mitr-ExtraLight', 'Mitr ExtraLight';font-weight:275;font-size:1955.58px;">K</text><g><g transform="matrix(-1,1.22465e-16,-1.22465e-16,-1,19444.7,25071.7)"><text x="9722.33px" y="12535.8px" style="font-family:'Mitr-ExtraLight', 'Mitr ExtraLight';font-weight:275;font-size:1955.58px;">K</text></g></g></svg>