<?xml version="1.0" encoding="UTF-8" standalone="no"?><!DOCTYPE svg PUBLIC "-//W3C//DTD SVG 1.1//EN" "http://www.w3.org/Graphics/SVG/1.1/DTD/svg11.dtd"><svg width="100%" height="100%" viewBox="0 0 2481 3508" version="1.1" xmlns="http://www.w3.org/2000/svg" xmlns:xlink="http://www.w3.org/1999/xlink" xml:space="preserve"  style="fill-rule:evenodd;clip-rule:evenodd;stroke-linecap:round;stroke-linejoin:round;stroke-miterlimit:1.5;"><g id="XMLID_1_"></g><path d="M2483.33,147.433c0,-81.37 -66.062,-147.433 -147.433,-147.433l-2188.47,0c-81.37,0 -147.433,66.063 -147.433,147.433l0,3213.47c0,81.371 66.063,147.433 147.433,147.433l2188.47,0c81.371,0 147.433,-66.062 147.433,-147.433l0,-3213.47Z" style="fill:#fff;stroke:#000;stroke-width:16.5px;"/><path d="M551.116,1963.54c13.805,85.603 41.128,288.48 301.183,381.364c62.873,22.456 203.249,228.068 372.208,214.421c80.899,-6.534 152.866,18.254 452.89,-667.168c30.989,-70.796 160.934,-285.704 136.544,-350.865c-24.391,-65.16 4.42,-184.909 -127.689,-197.655c-132.109,-12.746 -1083.11,-10.451 -1161.44,71.912c-148.36,155.985 12.503,462.389 26.307,547.991Z" style="fill:#ffb9df;stroke:#ffce23;stroke-width:58.33px;"/><path d="M429.712,1800.07c39.122,-106.994 99.442,-286.569 116.724,-297.391c17.282,-10.822 -207.385,88.13 -207.385,88.13" style="fill:none;stroke:#ffce23;stroke-width:204.17px;"/><path d="M1728.47,1337.88c-37.078,107.72 96.907,-0.188 44.305,301.877c-3.498,20.089 117.428,160.308 117.428,160.308" style="fill:none;stroke:#ffce23;stroke-width:204.17px;"/><path d="M1045.59,2310.28c51.899,3.505 179.086,-73.926 227.023,-81.179c47.937,-7.253 -1.959,45.201 41.172,49.149" style="fill:none;stroke:#000;stroke-width:129.17px;"/><path d="M1213.11,2050.4c0,-0 -78.134,-14.348 -65.439,13.289" style="fill:none;stroke:#000;stroke-width:58.33px;"/><path d="M784.415,1815.15c48.799,4.747 86.652,26.762 84.476,49.133c-2.176,22.37 -43.561,36.679 -92.361,31.932c-48.799,-4.746 -86.652,-26.761 -84.476,-49.132c2.176,-22.37 43.561,-36.679 92.361,-31.933Z" style="fill:#1eb9df;stroke:#000;stroke-width:22.92px;"/><path d="M1403.8,1760.41c46.281,-25.365 94.786,-26.014 108.25,-1.448c13.463,24.565 -13.18,65.103 -59.461,90.468c-46.28,25.366 -94.785,26.015 -108.249,1.449c-13.464,-24.566 13.179,-65.103 59.46,-90.469Z" style="fill:#14b9df;stroke:#000;stroke-width:66.67px;"/><path d="M1010.97,2050.4c14.477,6.58 67.821,13.289 67.821,13.289" style="fill:none;stroke:#000;stroke-width:62.5px;"/><path d="M941.365,696.585c-69.069,-205.855 -210.669,-242.116 -210.669,-242.116c-28.114,30.405 -102.447,76.742 -140.061,261.385c-4.914,24.122 -13.333,151.558 60.281,140.868c42.043,-6.106 92.885,-21.705 92.885,-21.705c-0,-0 15.703,178.109 -5.294,212.87c-20.997,34.76 48.526,13.206 66.966,9.599c18.439,-3.608 -1.529,-223.937 -1.529,-223.937c-0,0 45.934,16.445 96.713,7.728c62.015,-10.645 48.152,-122.507 40.708,-144.692Z" style="stroke:#505050;stroke-width:16.67px;"/><path d="M1539.13,2787.95c69.069,205.856 210.669,242.117 210.669,242.117c28.114,-30.405 102.447,-76.743 140.061,-261.386c4.914,-24.122 13.333,-151.558 -60.281,-140.867c-42.043,6.105 -92.885,21.705 -92.885,21.705c0,-0 -15.703,-178.11 5.294,-212.87c20.997,-34.761 -48.526,-13.207 -66.966,-9.599c-18.439,3.607 1.529,223.936 1.529,223.936c0,0 -45.934,-16.445 -96.713,-7.728c-62.015,10.646 -48.152,122.507 -40.708,144.692Z" style="stroke:#505050;stroke-width:16.67px;"/><path d="M2071.55,2772.96c46.624,138.958 142.208,163.435 142.208,163.435c18.978,-20.524 69.155,-51.803 94.545,-176.442c3.317,-16.283 9,-102.306 -40.691,-95.09c-28.38,4.121 -62.7,14.652 -62.7,14.652c0,-0 -10.6,-120.229 3.573,-143.694c14.174,-23.464 -32.756,-8.914 -45.203,-6.479c-12.447,2.435 1.032,151.163 1.032,151.163c-0,0 -31.007,-11.101 -65.284,-5.216c-41.862,7.186 -32.504,82.695 -27.48,97.671Z" style="stroke:#505050;stroke-width:16.67px;"/><path d="M395.337,749.492c-46.624,-138.958 -142.208,-163.435 -142.208,-163.435c-18.978,20.524 -69.155,51.803 -94.545,176.442c-3.317,16.283 -9,102.306 40.691,95.09c28.381,-4.122 62.7,-14.652 62.7,-14.652c-0,0 10.6,120.229 -3.573,143.694c-14.174,23.464 32.756,8.914 45.203,6.479c12.447,-2.435 -1.032,-151.163 -1.032,-151.163c0,-0 31.007,11.1 65.284,5.216c41.862,-7.186 32.504,-82.696 27.48,-97.671Z" style="stroke:#505050;stroke-width:16.67px;"/><text x="129.187px" y="503.058px" style="font-family:'Mitr-ExtraLight', 'Mitr ExtraLight';font-weight:275;font-size:469.34px;">J</text><g transform="matrix(-1,1.22465e-16,-1.22465e-16,-1,5067.19,8020.88)"><text x="2733.83px" y="5012.28px" style="font-family:'Mitr-ExtraLight', 'Mitr ExtraLight';font-weight:275;font-size:469.34px;">J</text></g><g><path d="M516.42,1511.6c-0,-0 1305.15,161.034 1275.6,-118.104c-29.555,-279.139 -9.699,-461.845 -9.699,-461.845l-102.269,184.795l-131.451,-216.597l-117.56,192.378l-172.965,-238.669l-152.165,273.359l-150.362,-153.113l-66.262,196.673l-219.929,-122.718l4.973,135.75l-227.423,6.745l69.513,321.346Z" style="fill:#f79700;stroke:#ac8000;stroke-width:41.67px;"/><ellipse cx="1542.29" cy="899.844" rx="67.027" ry="76.175" style="fill:#e982de;"/><ellipse cx="1249.21" cy="862.672" rx="95.344" ry="113.347" style="fill:#e982de;"/><path d="M1786.39,901.295c29.192,8.017 45.379,47.008 36.121,87.025c-9.254,40.017 -40.471,65.996 -69.667,57.983c-29.192,-8.012 -45.379,-47.008 -36.125,-87.025c9.258,-40.016 40.475,-65.996 69.671,-57.983Z" style="fill:#c482e9;stroke:#e5aaaa;stroke-width:3.54px;"/><path d="M506.184,1147.37c29.754,44.858 27.35,100.487 -5.367,124.154c-32.717,23.667 -83.433,6.463 -113.187,-38.396c-29.755,-44.854 -27.35,-100.487 5.366,-124.154c32.717,-23.667 83.434,-6.462 113.188,38.396Z" style="fill:#d982e9;stroke:#e5aaaa;stroke-width:3.54px;"/><path d="M734.03,1006.03c23.887,36.617 16.533,85.388 -16.413,108.842c-32.95,23.458 -79.096,12.771 -102.983,-23.842c-23.892,-36.616 -16.538,-85.387 16.412,-108.841c32.946,-23.459 79.092,-12.775 102.984,23.841Z" style="fill:#e9be82;stroke:#e5aaaa;stroke-width:3.54px;"/><path d="M893.35,1021.76c-12.383,-49.37 4.484,-97.379 37.642,-107.141c33.163,-9.763 70.133,22.396 82.517,71.766c12.383,49.375 -4.484,97.384 -37.642,107.146c-33.162,9.763 -70.133,-22.396 -82.517,-71.771Z" style="fill:#e982de;stroke:#e5aaaa;stroke-width:3.54px;"/></g><path d="M1119.71,2303.05c20.204,-2.88 96.122,-97.68 159.276,-57.285" style="fill:none;stroke:#fdfaf2;stroke-width:37.5px;"/></svg>