<?xml version="1.0" encoding="UTF-8" standalone="no"?><!DOCTYPE svg PUBLIC "-//W3C//DTD SVG 1.1//EN" "http://www.w3.org/Graphics/SVG/1.1/DTD/svg11.dtd"><svg width="100%" height="100%" viewBox="0 0 2481 3508" version="1.1" xmlns="http://www.w3.org/2000/svg" xmlns:xlink="http://www.w3.org/1999/xlink" xml:space="preserve"  style="fill-rule:evenodd;clip-rule:evenodd;stroke-linecap:round;stroke-linejoin:round;stroke-miterlimit:1.5;"><g id="XMLID_1_"></g><path d="M2483.33,147.433c0,-81.37 -66.062,-147.433 -147.433,-147.433l-2188.47,0c-81.37,0 -147.433,66.063 -147.433,147.433l0,3213.47c0,81.371 66.063,147.433 147.433,147.433l2188.47,0c81.371,0 147.433,-66.062 147.433,-147.433l0,-3213.47Z" style="fill:#fff;stroke:#000;stroke-width:16.5px;"/><path d="M2180.24,2501.06l203.452,217.669l-203.452,217.668l-203.451,-217.668l203.451,-217.669Z" style="fill:#f00;"/><path d="M278.203,575.259l203.451,217.669l-203.451,217.668l-203.452,-217.668l203.452,-217.669Z" style="fill:#f00;"/><text x="129.187px" y="503.058px" style="font-family:'Mitr-ExtraLight', 'Mitr ExtraLight';font-weight:275;font-size:469.34px;">Q</text><g transform="matrix(-1,1.22465e-16,-1.22465e-16,-1,5067.19,8020.88)"><text x="2733.83px" y="5012.28px" style="font-family:'Mitr-ExtraLight', 'Mitr ExtraLight';font-weight:275;font-size:469.34px;">Q</text></g><path d="M1340.76,2547.81c98.978,47.35 403.426,172.647 465.823,175.458c62.397,2.811 170.312,-106.964 164.733,-174.2c-5.58,-67.235 -80.353,-276.522 -71.865,-360.72c8.489,-84.198 66.727,-270.856 -3.286,-502.421c-13.536,-44.769 -203.916,-275.403 -473.81,-273.641c-269.893,1.762 -686.675,132.882 -655.435,360.142c31.241,227.26 271.809,538.057 341.45,589.407c69.641,51.35 133.412,138.624 232.39,185.975Z" style="fill:#d09d86;stroke:#f8cea8;stroke-width:54.17px;"/><path d="M894.451,1570.95c-77.609,160.391 -324.62,329.451 178.993,732.644" style="fill:none;stroke:#fffd5e;stroke-width:229.17px;"/><path d="M1006.21,1570.95c-142.845,106.507 -439.991,142.561 -179.149,732.606" style="fill:none;stroke:#fffd5e;stroke-width:229.17px;"/><path d="M1631.56,1412.28c60.515,76.301 104.364,119.213 136.117,180.763" style="fill:none;stroke:#fffd5e;stroke-width:208.33px;"/><path d="M1631.56,1349.34c94.194,24.729 155.02,32.747 217.354,62.932" style="fill:none;stroke:#fffd5e;stroke-width:208.33px;"/><g><path d="M787.902,1838.66l901.142,-352.269l-212.671,-633.42l-95.035,359.335l-430.064,-235.538l-50.401,357.489l-343.125,-286.169l85.93,432.11l-229.265,-255.133l373.489,613.595Z" style="fill:#ffa86c;stroke:#000;stroke-width:4.17px;"/><path d="M911.384,847.757l182.925,91.354l-66.625,193.308l-182.925,-91.354l66.625,-193.308Z" style="fill:#f00;"/><path d="M1428.83,731.44l159.17,128.341l-106.403,174.6l-159.171,-128.341l106.404,-174.6Z" style="fill:#f00;"/><path d="M563.008,934.768l175.626,104.701l-80.813,187.819l-175.626,-104.701l80.813,-187.819Z" style="fill:#f00;"/><path d="M324.984,1157.64l202.491,28.359l-1.612,204.461l-202.491,-28.36l1.612,-204.46Z" style="fill:#f00;"/></g><path d="M1015.73,1988.35c80.409,7.789 156.672,17.059 168.222,-71.631" style="fill:none;stroke:#000;stroke-width:54.17px;"/><ellipse cx="1614.28" cy="2144.57" rx="17.717" ry="16.864" style="fill:none;stroke:#000;stroke-width:20.83px;"/><ellipse cx="1548.93" cy="2178.3" rx="17.717" ry="16.864" style="fill:none;stroke:#000;stroke-width:20.83px;"/><path d="M1483.58,1818.31c76.874,-24.834 150.534,-46.659 125.858,-132.626" style="fill:none;stroke:#000;stroke-width:54.17px;"/><path d="M1628.54,1742.69c53.761,11.995 31.607,17.717 60.421,-0" style="fill:none;stroke:#000;stroke-width:54.17px;"/><path d="M1575.47,1792.25c39.798,38.083 17.88,31.516 51.704,31.264" style="fill:none;stroke:#000;stroke-width:54.17px;"/><path d="M1517.6,1835.57c35.058,42.487 14.061,33.396 47.681,37.112" style="fill:none;stroke:#000;stroke-width:54.17px;"/><path d="M1208.32,1937.54c50.124,22.844 27.266,23.866 59.118,12.484" style="fill:none;stroke:#000;stroke-width:54.17px;"/><path d="M1163.26,1978.05c23.949,49.605 5.716,35.781 37.488,47.385" style="fill:none;stroke:#000;stroke-width:54.17px;"/><path d="M1080.98,1998.49c-9.635,54.235 -16.32,32.352 2.639,60.364" style="fill:none;stroke:#000;stroke-width:54.17px;"/><path d="M1780.99,2307.76c-40.884,3.803 -62.858,-9.788 -63.659,28.748c-0.801,38.535 0,79.112 0,79.112c0,-0 -67.228,-20.974 -90.158,-0c-22.931,20.973 5.6,69.226 4.407,80.901c-1.193,11.675 84.141,65.535 139.315,9.144c55.174,-56.39 50.979,-201.708 10.095,-197.905Z" style="fill:none;stroke:#ff3bda;stroke-width:162.5px;"/><path d="M1767.67,2373.18c-65.824,44.715 -40.111,103.762 -100.682,79.014" style="fill:none;stroke:#000;stroke-width:20.83px;"/></svg>