<?xml version="1.0" encoding="UTF-8" standalone="no"?><!DOCTYPE svg PUBLIC "-//W3C//DTD SVG 1.1//EN" "http://www.w3.org/Graphics/SVG/1.1/DTD/svg11.dtd"><svg width="100%" height="100%" viewBox="0 0 2481 3508" version="1.1" xmlns="http://www.w3.org/2000/svg" xmlns:xlink="http://www.w3.org/1999/xlink" xml:space="preserve"  style="fill-rule:evenodd;clip-rule:evenodd;stroke-linecap:round;stroke-linejoin:round;stroke-miterlimit:1.5;"><g id="XMLID_1_"></g><path d="M2483.33,147.433c0,-81.37 -66.062,-147.433 -147.433,-147.433l-2188.47,0c-81.37,0 -147.433,66.063 -147.433,147.433l0,3213.47c0,81.371 66.063,147.433 147.433,147.433l2188.47,0c81.371,0 147.433,-66.062 147.433,-147.433l0,-3213.47Z" style="fill:#fff;stroke:#000;stroke-width:16.5px;"/><text x="129.187px" y="503.058px" style="font-family:'Mitr-ExtraLight', 'Mitr ExtraLight';font-weight:275;font-size:469.34px;">6</text><path d="M311.565,765.375c3.44,-10.643 61.063,-84.127 47.148,-123.491c-6.272,-17.743 -84.18,-135.181 -157.329,-8.699c-32.107,55.516 29.022,126.457 29.022,126.457c0,0 -45.712,-36.293 -83.258,-28.628c-63.432,12.95 -104.367,152.539 0.976,154.997c73.455,1.714 82.804,-24.124 82.804,-24.124c0,0 17.239,118.486 -19.856,136.067c-11.653,5.524 130.474,0 130.474,0c0,0 -44.05,-155.118 -28.725,-140.364c16.283,15.676 54.859,19.131 80.539,21.581c75.124,7.167 99.204,-97.864 62.991,-133.335c-54.745,-53.622 -148.226,30.181 -144.786,19.539Z" style="stroke:#484848;stroke-width:18.75px;"/><path d="M903.251,1655.98c4.707,-14.351 83.552,-113.439 64.512,-166.519c-8.582,-23.924 -115.183,-182.282 -215.272,-11.729c-43.931,74.858 39.711,170.518 39.711,170.518c0,0 -62.548,-48.938 -113.922,-38.602c-86.793,17.462 -142.805,205.688 1.335,209.003c100.509,2.311 113.301,-32.53 113.301,-32.53c0,0 23.588,159.77 -27.169,183.477c-15.945,7.448 178.527,0 178.527,0c0,0 -60.274,-209.167 -39.305,-189.272c22.281,21.139 75.065,25.797 110.202,29.101c102.792,9.665 135.739,-131.964 86.19,-179.793c-74.907,-72.306 -202.817,40.697 -198.11,26.346Z" style="stroke:#484848;stroke-width:18.75px;"/><path d="M903.251,782.44c4.707,-14.351 83.552,-113.439 64.512,-166.519c-8.582,-23.925 -115.183,-182.282 -215.272,-11.73c-43.931,74.859 39.711,170.519 39.711,170.519c0,0 -62.548,-48.938 -113.922,-38.602c-86.793,17.462 -142.805,205.688 1.335,209.003c100.509,2.311 113.301,-32.53 113.301,-32.53c0,-0 23.588,159.77 -27.169,183.477c-15.945,7.448 178.527,0 178.527,0c0,0 -60.274,-209.167 -39.305,-189.272c22.281,21.139 75.065,25.797 110.202,29.101c102.792,9.665 135.739,-131.964 86.19,-179.793c-74.907,-72.306 -202.817,40.697 -198.11,26.346Z" style="stroke:#484848;stroke-width:18.75px;"/><path d="M901.751,2475.56c4.707,-14.351 83.552,-113.439 64.512,-166.519c-8.582,-23.925 -115.183,-182.282 -215.272,-11.729c-43.931,74.858 39.711,170.518 39.711,170.518c0,0 -62.548,-48.938 -113.922,-38.602c-86.793,17.462 -142.805,205.688 1.335,209.003c100.509,2.311 113.301,-32.53 113.301,-32.53c0,-0 23.588,159.77 -27.169,183.477c-15.945,7.448 178.527,0 178.527,0c0,0 -60.274,-209.167 -39.305,-189.272c22.281,21.139 75.065,25.797 110.202,29.101c102.792,9.665 135.739,-131.964 86.19,-179.793c-74.907,-72.306 -202.817,40.697 -198.11,26.346Z" style="stroke:#484848;stroke-width:18.75px;"/><path d="M1754.63,1655.98c4.707,-14.351 83.552,-113.439 64.512,-166.519c-8.582,-23.924 -115.183,-182.282 -215.272,-11.729c-43.931,74.858 39.711,170.518 39.711,170.518c-0,0 -62.548,-48.938 -113.922,-38.602c-86.794,17.462 -142.805,205.688 1.335,209.003c100.509,2.311 113.301,-32.53 113.301,-32.53c-0,0 23.587,159.77 -27.169,183.477c-15.945,7.448 178.527,0 178.527,0c-0,0 -60.274,-209.167 -39.305,-189.272c22.28,21.139 75.064,25.797 110.201,29.101c102.793,9.665 135.74,-131.964 86.19,-179.793c-74.907,-72.306 -202.816,40.697 -198.109,26.346Z" style="stroke:#484848;stroke-width:18.75px;"/><path d="M1754.63,782.44c4.707,-14.351 83.552,-113.439 64.512,-166.519c-8.582,-23.925 -115.183,-182.282 -215.272,-11.73c-43.931,74.859 39.711,170.519 39.711,170.519c-0,0 -62.548,-48.938 -113.922,-38.602c-86.794,17.462 -142.805,205.688 1.335,209.003c100.509,2.311 113.301,-32.53 113.301,-32.53c-0,-0 23.587,159.77 -27.169,183.477c-15.945,7.448 178.527,0 178.527,0c-0,0 -60.274,-209.167 -39.305,-189.272c22.28,21.139 75.064,25.797 110.201,29.101c102.793,9.665 135.74,-131.964 86.19,-179.793c-74.907,-72.306 -202.816,40.697 -198.109,26.346Z" style="stroke:#484848;stroke-width:18.75px;"/><path d="M1753.13,2475.56c4.707,-14.351 83.552,-113.439 64.512,-166.519c-8.582,-23.925 -115.183,-182.282 -215.272,-11.729c-43.931,74.858 39.711,170.518 39.711,170.518c-0,0 -62.548,-48.938 -113.922,-38.602c-86.794,17.462 -142.805,205.688 1.335,209.003c100.509,2.311 113.301,-32.53 113.301,-32.53c-0,-0 23.587,159.77 -27.169,183.477c-15.945,7.448 178.527,0 178.527,0c-0,0 -60.274,-209.167 -39.305,-189.272c22.28,21.139 75.064,25.797 110.201,29.101c102.793,9.665 135.74,-131.964 86.19,-179.793c-74.907,-72.306 -202.816,40.697 -198.109,26.346Z" style="stroke:#484848;stroke-width:18.75px;"/><g transform="matrix(-1,1.22465e-16,-1.22465e-16,-1,5067.19,8020.88)"><text x="2733.83px" y="5012.28px" style="font-family:'Mitr-ExtraLight', 'Mitr ExtraLight';font-weight:275;font-size:469.34px;">6</text></g><path d="M2150.98,2746.28c-3.44,10.642 -61.063,84.126 -47.148,123.49c6.272,17.743 84.18,135.181 157.329,8.699c32.106,-55.515 -29.023,-126.457 -29.023,-126.457c0,0 45.713,36.293 83.259,28.628c63.432,-12.95 104.367,-152.539 -0.976,-154.997c-73.455,-1.714 -82.804,24.124 -82.804,24.124c-0,-0 -17.239,-118.486 19.856,-136.067c11.653,-5.523 -130.474,-0 -130.474,-0c-0,-0 44.05,155.118 28.725,140.364c-16.283,-15.676 -54.86,-19.131 -80.539,-21.581c-75.125,-7.167 -99.204,97.865 -62.991,133.335c54.745,53.622 148.226,-30.181 144.786,-19.538Z" style="stroke:#484848;stroke-width:18.75px;"/></svg>