<?xml version="1.0" encoding="UTF-8" standalone="no"?><!DOCTYPE svg PUBLIC "-//W3C//DTD SVG 1.1//EN" "http://www.w3.org/Graphics/SVG/1.1/DTD/svg11.dtd"><svg width="100%" height="100%" viewBox="0 0 2481 3508" version="1.1" xmlns="http://www.w3.org/2000/svg" xmlns:xlink="http://www.w3.org/1999/xlink" xml:space="preserve"  style="fill-rule:evenodd;clip-rule:evenodd;stroke-linecap:round;stroke-linejoin:round;stroke-miterlimit:1.5;"><g id="XMLID_1_"></g><path d="M2483.33,147.433c0,-81.37 -66.062,-147.433 -147.433,-147.433l-2188.47,0c-81.37,0 -147.433,66.063 -147.433,147.433l0,3213.47c0,81.371 66.063,147.433 147.433,147.433l2188.47,0c81.371,0 147.433,-66.062 147.433,-147.433l0,-3213.47Z" style="fill:#fff;stroke:#000;stroke-width:16.5px;"/><path d="M1871.28,1608.06c-250.608,-583.254 -764.387,-685.992 -764.387,-685.992c-102.007,86.146 -371.716,217.436 -508.192,740.587c-17.83,68.345 -48.377,429.41 218.723,399.122c152.547,-17.298 337.018,-61.497 337.018,-61.497c0,0 56.979,504.64 -19.206,603.128c-76.186,98.488 176.071,37.417 242.976,27.196c66.905,-10.221 -5.548,-634.482 -5.548,-634.482c-0,0 166.665,46.594 350.91,21.896c225.015,-30.162 174.714,-347.101 147.706,-409.958Z" style="stroke:#505050;stroke-width:16.67px;"/><path d="M2071.55,2772.96c46.624,138.958 142.208,163.435 142.208,163.435c18.978,-20.524 69.155,-51.803 94.545,-176.442c3.317,-16.283 9,-102.306 -40.691,-95.09c-28.38,4.121 -62.7,14.652 -62.7,14.652c0,-0 -10.6,-120.229 3.573,-143.694c14.174,-23.464 -32.756,-8.914 -45.203,-6.479c-12.447,2.435 1.032,151.163 1.032,151.163c-0,0 -31.007,-11.101 -65.284,-5.216c-41.862,7.186 -32.504,82.695 -27.48,97.671Z" style="stroke:#505050;stroke-width:16.67px;"/><path d="M395.337,749.492c-46.624,-138.958 -142.208,-163.435 -142.208,-163.435c-18.978,20.524 -69.155,51.803 -94.545,176.442c-3.317,16.283 -9,102.306 40.691,95.09c28.381,-4.122 62.7,-14.652 62.7,-14.652c-0,0 10.6,120.229 -3.573,143.694c-14.174,23.464 32.756,8.914 45.203,6.479c12.447,-2.435 -1.032,-151.163 -1.032,-151.163c0,-0 31.007,11.1 65.284,5.216c41.862,-7.186 32.504,-82.696 27.48,-97.671Z" style="stroke:#505050;stroke-width:16.67px;"/><text x="129.187px" y="503.058px" style="font-family:'Mitr-ExtraLight', 'Mitr ExtraLight';font-weight:275;font-size:469.34px;">A</text><g transform="matrix(-1,1.22465e-16,-1.22465e-16,-1,5067.19,8020.88)"><text x="2733.83px" y="5012.28px" style="font-family:'Mitr-ExtraLight', 'Mitr ExtraLight';font-weight:275;font-size:469.34px;">A</text></g></svg>