<?xml version="1.0" encoding="UTF-8" standalone="no"?><!DOCTYPE svg PUBLIC "-//W3C//DTD SVG 1.1//EN" "http://www.w3.org/Graphics/SVG/1.1/DTD/svg11.dtd"><svg width="100%" height="100%" viewBox="0 0 2481 3508" version="1.1" xmlns="http://www.w3.org/2000/svg" xmlns:xlink="http://www.w3.org/1999/xlink" xml:space="preserve" style="fill-rule:evenodd;clip-rule:evenodd;stroke-linecap:round;stroke-linejoin:round;stroke-miterlimit:1.5;"><g id="XMLID_1_"></g><path d="M2483.33,147.433c0,-81.37 -66.062,-147.433 -147.433,-147.433l-2188.47,0c-81.37,0 -147.433,66.063 -147.433,147.433l0,3213.47c0,81.371 66.063,147.433 147.433,147.433l2188.47,0c81.371,0 147.433,-66.062 147.433,-147.433l0,-3213.47Z" style="fill:#fff;stroke:#000;stroke-width:16.5px;"/><path d="M581.08,2057.73c13.805,104.841 95.973,387.737 196.742,722.556c19.777,65.713 178.769,186.105 347.728,169.39c67.423,-6.669 345.426,-134.022 405.323,-646.779c5.865,-50.205 96.549,-146.341 146.524,-286.172c30.989,-86.706 160.934,-349.913 136.544,-429.718c-24.391,-79.805 4.42,-226.466 -127.689,-242.077c-132.109,-15.61 -1083.11,-12.799 -1161.44,88.074c-148.36,191.041 42.467,519.885 56.271,624.726Z" style="fill:#ffb9df;stroke:#ffce23;stroke-width:58.33px;"/><path d="M429.712,2262.96c39.122,-273.071 99.442,-731.383 116.724,-759.004c17.282,-27.621 -207.385,224.927 -207.385,224.927" style="fill:none;stroke:#ffce23;stroke-width:204.17px;"/><path d="M1707.05,1335.85c-65.856,188.665 160.248,3.903 60.516,535.195c-6.633,35.334 187.404,288.31 187.404,288.31" style="fill:none;stroke:#ffce23;stroke-width:204.17px;"/><path d="M1240.17,2601.01c-51.969,2.252 -169.82,93.264 -216.662,105.77c-46.842,12.505 -3.049,-45.141 -46.351,-44.299" style="fill:none;stroke:#000;stroke-width:129.17px;"/><path d="M1192.38,2147.53c-0,0 -78.134,-14.348 -65.439,13.29" style="fill:none;stroke:#000;stroke-width:58.33px;"/><path d="M1491.46,1782.08c67.371,37.562 110.992,87.922 97.35,112.39c-13.641,24.467 -79.413,13.836 -146.784,-23.726c-67.371,-37.563 -110.992,-87.923 -97.351,-112.39c13.642,-24.468 79.414,-13.836 146.785,23.726Z" style="fill:#14b9df;stroke:#000;stroke-width:66.67px;"/><path d="M798.619,1754.17c77.912,-42.702 158.344,-46.029 179.502,-7.426c21.157,38.603 -24.921,104.612 -102.833,147.314c-77.912,42.701 -158.344,46.029 -179.502,7.426c-21.157,-38.603 24.921,-104.613 102.833,-147.314Z" style="fill:#14b9df;stroke:#000;stroke-width:66.67px;"/><path d="M990.249,2164.2c14.477,6.581 67.822,13.29 67.822,13.29" style="fill:none;stroke:#000;stroke-width:62.5px;"/><path d="M941.365,696.585c-69.069,-205.855 -210.669,-242.116 -210.669,-242.116c-28.114,30.405 -102.447,76.742 -140.061,261.385c-4.914,24.122 -13.333,151.558 60.281,140.868c42.043,-6.106 92.885,-21.705 92.885,-21.705c-0,-0 15.703,178.109 -5.294,212.87c-20.997,34.76 48.526,13.206 66.966,9.599c18.439,-3.608 -1.529,-223.937 -1.529,-223.937c-0,0 45.934,16.445 96.713,7.728c62.015,-10.645 48.152,-122.507 40.708,-144.692Z" style="stroke:#505050;stroke-width:16.67px;"/><path d="M1539.13,2787.95c69.069,205.856 210.669,242.117 210.669,242.117c28.114,-30.405 102.447,-76.743 140.061,-261.386c4.914,-24.122 13.333,-151.558 -60.281,-140.867c-42.043,6.105 -92.885,21.705 -92.885,21.705c0,-0 -15.703,-178.11 5.294,-212.87c20.997,-34.761 -48.526,-13.207 -66.966,-9.599c-18.439,3.607 1.529,223.936 1.529,223.936c0,0 -45.934,-16.445 -96.713,-7.728c-62.015,10.646 -48.152,122.507 -40.708,144.692Z" style="stroke:#505050;stroke-width:16.67px;"/><path d="M2071.55,2772.96c46.624,138.958 142.208,163.435 142.208,163.435c18.978,-20.524 69.155,-51.803 94.545,-176.442c3.317,-16.283 9,-102.306 -40.691,-95.09c-28.38,4.121 -62.7,14.652 -62.7,14.652c0,-0 -10.6,-120.229 3.573,-143.694c14.174,-23.464 -32.756,-8.914 -45.203,-6.479c-12.447,2.435 1.032,151.163 1.032,151.163c-0,0 -31.007,-11.101 -65.284,-5.216c-41.862,7.186 -32.504,82.695 -27.48,97.671Z" style="stroke:#505050;stroke-width:16.67px;"/><path d="M395.337,749.492c-46.624,-138.958 -142.208,-163.435 -142.208,-163.435c-18.978,20.524 -69.155,51.803 -94.545,176.442c-3.317,16.283 -9,102.306 40.691,95.09c28.381,-4.122 62.7,-14.652 62.7,-14.652c-0,0 10.6,120.229 -3.573,143.694c-14.174,23.464 32.756,8.914 45.203,6.479c12.447,-2.435 -1.032,-151.163 -1.032,-151.163c0,-0 31.007,11.1 65.284,5.216c41.862,-7.186 32.504,-82.696 27.48,-97.671Z" style="stroke:#505050;stroke-width:16.67px;"/><text x="129.187px" y="503.058px" style="font-family:'Mitr-ExtraLight', 'Mitr ExtraLight';font-weight:275;font-size:469.34px;">K</text><g transform="matrix(-1,1.22465e-16,-1.22465e-16,-1,5067.19,8020.88)"><text x="2733.83px" y="5012.28px" style="font-family:'Mitr-ExtraLight', 'Mitr ExtraLight';font-weight:275;font-size:469.34px;">K</text></g><path d="M488.674,1564.38c0,-0 1305.15,235.246 1275.6,-172.532c-29.554,-407.778 -9.699,-674.684 -9.699,-674.684l-102.268,269.957l-131.451,-316.415l-117.56,281.035l-172.965,-348.658l-152.165,399.335l-150.362,-223.675l-66.262,287.309l-219.929,-179.272l4.973,198.31l-227.424,9.853l69.513,469.437Z" style="fill:#8d6b00;stroke:#ac8000;stroke-width:41.67px;"/><ellipse cx="1514.54" cy="670.702" rx="67.027" ry="111.281" style="fill:#e982de;"/><ellipse cx="1221.47" cy="616.4" rx="95.344" ry="165.582" style="fill:#e982de;"/><path d="M1758.64,672.822c29.191,11.711 45.379,68.672 36.12,127.13c-9.254,58.458 -40.47,96.409 -69.666,84.704c-29.192,-11.705 -45.379,-68.671 -36.125,-127.13c9.258,-58.458 40.475,-96.409 69.671,-84.704Z" style="fill:#c482e9;stroke:#e5aaaa;stroke-width:4.43px;"/><path d="M478.438,1032.3c29.755,65.531 27.35,146.797 -5.366,181.37c-32.717,34.574 -83.434,9.441 -113.188,-56.09c-29.754,-65.525 -27.35,-146.797 5.367,-181.37c32.717,-34.573 83.433,-9.441 113.187,56.09Z" style="fill:#d982e9;stroke:#e5aaaa;stroke-width:4.43px;"/><path d="M706.284,825.821c23.888,53.491 16.534,124.738 -16.412,159.001c-32.95,34.269 -79.096,18.656 -102.984,-34.829c-23.891,-53.492 -16.537,-124.738 16.413,-159.001c32.946,-34.269 79.092,-18.662 102.983,34.829Z" style="fill:#e9be82;stroke:#e5aaaa;stroke-width:4.43px;"/><path d="M865.605,848.799c-12.383,-72.123 4.483,-142.256 37.642,-156.518c33.162,-14.261 70.133,32.717 82.516,104.84c12.384,72.13 -4.483,142.262 -37.641,156.524c-33.163,14.261 -70.134,-32.717 -82.517,-104.846Z" style="fill:#e982de;stroke:#e5aaaa;stroke-width:4.43px;"/><path d="M1167.3,2616.38c-19.763,5.095 -84.739,107.704 -151.971,74.535" style="fill:none;stroke:#fdfaf2;stroke-width:37.5px;"/></svg>