<?xml version="1.0" encoding="UTF-8" standalone="no"?><!DOCTYPE svg PUBLIC "-//W3C//DTD SVG 1.1//EN" "http://www.w3.org/Graphics/SVG/1.1/DTD/svg11.dtd"><svg width="100%" height="100%" viewBox="0 0 2481 3508" version="1.1" xmlns="http://www.w3.org/2000/svg" xmlns:xlink="http://www.w3.org/1999/xlink" xml:space="preserve"  style="fill-rule:evenodd;clip-rule:evenodd;stroke-linecap:round;stroke-linejoin:round;stroke-miterlimit:1.5;"><g id="XMLID_1_"></g><path d="M2483.33,147.433c0,-81.37 -66.062,-147.433 -147.433,-147.433l-2188.47,0c-81.37,0 -147.433,66.063 -147.433,147.433l0,3213.47c0,81.371 66.063,147.433 147.433,147.433l2188.47,0c81.371,0 147.433,-66.062 147.433,-147.433l0,-3213.47Z" style="fill:#fff;stroke:#000;stroke-width:16.5px;"/><path d="M2180.24,2501.06l203.452,217.669l-203.452,217.668l-203.451,-217.668l203.451,-217.669Z" style="fill:#f00;"/><path d="M278.203,575.259l203.451,217.669l-203.451,217.668l-203.452,-217.668l203.452,-217.669Z" style="fill:#f00;"/><text x="129.187px" y="503.058px" style="font-family:'Mitr-ExtraLight', 'Mitr ExtraLight';font-weight:275;font-size:469.34px;">J</text><g transform="matrix(-1,1.22465e-16,-1.22465e-16,-1,5067.19,8020.88)"><text x="2733.83px" y="5012.28px" style="font-family:'Mitr-ExtraLight', 'Mitr ExtraLight';font-weight:275;font-size:469.34px;">J</text></g><path d="M1098.6,2459.66c60.38,91.994 256.646,357.64 308.72,392.618c52.075,34.979 201.537,-2.104 231.588,-62.248c30.051,-60.145 74.344,-277.337 125.253,-344.573c50.909,-67.236 197.589,-195.704 257.509,-429.374c11.585,-45.176 -32.242,-340.914 -264.699,-480.362c-232.457,-139.448 -657.958,-245.498 -748.911,-35.741c-90.953,209.758 -45.606,599.939 -12.467,680.017c33.139,80.077 42.627,187.669 103.007,279.663Z" style="fill:#d09d86;stroke:#f8cea8;stroke-width:54.17px;"/><path d="M1099.84,1570.95c-98.894,145.717 -262.068,197.316 -542.685,523.736" style="fill:none;stroke:#fffd5e;stroke-width:229.17px;"/><path d="M1006.21,1570.95c37.013,153.276 -58.555,241.749 -179.149,732.606" style="fill:none;stroke:#fffd5e;stroke-width:229.17px;"/><path d="M1943.78,1666.88c-20.887,95.12 -26.431,156.221 -54.064,219.728" style="fill:none;stroke:#fffd5e;stroke-width:208.33px;"/><path d="M1955.53,1652.56c71.675,65.93 121.679,101.478 162.643,157.323" style="fill:none;stroke:#fffd5e;stroke-width:208.33px;"/><g><path d="M919.63,1652.56l1080.35,-18.244l2.496,-669.053l-229.696,304.685l-370.555,-370.615l-181.791,318.443l-260.346,-388.017l-64.308,435.888l-150.987,-319.332l174.838,706.245Z" style="fill:#ffa86c;stroke:#000;stroke-width:4.17px;"/><path d="M1406.36,764.252l160.785,149.34l-139.972,158.529l-160.786,-149.34l139.973,-158.529Z" style="fill:#f00;"/><path d="M1995.82,834.553l122.354,175.853l-175.352,127.141l-122.355,-175.853l175.353,-127.141Z" style="fill:#f00;"/><path d="M1006.37,725.095l148.265,159.349l-153.017,148.447l-148.265,-159.35l153.017,-148.446Z" style="fill:#f00;"/><path d="M674.366,851.913l204.129,96.935l-75.169,191.576l-204.129,-96.936l75.169,-191.575Z" style="fill:#f00;"/></g><path d="M1490.52,2036.24c9.636,1.663 16.174,10.459 14.592,19.631c-1.583,9.171 -10.691,15.268 -20.327,13.605c-9.636,-1.663 -16.175,-10.459 -14.592,-19.631c1.582,-9.171 10.691,-15.268 20.327,-13.605Z" style="fill:none;stroke:#000;stroke-width:20.83px;"/><path d="M1420.38,2058.36c9.636,1.663 16.175,10.459 14.592,19.631c-1.582,9.172 -10.691,15.268 -20.327,13.605c-9.636,-1.662 -16.174,-10.458 -14.592,-19.63c1.583,-9.172 10.691,-15.268 20.327,-13.606Z" style="fill:none;stroke:#000;stroke-width:20.83px;"/><path d="M1382.69,2571.14c130.723,-137.406 31.779,-229.9 193.302,-230.457" style="fill:none;stroke:#000;stroke-width:20.83px;"/><ellipse cx="1210.99" cy="1825.34" rx="30.68" ry="27.105" style="fill:none;stroke:#050200;stroke-width:162.5px;"/><path d="M1599.02,1801.04c9.131,-1.544 16.985,-0.191 17.528,3.021c0.544,3.212 -6.428,7.074 -15.559,8.618c-9.131,1.545 -16.985,0.191 -17.529,-3.02c-0.543,-3.212 6.429,-7.074 15.56,-8.619Z" style="fill:none;stroke:#050200;stroke-width:162.5px;"/></svg>