<?xml version="1.0" encoding="UTF-8" standalone="no"?><!DOCTYPE svg PUBLIC "-//W3C//DTD SVG 1.1//EN" "http://www.w3.org/Graphics/SVG/1.1/DTD/svg11.dtd"><svg width="100%" height="100%" viewBox="0 0 438 438" version="1.1" xmlns="http://www.w3.org/2000/svg" xmlns:xlink="http://www.w3.org/1999/xlink" xml:space="preserve"  style="fill-rule:evenodd;clip-rule:evenodd;stroke-linecap:round;stroke-linejoin:round;stroke-miterlimit:1.5;"><path d="M248.958,192.288c3.14,-9.217 51.132,-49.988 36.632,-99.415c-6.659,-22.697 -90.296,-103.37 -141.471,3.699c-17.504,36.621 30.756,90.751 30.756,90.751c-0,0 -41.728,-31.432 -76,-24.793c-57.902,11.215 -95.269,132.109 0.89,134.238c67.052,1.484 75.586,-20.893 75.586,-20.893c20.255,7.027 32.537,108.445 -18.125,117.843c-11.275,2.092 119.099,0 119.099,0c-0,0 -40.21,-134.343 -26.221,-121.565c14.864,13.577 50.077,16.569 73.518,18.691c68.575,6.207 90.555,-84.758 57.499,-115.477c-49.972,-46.441 -135.304,26.138 -132.163,16.921Z" style="stroke:#484848;stroke-width:6.25px;"/></svg>