<?xml version="1.0" encoding="UTF-8" standalone="no"?><!DOCTYPE svg PUBLIC "-//W3C//DTD SVG 1.1//EN" "http://www.w3.org/Graphics/SVG/1.1/DTD/svg11.dtd"><svg width="100%" height="100%" viewBox="0 0 189 266" version="1.1" xmlns="http://www.w3.org/2000/svg" xmlns:xlink="http://www.w3.org/1999/xlink" xml:space="preserve" style="fill-rule:evenodd;clip-rule:evenodd;stroke-linecap:round;stroke-linejoin:round;stroke-miterlimit:1.5;"><path d="M30.911,13.651c-9.221,4.933 -18.622,16.964 -18.622,16.964l51.342,93.296c-0,0 -58.664,109.98 -55.21,119.217c3.453,9.237 20.074,21.74 24.513,13.387c4.44,-8.353 57.638,-114.577 57.638,-114.577c0,0 60.682,110.654 65.485,112.83c4.804,2.175 27.04,-3.78 27.113,-9.24c0.073,-5.459 -66.207,-122.504 -66.183,-122.504c0.024,-0 64.412,-101.931 64.412,-101.931c-0,-0 -10.753,-21.025 -20.454,-11.68c-9.702,9.345 -70.45,107.187 -70.45,107.187c-0,-0 -50.363,-107.882 -59.584,-102.949Z" style="fill:#ff002a;stroke:#231f20;stroke-width:0.32px;"/></svg>